{
.appVersion = "1270";
DisplayStrings = (
G,
DZ,
r
);
classes = (
{
code = " gravecomb acutecomb uni0302 tildecomb uni0304 uni0308 ";
name = AboveMarks;
},
{
code = " uni0304.titl ";
name = AboveCapitalMarks;
},
{
code = " a d e o q a.hist1 a.alt3 e.hist1 agrave aacute acircumflex atilde adieresis amacron\012	    agrave.alt2 aacute.alt2 acircumflex.alt2 atilde.alt2 adieresis.alt2 amacron.alt2\012		agrave.hist1 aacute.hist1 acircumflex.hist1 atilde.hist1 adieresis.hist1 amacron.hist1\012		ocgrave.l0rx ocacute.l0rx occircumflex.l0rx octilde.l0rx ocdieresis.l0rx ocmacron.l0rx\012		agrave.l0rtg aacute.l0rtg acircumflex.l0rtg atilde.l0rtg adieresis.l0rtg amacron.l0rtg\012		ocgrave.l0rg ocacute.l0rg occircumflex.l0rg octilde.l0rg ocdieresis.l0rg ocmacron.l0rg\012		ocgrave.l0rt ocacute.l0rt occircumflex.l0rt octilde.l0rt ocdieresis.l0rt ocmacron.l0rt\012		egrave.hist1 eacute.hist1 ecircumflex.hist1 edieresis.hist1 emacron.hist1\012		egrave.l0rg eacute.l0rg ecircumflex.l0rg edieresis.l0rg emacron.l0rg a.alt2 a.hist1\012		oc.l0rx a.l0rtg oc.l0rg oc.l0rt e.l0rg ograve oacute ocircumflex otilde odieresis\012		omacron ";
name = round_left;
}
);
copyright = "Copyright 1993 and 2020 by Peter S. Baker.";
customParameters = (
{
name = note;
value = "2013-4-26: Created.";
},
{
name = openTypeNameVersion;
value = "Version 2.000";
},
{
name = openTypeOS2FamilyClass;
value = (
0,
0
);
},
{
name = fsType;
value = (
);
},
{
name = vendorID;
value = PfEd;
},
{
name = blueFuzz;
value = 1;
}
);
date = "2020-03-08 02:01:18 +0000";
disablesNiceNames = 1;
familyName = Cissanthemos;
featurePrefixes = (
{
code = "languagesystem DFLT dflt;\012languagesystem latn dflt;";
name = Languagesystems;
},
{

glyphs = (
{
glyphname = A;
lastChange = "2020-03-07 04:05:46 +0000";
layers = (
{
hints = (
{
horizontal = 1;
origin = "{0, 29}";
target = "{0, 38}";
type = Stem;
},
{
horizontal = 1;
origin = "{0, 14}";
target = "{1, 14}";
type = Stem;
},
{
horizontal = 1;
origin = "{0, 113}";
target = "{0, 89}";
type = Stem;
},
{
horizontal = 1;
origin = "{0, 83}";
target = down;
type = TopGhost;
},
{
horizontal = 1;
origin = "{0, 77}";
target = up;
type = BottomGhost;
},
{
horizontal = 1;
origin = "{0, 56}";
target = down;
type = TopGhost;
},
{
horizontal = 1;
origin = "{0, 65}";
target = "{0, 71}";
type = Stem;
},
{
horizontal = 1;
origin = "{0, 80}";
target = "{0, 56}";
type = Stem;
},
{
origin = "{0, 98}";
target = "{0, 104}";
type = Stem;
},
{
origin = "{0, 122}";
target = "{0, 2}";
type = Stem;
},
{
origin = "{0, 122}";
target = "{0, 5}";
type = Stem;
},
{
origin = "{0, 68}";
target = "{0, 74}";
type = Stem;
}
);
layerId = master01;
paths = (
{
closed = 1;
nodes = (
"420 -132 OFFCURVE",
"430 -119 OFFCURVE",
"430 -103 CURVE SMOOTH",
"430 -87 OFFCURVE",
"415 -73 OFFCURVE",
"415 -56 CURVE SMOOTH",
"415 -45 OFFCURVE",
"420 -34 OFFCURVE",
"425 -26 CURVE SMOOTH",
"472 52 OFFCURVE",
"519 129 OFFCURVE",
"551 221 CURVE",
"601 202 OFFCURVE",
"665 184 OFFCURVE",
"730 184 CURVE SMOOTH",
"802 184 OFFCURVE",
"858 203 OFFCURVE",
"901 238 CURVE",
"917 203 OFFCURVE",
"932 169 OFFCURVE",
"949 134 CURVE SMOOTH",
"974 81 OFFCURVE",
"1004 31 OFFCURVE",
"1032 -19 CURVE SMOOTH",
"1039 -32 OFFCURVE",
"1045 -40 OFFCURVE",
"1064 -41 CURVE SMOOTH",
"1105 -43 OFFCURVE",
"1146 -52 OFFCURVE",
"1190 -52 CURVE SMOOTH",
"1205 -52 OFFCURVE",
"1220 -50 OFFCURVE",
"1234 -49 CURVE SMOOTH",
"1250 -47 OFFCURVE",
"1261 -41 OFFCURVE",
"1261 -35 CURVE SMOOTH",
"1261 -31 OFFCURVE",
"1256 -28 OFFCURVE",
"1240 -28 CURVE SMOOTH",
"1180 -28 OFFCURVE",
"1133 -3 OFFCURVE",
"1109 38 CURVE SMOOTH",
"1072 103 OFFCURVE",
"1040 172 OFFCURVE",
"1006 239 CURVE SMOOTH",
"970 311 OFFCURVE",
"932 383 OFFCURVE",
"900 457 CURVE SMOOTH",
"880 504 OFFCURVE",
"861 551 OFFCURVE",
"841 598 CURVE SMOOTH",
"817 653 OFFCURVE",
"793 707 OFFCURVE",
"775 767 CURVE",
"759 768 OFFCURVE",
"743 769 OFFCURVE",
"727 769 CURVE SMOOTH",
"686 769 OFFCURVE",
"656 759 OFFCURVE",
"622 757 CURVE SMOOTH",
"542 752 OFFCURVE",
"465 740 OFFCURVE",
"397 720 CURVE SMOOTH",
"377 714 OFFCURVE",
"366 712 OFFCURVE",
"343 712 CURVE SMOOTH",
"319 712 OFFCURVE",
"299 693 OFFCURVE",
"299 671 CURVE SMOOTH",
"299 649 OFFCURVE",
"319 631 OFFCURVE",
"343 631 CURVE SMOOTH",
"367 631 OFFCURVE",
"388 649 OFFCURVE",
"388 671 CURVE SMOOTH",
"388 679 OFFCURVE",
"384 688 OFFCURVE",
"379 694 CURVE",
"463 719 OFFCURVE",
"558 732 OFFCURVE",
"656 739 CURVE",
"682 721 OFFCURVE",
"699 690 OFFCURVE",
"712 660 CURVE",
"644 547 OFFCURVE",
"588 415 OFFCURVE",
"545 281 CURVE",
"485 306 OFFCURVE",
"423 341 OFFCURVE",
"346 341 CURVE SMOOTH",
"294 341 OFFCURVE",
"250 329 OFFCURVE",
"208 317 CURVE SMOOTH",
"131 295 OFFCURVE",
"58 274 OFFCURVE",
"-7 240 CURVE SMOOTH",
"-35 226 OFFCURVE",
"-82 222 OFFCURVE",
"-82 179 CURVE SMOOTH",
"-82 139 OFFCURVE",
"-45 96 OFFCURVE",
"-14 96 CURVE SMOOTH",
"8 96 OFFCURVE",
"18 115 OFFCURVE",
"18 132 CURVE SMOOTH",
"18 162 OFFCURVE",
"-7 200 OFFCURVE",
"-24 210 CURVE",
"36 241 OFFCURVE",
"102 262 OFFCURVE",
"172 281 CURVE SMOOTH",
"214 293 OFFCURVE",
"255 304 OFFCURVE",
"298 304 CURVE SMOOTH",
"389 304 OFFCURVE",
"460 259 OFFCURVE",
"528 230 CURVE",
"502 154 OFFCURVE",
"464 84 OFFCURVE",
"422 20 CURVE SMOOTH",
"414 6 OFFCURVE",
"353 -62 OFFCURVE",
"353 -103 CURVE SMOOTH",
"353 -120 OFFCURVE",
"364 -132 OFFCURVE",
"394 -132 CURVE SMOOTH"
);
},
{
closed = 1;
nodes = (
"688 220 OFFCURVE",
"624 248 OFFCURVE",
"568 271 CURVE",
"588 333 OFFCURVE",
"611 391 OFFCURVE",
"636 450 CURVE SMOOTH",
"664 514 OFFCURVE",
"688 577 OFFCURVE",
"722 635 CURVE",
"772 505 OFFCURVE",
"833 388 OFFCURVE",
"889 264 CURVE",
"853 242 OFFCURVE",
"814 220 OFFCURVE",
"761 220 CURVE SMOOTH"
);
}
);
width = 1195;
}
);
rightKerningGroup = A;
unicode = 0041;
},
{
glyphname = Aring;
lastChange = "2020-03-06 23:10:27 +0000";
layers = (
{
hints = (
{
horizontal = 1;
origin = "{0, 29}";
target = "{0, 38}";
type = Stem;
},
{
horizontal = 1;
origin = "{0, 14}";
target = "{1, 14}";
type = Stem;
},
{
horizontal = 1;
origin = "{0, 113}";
target = "{0, 89}";
type = Stem;
},
{
horizontal = 1;
origin = "{0, 83}";
target = down;
type = TopGhost;
},
{
horizontal = 1;
origin = "{0, 77}";
target = up;
type = BottomGhost;
},
{
horizontal = 1;
origin = "{0, 56}";
target = down;
type = TopGhost;
},
{
horizontal = 1;
origin = "{0, 65}";
target = "{0, 71}";
type = Stem;
},
{
horizontal = 1;
origin = "{0, 80}";
target = "{0, 56}";
type = Stem;
},
{
origin = "{0, 98}";
target = "{0, 104}";
type = Stem;
},
{
origin = "{0, 122}";
target = "{0, 2}";
type = Stem;
},
{
origin = "{0, 122}";
target = "{0, 5}";
type = Stem;
},
{
origin = "{0, 68}";
target = "{0, 74}";
type = Stem;
}
);
layerId = master01;
paths = (
{
closed = 1;
nodes = (
"420 -132 OFFCURVE",
"430 -119 OFFCURVE",
"430 -103 CURVE SMOOTH",
"430 -87 OFFCURVE",
"415 -73 OFFCURVE",
"415 -56 CURVE SMOOTH",
"415 -45 OFFCURVE",
"420 -34 OFFCURVE",
"425 -26 CURVE SMOOTH",
"472 52 OFFCURVE",
"519 129 OFFCURVE",
"551 221 CURVE",
"601 202 OFFCURVE",
"665 184 OFFCURVE",
"730 184 CURVE SMOOTH",
"802 184 OFFCURVE",
"858 203 OFFCURVE",
"901 238 CURVE",
"917 203 OFFCURVE",
"932 169 OFFCURVE",
"949 134 CURVE SMOOTH",
"974 81 OFFCURVE",
"1004 31 OFFCURVE",
"1032 -19 CURVE SMOOTH",
"1039 -32 OFFCURVE",
"1045 -40 OFFCURVE",
"1064 -41 CURVE SMOOTH",
"1105 -43 OFFCURVE",
"1146 -52 OFFCURVE",
"1190 -52 CURVE SMOOTH",
"1205 -52 OFFCURVE",
"1220 -50 OFFCURVE",
"1234 -49 CURVE SMOOTH",
"1250 -47 OFFCURVE",
"1261 -41 OFFCURVE",
"1261 -35 CURVE SMOOTH",
"1261 -31 OFFCURVE",
"1256 -28 OFFCURVE",
"1240 -28 CURVE SMOOTH",
"1180 -28 OFFCURVE",
"1133 -3 OFFCURVE",
"1109 38 CURVE SMOOTH",
"1072 103 OFFCURVE",
"1040 172 OFFCURVE",
"1006 239 CURVE SMOOTH",
"970 311 OFFCURVE",
"932 383 OFFCURVE",
"900 457 CURVE SMOOTH",
"880 504 OFFCURVE",
"861 551 OFFCURVE",
"841 598 CURVE SMOOTH",
"817 653 OFFCURVE",
"793 707 OFFCURVE",
"775 767 CURVE",
"759 768 OFFCURVE",
"743 769 OFFCURVE",
"727 769 CURVE SMOOTH",
"686 769 OFFCURVE",
"656 759 OFFCURVE",
"622 757 CURVE SMOOTH",
"542 752 OFFCURVE",
"465 740 OFFCURVE",
"397 720 CURVE SMOOTH",
"377 714 OFFCURVE",
"366 712 OFFCURVE",
"343 712 CURVE SMOOTH",
"319 712 OFFCURVE",
"299 693 OFFCURVE",
"299 671 CURVE SMOOTH",
"299 649 OFFCURVE",
"319 631 OFFCURVE",
"343 631 CURVE SMOOTH",
"367 631 OFFCURVE",
"388 649 OFFCURVE",
"388 671 CURVE SMOOTH",
"388 679 OFFCURVE",
"384 688 OFFCURVE",
"379 694 CURVE",
"463 719 OFFCURVE",
"558 732 OFFCURVE",
"656 739 CURVE",
"682 721 OFFCURVE",
"699 690 OFFCURVE",
"712 660 CURVE",
"644 547 OFFCURVE",
"588 415 OFFCURVE",
"545 281 CURVE",
"485 306 OFFCURVE",
"423 341 OFFCURVE",
"346 341 CURVE SMOOTH",
"294 341 OFFCURVE",
"250 329 OFFCURVE",
"208 317 CURVE SMOOTH",
"131 295 OFFCURVE",
"58 274 OFFCURVE",
"-7 240 CURVE SMOOTH",
"-35 226 OFFCURVE",
"-82 222 OFFCURVE",
"-82 179 CURVE SMOOTH",
"-82 139 OFFCURVE",
"-45 96 OFFCURVE",
"-14 96 CURVE SMOOTH",
"8 96 OFFCURVE",
"18 115 OFFCURVE",
"18 132 CURVE SMOOTH",
"18 162 OFFCURVE",
"-7 200 OFFCURVE",
"-24 210 CURVE",
"36 241 OFFCURVE",
"102 262 OFFCURVE",
"172 281 CURVE SMOOTH",
"214 293 OFFCURVE",
"255 304 OFFCURVE",
"298 304 CURVE SMOOTH",
"389 304 OFFCURVE",
"460 259 OFFCURVE",
"528 230 CURVE",
"502 154 OFFCURVE",
"464 84 OFFCURVE",
"422 20 CURVE SMOOTH",
"414 6 OFFCURVE",
"353 -62 OFFCURVE",
"353 -103 CURVE SMOOTH",
"353 -120 OFFCURVE",
"364 -132 OFFCURVE",
"394 -132 CURVE SMOOTH"
);
},
{
closed = 1;
nodes = (
"688 220 OFFCURVE",
"624 248 OFFCURVE",
"568 271 CURVE",
"588 333 OFFCURVE",
"611 391 OFFCURVE",
"636 450 CURVE SMOOTH",
"664 514 OFFCURVE",
"688 577 OFFCURVE",
"722 635 CURVE",
"772 505 OFFCURVE",
"833 388 OFFCURVE",
"889 264 CURVE",
"853 242 OFFCURVE",
"814 220 OFFCURVE",
"761 220 CURVE SMOOTH"
);
}
);
width = 1195;
}
);
unicode = 00C5;
},
{
glyphname = AE;
lastChange = "2020-03-07 11:18:19 +0000";
layers = (
{
hints = (
{
horizontal = 1;
origin = "{0, 80}";
target = up;
type = BottomGhost;
},
{
horizontal = 1;
place = "{8.5, 32.5}";
type = Stem;
},
{
horizontal = 1;
origin = "{0, 12}";
target = "{1, 16}";
type = Stem;
},
{
horizontal = 1;
origin = "{0, 58}";
target = "{0, 66}";
type = Stem;
},
{
horizontal = 1;
origin = "{0, 21}";
target = up;
type = BottomGhost;
},
{
horizontal = 1;
origin = "{0, 65}";
target = down;
type = TopGhost;
},
{
origin = "{0, 18}";
target = "{0, 37}";
type = Stem;
},
{
origin = "{0, 72}";
target = "{0, 37}";
type = Stem;
},
{
origin = "{1, 9}";
target = "{0, 37}";
type = Stem;
}
);
layerId = master01;
paths = (
{
closed = 1;
nodes = (
"110 -6 LINE",
"104 5 OFFCURVE",
"98 23 OFFCURVE",
"98 41 CURVE SMOOTH",
"98 52 OFFCURVE",
"99 59 OFFCURVE",
"103 70 CURVE",
"109 111 OFFCURVE",
"138 183 OFFCURVE",
"158 241 CURVE",
"193 237 OFFCURVE",
"230 235 OFFCURVE",
"262 235 CURVE SMOOTH",
"267 235 OFFCURVE",
"275 239 OFFCURVE",
"280 239 CURVE",
"281 199 OFFCURVE",
"286 162 OFFCURVE",
"286 122 CURVE SMOOTH",
"286 84 OFFCURVE",
"282 48 OFFCURVE",
"270 11 CURVE",
"691 6 LINE",
"679 24 OFFCURVE",
"672 65 OFFCURVE",
"668 85 CURVE SMOOTH",
"663 123 OFFCURVE",
"664 151 OFFCURVE",
"660 191 CURVE",
"649 159 OFFCURVE",
"644 112 OFFCURVE",
"610 92 CURVE",
"549 37 OFFCURVE",
"452 46 OFFCURVE",
"374 41 CURVE",
"373 45 OFFCURVE",
"372 49 OFFCURVE",
"372 53 CURVE SMOOTH",
"372 374 LINE",
"464 361 OFFCURVE",
"601 389 OFFCURVE",
"644 292 CURVE SMOOTH",
"649 281 OFFCURVE",
"652 274 OFFCURVE",
"653 263 CURVE",
"656 526 LINE SMOOTH",
"656 531 OFFCURVE",
"652 531 OFFCURVE",
"650 529 CURVE",
"638 495 OFFCURVE",
"620 454 OFFCURVE",
"582 440 CURVE",
"510 417 OFFCURVE",
"443 435 OFFCURVE",
"372 419 CURVE",
"372 738 LINE",
"400 743 OFFCURVE",
"431 746 OFFCURVE",
"462 746 CURVE SMOOTH",
"517 746 OFFCURVE",
"570 736 OFFCURVE",
"610 708 CURVE",
"640 683 OFFCURVE",
"644 636 OFFCURVE",
"656 605 CURVE",
"668 779 LINE",
"449 775 LINE SMOOTH",
"419 775 OFFCURVE",
"300 774 OFFCURVE",
"252 774 CURVE",
"263 756 OFFCURVE",
"265 735 OFFCURVE",
"265 712 CURVE SMOOTH",
"265 657 OFFCURVE",
"243 597 OFFCURVE",
"227 548 CURVE",
"198 465 OFFCURVE",
"171 385 OFFCURVE",
"137 308 CURVE",
"16 8 LINE",
"5 -4 LINE",
"10 -6 LINE"
);
},
{
closed = 1;
nodes = (
"235 276 OFFCURVE",
"205 279 OFFCURVE",
"174 284 CURVE",
"269 566 LINE SMOOTH",
"270 571 OFFCURVE",
"275 584 OFFCURVE",
"277 584 CURVE SMOOTH",
"279 584 OFFCURVE",
"281 571 OFFCURVE",
"281 565 CURVE SMOOTH",
"286 284 LINE SMOOTH",
"286 280 OFFCURVE",
"283 280 OFFCURVE",
"282 276 CURVE",
"277 276 OFFCURVE",
"270 276 OFFCURVE",
"264 276 CURVE SMOOTH"
);
}
);
width = 710;
}
);
leftKerningGroup = A.titl1;
rightKerningGroup = E.titl2;
unicode = 00C6;
},
{
glyphname = B;
lastChange = "2020-03-07 04:14:09 +0000";
layers = (
{
hints = (
{
horizontal = 1;
origin = "{0, 14}";
target = "{1, 32}";
type = Stem;
},
{
horizontal = 1;
origin = "{1, 20}";
target = "{0, 26}";
type = Stem;
},
{
horizontal = 1;
origin = "{2, 9}";
target = "{0, 36}";
type = Stem;
},
{
horizontal = 1;
origin = "{0, 54}";
target = up;
type = BottomGhost;
},
{
horizontal = 1;
origin = "{0, 48}";
target = down;
type = TopGhost;
},
{
horizontal = 1;
origin = "{0, 57}";
target = down;
type = TopGhost;
},
{
horizontal = 1;
origin = "{1, 17}";
target = "{2, 18}";
type = Stem;
},
{
origin = "{0, 70}";
target = "{2, 2}";
type = Stem;
},
{
origin = "{2, 12}";
target = "{0, 33}";
type = Stem;
},
{
origin = "{1, 26}";
target = "{0, 20}";
type = Stem;
},
{
origin = "{0, 70}";
target = "{1, 5}";
type = Stem;
}
);
layerId = master01;
paths = (
{
closed = 1;
nodes = (
"3 -115 OFFCURVE",
"9 -113 OFFCURVE",
"19 -106 CURVE SMOOTH",
"36 -93 OFFCURVE",
"56 -77 OFFCURVE",
"80 -77 CURVE SMOOTH",
"90 -77 OFFCURVE",
"99 -78 OFFCURVE",
"109 -78 CURVE SMOOTH",
"126 -78 OFFCURVE",
"145 -74 OFFCURVE",
"163 -74 CURVE SMOOTH",
"236 -74 OFFCURVE",
"228 -101 OFFCURVE",
"304 -101 CURVE SMOOTH",
"417 -101 OFFCURVE",
"498 -74 OFFCURVE",
"551 -19 CURVE SMOOTH",
"586 18 OFFCURVE",
"595 88 OFFCURVE",
"595 154 CURVE SMOOTH",
"595 220 OFFCURVE",
"555 271 OFFCURVE",
"518 302 CURVE SMOOTH",
"466 344 OFFCURVE",
"400 355 OFFCURVE",
"290 355 CURVE",
"282 367 LINE",
"323 393 OFFCURVE",
"359 419 OFFCURVE",
"395 454 CURVE SMOOTH",
"439 496 OFFCURVE",
"481 536 OFFCURVE",
"481 614 CURVE SMOOTH",
"481 723 OFFCURVE",
"424 762 OFFCURVE",
"318 762 CURVE SMOOTH",
"247 762 OFFCURVE",
"201 729 OFFCURVE",
"163 695 CURVE",
"163 724 OFFCURVE",
"175 747 OFFCURVE",
"192 763 CURVE SMOOTH",
"199 769 OFFCURVE",
"202 775 OFFCURVE",
"202 780 CURVE SMOOTH",
"202 785 OFFCURVE",
"199 786 OFFCURVE",
"194 786 CURVE SMOOTH",
"190 786 OFFCURVE",
"186 782 OFFCURVE",
"181 776 CURVE SMOOTH",
"155 746 OFFCURVE",
"148 727 OFFCURVE",
"85 727 CURVE SMOOTH",
"56 727 OFFCURVE",
"32 737 OFFCURVE",
"6 737 CURVE SMOOTH",
"-12 737 OFFCURVE",
"-22 731 OFFCURVE",
"-22 725 CURVE SMOOTH",
"-22 717 OFFCURVE",
"-12 708 OFFCURVE",
"2 703 CURVE SMOOTH",
"49 684 OFFCURVE",
"82 653 OFFCURVE",
"84 587 CURVE SMOOTH",
"85 570 OFFCURVE",
"85 553 OFFCURVE",
"85 536 CURVE SMOOTH",
"85 442 LINE SMOOTH",
"85 364 OFFCURVE",
"89 286 OFFCURVE",
"89 209 CURVE SMOOTH",
"89 137 OFFCURVE",
"86 65 OFFCURVE",
"78 0 CURVE SMOOTH",
"74 -24 OFFCURVE",
"66 -30 OFFCURVE",
"49 -40 CURVE SMOOTH",
"33 -50 OFFCURVE",
"20 -62 OFFCURVE",
"6 -74 CURVE SMOOTH",
"-6 -84 OFFCURVE",
"-12 -96 OFFCURVE",
"-12 -104 CURVE SMOOTH",
"-12 -111 OFFCURVE",
"-9 -115 OFFCURVE",
"-2 -115 CURVE SMOOTH"
);
},
{
closed = 1;
nodes = (
"327 -61 OFFCURVE",
"306 -57 OFFCURVE",
"286 -50 CURVE SMOOTH",
"228 -32 OFFCURVE",
"157 2 OFFCURVE",
"157 80 CURVE SMOOTH",
"157 91 OFFCURVE",
"158 104 OFFCURVE",
"158 116 CURVE SMOOTH",
"158 141 OFFCURVE",
"154 166 OFFCURVE",
"154 191 CURVE SMOOTH",
"154 217 OFFCURVE",
"157 242 OFFCURVE",
"157 268 CURVE SMOOTH",
"157 302 OFFCURVE",
"184 305 OFFCURVE",
"214 305 CURVE SMOOTH",
"225 305 OFFCURVE",
"237 304 OFFCURVE",
"247 304 CURVE SMOOTH",
"360 304 OFFCURVE",
"432 256 OFFCURVE",
"486 192 CURVE SMOOTH",
"505 169 OFFCURVE",
"527 141 OFFCURVE",
"527 101 CURVE SMOOTH",
"527 83 OFFCURVE",
"521 66 OFFCURVE",
"514 49 CURVE SMOOTH",
"488 -11 OFFCURVE",
"429 -61 OFFCURVE",
"350 -61 CURVE SMOOTH"
);
},
{
closed = 1;
nodes = (
"159 352 OFFCURVE",
"160 371 OFFCURVE",
"160 391 CURVE SMOOTH",
"160 604 LINE SMOOTH",
"160 654 OFFCURVE",
"193 677 OFFCURVE",
"224 697 CURVE SMOOTH",
"242 709 OFFCURVE",
"265 722 OFFCURVE",
"295 722 CURVE SMOOTH",
"356 722 OFFCURVE",
"401 661 OFFCURVE",
"401 596 CURVE SMOOTH",
"401 537 OFFCURVE",
"368 498 OFFCURVE",
"337 462 CURVE SMOOTH",
"290 409 OFFCURVE",
"235 362 OFFCURVE",
"163 334 CURVE"
);
}
);
width = 630;
}
);
rightKerningGroup = B;
unicode = 0042;
},
{
glyphname = C;
lastChange = "2020-03-07 04:19:56 +0000";
layers = (
{
hints = (
{
horizontal = 1;
origin = "{0, 110}";
target = "{0, 23}";
type = Stem;
},
{
horizontal = 1;
origin = "{0, 56}";
target = "{0, 50}";
type = Stem;
},
{
horizontal = 1;
origin = "{0, 38}";
target = "{0, 98}";
type = Stem;
},
{
origin = "{0, 104}";
target = "{0, 32}";
type = Stem;
},
{
origin = "{0, 53}";
target = "{0, 59}";
type = Stem;
}
);
layerId = master01;
paths = (
{
closed = 1;
nodes = (
"560 -260 OFFCURVE",
"674 -194 OFFCURVE",
"738 -114 CURVE SMOOTH",
"766 -79 OFFCURVE",
"786 -40 OFFCURVE",
"808 1 CURVE SMOOTH",
"813 11 OFFCURVE",
"815 18 OFFCURVE",
"815 24 CURVE SMOOTH",
"815 29 OFFCURVE",
"813 32 OFFCURVE",
"809 32 CURVE SMOOTH",
"805 32 OFFCURVE",
"799 28 OFFCURVE",
"793 16 CURVE SMOOTH",
"765 -32 OFFCURVE",
"738 -82 OFFCURVE",
"701 -120 CURVE SMOOTH",
"671 -151 OFFCURVE",
"634 -176 OFFCURVE",
"596 -194 CURVE SMOOTH",
"559 -212 OFFCURVE",
"523 -226 OFFCURVE",
"474 -226 CURVE SMOOTH",
"370 -226 OFFCURVE",
"290 -164 OFFCURVE",
"246 -98 CURVE SMOOTH",
"218 -56 OFFCURVE",
"203 -10 OFFCURVE",
"187 38 CURVE SMOOTH",
"164 110 OFFCURVE",
"145 197 OFFCURVE",
"145 288 CURVE SMOOTH",
"145 356 OFFCURVE",
"151 416 OFFCURVE",
"164 478 CURVE SMOOTH",
"188 596 OFFCURVE",
"228 733 OFFCURVE",
"374 733 CURVE SMOOTH",
"436 733 OFFCURVE",
"467 702 OFFCURVE",
"467 641 CURVE SMOOTH",
"467 610 OFFCURVE",
"464 582 OFFCURVE",
"458 554 CURVE SMOOTH",
"441 480 OFFCURVE",
"385 438 OFFCURVE",
"335 394 CURVE",
"328 400 OFFCURVE",
"322 402 OFFCURVE",
"317 402 CURVE SMOOTH",
"307 402 OFFCURVE",
"300 394 OFFCURVE",
"300 384 CURVE SMOOTH",
"300 366 OFFCURVE",
"320 343 OFFCURVE",
"336 343 CURVE SMOOTH",
"346 343 OFFCURVE",
"354 351 OFFCURVE",
"354 362 CURVE SMOOTH",
"354 369 OFFCURVE",
"350 378 OFFCURVE",
"342 388 CURVE",
"380 417 OFFCURVE",
"424 439 OFFCURVE",
"455 476 CURVE SMOOTH",
"469 494 OFFCURVE",
"482 514 OFFCURVE",
"502 527 CURVE SMOOTH",
"508 531 OFFCURVE",
"515 534 OFFCURVE",
"520 534 CURVE SMOOTH",
"533 534 OFFCURVE",
"545 523 OFFCURVE",
"562 523 CURVE SMOOTH",
"566 523 OFFCURVE",
"571 524 OFFCURVE",
"575 524 CURVE SMOOTH",
"579 524 OFFCURVE",
"583 523 OFFCURVE",
"587 522 CURVE SMOOTH",
"600 518 OFFCURVE",
"614 514 OFFCURVE",
"628 512 CURVE SMOOTH",
"633 511 OFFCURVE",
"637 511 OFFCURVE",
"641 511 CURVE SMOOTH",
"648 511 OFFCURVE",
"652 513 OFFCURVE",
"652 515 CURVE SMOOTH",
"652 519 OFFCURVE",
"644 522 OFFCURVE",
"632 527 CURVE SMOOTH",
"583 545 OFFCURVE",
"576 606 OFFCURVE",
"560 655 CURVE SMOOTH",
"538 723 OFFCURVE",
"485 758 OFFCURVE",
"395 758 CURVE SMOOTH",
"305 758 OFFCURVE",
"236 726 OFFCURVE",
"186 679 CURVE SMOOTH",
"101 601 OFFCURVE",
"46 491 OFFCURVE",
"46 330 CURVE SMOOTH",
"46 163 OFFCURVE",
"86 21 OFFCURVE",
"154 -91 CURVE SMOOTH",
"208 -180 OFFCURVE",
"289 -260 OFFCURVE",
"427 -260 CURVE SMOOTH"
);
}
);
width = 711;
}
);
rightKerningGroup = C;
unicode = 0043;
},
{
glyphname = Ccedilla;
lastChange = "2020-03-06 23:11:09 +0000";
layers = (
{
hints = (
{
horizontal = 1;
origin = "{0, 145}";
target = "{0, 161}";
type = Stem;
},
{
horizontal = 1;
origin = "{0, 126}";
target = "{0, 39}";
type = Stem;
},
{
horizontal = 1;
origin = "{0, 54}";
target = "{0, 114}";
type = Stem;
},
{
horizontal = 1;
origin = "{0, 72}";
target = "{0, 66}";
type = Stem;
},
{
origin = "{0, 120}";
target = "{0, 48}";
type = Stem;
},
{
origin = "{0, 139}";
target = "{0, 5}";
type = Stem;
},
{
origin = "{0, 69}";
target = "{0, 75}";
type = Stem;
}
);
layerId = master01;
paths = (
{
closed = 1;
nodes = (
"316 -478 OFFCURVE",
"331 -474 OFFCURVE",
"351 -467 CURVE SMOOTH",
"383 -456 OFFCURVE",
"443 -427 OFFCURVE",
"443 -386 CURVE SMOOTH",
"443 -358 OFFCURVE",
"417 -323 OFFCURVE",
"401 -310 CURVE SMOOTH",
"396 -306 OFFCURVE",
"394 -303 OFFCURVE",
"394 -299 CURVE SMOOTH",
"394 -295 OFFCURVE",
"396 -293 OFFCURVE",
"401 -289 CURVE SMOOTH",
"446.044 -259.548 LINE",
"570.844 -253.623 OFFCURVE",
"677.076 -190.155 OFFCURVE",
"738 -114 CURVE SMOOTH",
"766 -79 OFFCURVE",
"786 -40 OFFCURVE",
"808 1 CURVE SMOOTH",
"813 11 OFFCURVE",
"815 18 OFFCURVE",
"815 24 CURVE SMOOTH",
"815 29 OFFCURVE",
"813 32 OFFCURVE",
"809 32 CURVE SMOOTH",
"805 32 OFFCURVE",
"799 28 OFFCURVE",
"793 16 CURVE SMOOTH",
"765 -32 OFFCURVE",
"738 -82 OFFCURVE",
"701 -120 CURVE SMOOTH",
"671 -151 OFFCURVE",
"634 -176 OFFCURVE",
"596 -194 CURVE SMOOTH",
"559 -212 OFFCURVE",
"523 -226 OFFCURVE",
"474 -226 CURVE SMOOTH",
"370 -226 OFFCURVE",
"290 -164 OFFCURVE",
"246 -98 CURVE SMOOTH",
"218 -56 OFFCURVE",
"203 -10 OFFCURVE",
"187 38 CURVE SMOOTH",
"164 110 OFFCURVE",
"145 197 OFFCURVE",
"145 288 CURVE SMOOTH",
"145 356 OFFCURVE",
"151 416 OFFCURVE",
"164 478 CURVE SMOOTH",
"188 596 OFFCURVE",
"228 733 OFFCURVE",
"374 733 CURVE SMOOTH",
"436 733 OFFCURVE",
"467 702 OFFCURVE",
"467 641 CURVE SMOOTH",
"467 610 OFFCURVE",
"464 582 OFFCURVE",
"458 554 CURVE SMOOTH",
"441 480 OFFCURVE",
"385 438 OFFCURVE",
"335 394 CURVE",
"328 400 OFFCURVE",
"322 402 OFFCURVE",
"317 402 CURVE SMOOTH",
"307 402 OFFCURVE",
"300 394 OFFCURVE",
"300 384 CURVE SMOOTH",
"300 366 OFFCURVE",
"320 343 OFFCURVE",
"336 343 CURVE SMOOTH",
"346 343 OFFCURVE",
"354 351 OFFCURVE",
"354 362 CURVE SMOOTH",
"354 369 OFFCURVE",
"350 378 OFFCURVE",
"342 388 CURVE",
"380 417 OFFCURVE",
"424 439 OFFCURVE",
"455 476 CURVE SMOOTH",
"469 494 OFFCURVE",
"482 514 OFFCURVE",
"502 527 CURVE SMOOTH",
"508 531 OFFCURVE",
"515 534 OFFCURVE",
"520 534 CURVE SMOOTH",
"533 534 OFFCURVE",
"545 523 OFFCURVE",
"562 523 CURVE SMOOTH",
"566 523 OFFCURVE",
"571 524 OFFCURVE",
"575 524 CURVE SMOOTH",
"579 524 OFFCURVE",
"583 523 OFFCURVE",
"587 522 CURVE SMOOTH",
"600 518 OFFCURVE",
"614 514 OFFCURVE",
"628 512 CURVE SMOOTH",
"633 511 OFFCURVE",
"637 511 OFFCURVE",
"641 511 CURVE SMOOTH",
"648 511 OFFCURVE",
"652 513 OFFCURVE",
"652 515 CURVE SMOOTH",
"652 519 OFFCURVE",
"644 522 OFFCURVE",
"632 527 CURVE SMOOTH",
"583 545 OFFCURVE",
"576 606 OFFCURVE",
"560 655 CURVE SMOOTH",
"538 723 OFFCURVE",
"485 758 OFFCURVE",
"395 758 CURVE SMOOTH",
"305 758 OFFCURVE",
"236 726 OFFCURVE",
"186 679 CURVE SMOOTH",
"101 601 OFFCURVE",
"46 491 OFFCURVE",
"46 330 CURVE SMOOTH",
"46 163 OFFCURVE",
"86 21 OFFCURVE",
"154 -91 CURVE SMOOTH",
"204.591 -174.381 OFFCURVE",
"278.88 -249.863 OFFCURVE",
"401.538 -259.061 CURVE",
"336 -302 LINE SMOOTH",
"320 -312 OFFCURVE",
"312 -321 OFFCURVE",
"312 -328 CURVE SMOOTH",
"312 -332 OFFCURVE",
"314 -334 OFFCURVE",
"318 -338 CURVE SMOOTH",
"338 -354 OFFCURVE",
"353 -367 OFFCURVE",
"360 -375 CURVE SMOOTH",
"367 -383 OFFCURVE",
"371 -393 OFFCURVE",
"371 -404 CURVE SMOOTH",
"371 -410 OFFCURVE",
"370 -416 OFFCURVE",
"368 -422 CURVE SMOOTH",
"366 -428 OFFCURVE",
"361 -430 OFFCURVE",
"356 -430 CURVE SMOOTH",
"343 -430 OFFCURVE",
"324 -415 OFFCURVE",
"317 -409 CURVE SMOOTH",
"309 -401 OFFCURVE",
"300 -399 OFFCURVE",
"290 -404 CURVE SMOOTH",
"254 -421 LINE SMOOTH",
"246 -425 OFFCURVE",
"242 -429 OFFCURVE",
"242 -434 CURVE SMOOTH",
"242 -436 OFFCURVE",
"242 -439 OFFCURVE",
"244 -441 CURVE SMOOTH",
"260 -459 OFFCURVE",
"284 -478 OFFCURVE",
"310 -478 CURVE SMOOTH"
);
}
);
width = 711;
}
);
unicode = 00C7;
},
{
glyphname = D;
lastChange = "2020-03-06 23:11:15 +0000";
layers = (
{
hints = (
{
horizontal = 1;
origin = "{0, 68}";
target = "{0, 114}";
type = Stem;
},
{
horizontal = 1;
origin = "{0, 102}";
target = "{0, 80}";
type = Stem;
},
{
horizontal = 1;
origin = "{0, 47}";
target = down;
type = TopGhost;
},
{
horizontal = 1;
origin = "{0, 38}";
target = down;
type = TopGhost;
},
{
origin = "{0, 108}";
target = "{0, 74}";
type = Stem;
},
{
origin = "{0, 120}";
target = "{0, 11}";
type = Stem;
},
{
origin = "{0, 53}";
target = "{0, 14}";
type = Stem;
}
);
layerId = master01;
paths = (
{
closed = 1;
nodes = (
"1050 -343 OFFCURVE",
"1088 -335 OFFCURVE",
"1130 -331 CURVE SMOOTH",
"1143 -330 OFFCURVE",
"1150 -327 OFFCURVE",
"1150 -322 CURVE SMOOTH",
"1150 -316 OFFCURVE",
"1141 -308 OFFCURVE",
"1130 -304 CURVE SMOOTH",
"1098 -292 OFFCURVE",
"1068 -272 OFFCURVE",
"1068 -228 CURVE SMOOTH",
"1068 48 OFFCURVE",
"1099 299 OFFCURVE",
"1099 575 CURVE SMOOTH",
"1099 631 OFFCURVE",
"1092 684 OFFCURVE",
"1092 736 CURVE SMOOTH",
"1092 765 OFFCURVE",
"1105 782 OFFCURVE",
"1118 800 CURVE SMOOTH",
"1123 806 OFFCURVE",
"1126 811 OFFCURVE",
"1126 816 CURVE SMOOTH",
"1126 826 OFFCURVE",
"1120 832 OFFCURVE",
"1110 832 CURVE SMOOTH",
"1104 832 OFFCURVE",
"1097 828 OFFCURVE",
"1091 822 CURVE SMOOTH",
"1081 812 OFFCURVE",
"1071 803 OFFCURVE",
"1060 796 CURVE SMOOTH",
"1035 779 OFFCURVE",
"1002 758 OFFCURVE",
"962 758 CURVE SMOOTH",
"913 758 OFFCURVE",
"893 798 OFFCURVE",
"844 798 CURVE SMOOTH",
"838 798 OFFCURVE",
"832 797 OFFCURVE",
"826 796 CURVE SMOOTH",
"812 792 OFFCURVE",
"804 786 OFFCURVE",
"804 779 CURVE SMOOTH",
"804 772 OFFCURVE",
"811 763 OFFCURVE",
"824 758 CURVE SMOOTH",
"884 735 OFFCURVE",
"937 707 OFFCURVE",
"990 676 CURVE SMOOTH",
"1012 663 OFFCURVE",
"1015 630 OFFCURVE",
"1015 598 CURVE SMOOTH",
"1015 579 OFFCURVE",
"1014 560 OFFCURVE",
"1014 542 CURVE SMOOTH",
"1014 493 OFFCURVE",
"1012 445 OFFCURVE",
"1008 396 CURVE SMOOTH",
"1003 308 OFFCURVE",
"1000 220 OFFCURVE",
"996 134 CURVE",
"968 57 OFFCURVE",
"938 -12 OFFCURVE",
"886 -70 CURVE SMOOTH",
"822 -140 OFFCURVE",
"724 -186 OFFCURVE",
"600 -186 CURVE SMOOTH",
"496 -186 OFFCURVE",
"410 -157 OFFCURVE",
"331 -110 CURVE SMOOTH",
"217 -43 OFFCURVE",
"134 73 OFFCURVE",
"134 246 CURVE SMOOTH",
"134 389 OFFCURVE",
"205 480 OFFCURVE",
"293 542 CURVE SMOOTH",
"354 586 OFFCURVE",
"422 620 OFFCURVE",
"518 620 CURVE SMOOTH",
"667 620 OFFCURVE",
"768 542 OFFCURVE",
"835 451 CURVE SMOOTH",
"846 435 OFFCURVE",
"856 426 OFFCURVE",
"869 426 CURVE SMOOTH",
"875 426 OFFCURVE",
"881 428 OFFCURVE",
"888 432 CURVE SMOOTH",
"910 443 LINE SMOOTH",
"920 448 OFFCURVE",
"924 457 OFFCURVE",
"924 467 CURVE SMOOTH",
"924 474 OFFCURVE",
"921 483 OFFCURVE",
"916 490 CURVE SMOOTH",
"896 519 OFFCURVE",
"872 545 OFFCURVE",
"844 568 CURVE SMOOTH",
"764 634 OFFCURVE",
"645 658 OFFCURVE",
"505 658 CURVE SMOOTH",
"371 658 OFFCURVE",
"288 602 OFFCURVE",
"211 540 CURVE SMOOTH",
"123 468 OFFCURVE",
"46 373 OFFCURVE",
"46 223 CURVE SMOOTH",
"46 69 OFFCURVE",
"122 -49 OFFCURVE",
"212 -125 CURVE SMOOTH",
"291 -192 OFFCURVE",
"396 -241 OFFCURVE",
"534 -241 CURVE SMOOTH",
"742 -241 OFFCURVE",
"900 -152 OFFCURVE",
"991 -31 CURVE",
"991 -73 OFFCURVE",
"992 -114 OFFCURVE",
"992 -155 CURVE SMOOTH",
"992 -213 OFFCURVE",
"978 -260 OFFCURVE",
"978 -313 CURVE SMOOTH",
"978 -336 OFFCURVE",
"990 -343 OFFCURVE",
"1010 -343 CURVE SMOOTH"
);
}
);
width = 1162;
}
);
unicode = 0044;
},
{
glyphname = Eth;
lastChange = "2020-03-06 23:11:22 +0000";
layers = (
{
hints = (
{
horizontal = 1;
origin = "{0, 59}";
target = "{1, 36}";
type = Stem;
},
{
horizontal = 1;
origin = "{0, 32}";
target = "{1, 3}";
type = Stem;
},
{
horizontal = 1;
origin = "{1, 18}";
target = "{0, 17}";
type = Stem;
},
{
horizontal = 1;
origin = "{0, 50}";
target = down;
type = TopGhost;
},
{
origin = "{0, 47}";
target = "{1, 2}";
type = Stem;
},
{
origin = "{1, 30}";
target = "{0, 8}";
type = Stem;
}
);
layerId = master01;
paths = (
{
closed = 1;
nodes = (
"451 -6 OFFCURVE",
"550 7 OFFCURVE",
"624 54 CURVE SMOOTH",
"658 74 OFFCURVE",
"692 108 OFFCURVE",
"720 142 CURVE SMOOTH",
"774 209 OFFCURVE",
"802 291 OFFCURVE",
"802 379 CURVE SMOOTH",
"802 564 OFFCURVE",
"690 694 OFFCURVE",
"572 738 CURVE",
"475 775 OFFCURVE",
"396 779 OFFCURVE",
"308 779 CURVE SMOOTH",
"279 779 OFFCURVE",
"251 779 OFFCURVE",
"223 779 CURVE SMOOTH",
"189 779 OFFCURVE",
"133 778 OFFCURVE",
"92 770 CURVE",
"111 751 OFFCURVE",
"115 719 OFFCURVE",
"115 688 CURVE SMOOTH",
"115 674 OFFCURVE",
"115 660 OFFCURVE",
"115 648 CURVE SMOOTH",
"115 607 OFFCURVE",
"108 565 OFFCURVE",
"108 523 CURVE SMOOTH",
"108 491 OFFCURVE",
"111 457 OFFCURVE",
"112 425 CURVE",
"58 427 OFFCURVE",
"7 440 OFFCURVE",
"-31 480 CURVE",
"-29 440 OFFCURVE",
"-25 357 OFFCURVE",
"-25 323 CURVE",
"-17 329 OFFCURVE",
"-9 343 OFFCURVE",
"1 349 CURVE SMOOTH",
"32 374 OFFCURVE",
"71 384 OFFCURVE",
"113 388 CURVE",
"114 344 OFFCURVE",
"115 296 OFFCURVE",
"115 252 CURVE SMOOTH",
"115 164 OFFCURVE",
"110 79 OFFCURVE",
"84 1 CURVE",
"89 -3 OFFCURVE",
"102 -4 OFFCURVE",
"110 -4 CURVE SMOOTH",
"127 -4 OFFCURVE",
"146 -2 OFFCURVE",
"164 -2 CURVE SMOOTH",
"226 -2 OFFCURVE",
"295 -6 OFFCURVE",
"359 -6 CURVE SMOOTH"
);
},
{
closed = 1;
nodes = (
"282 25 OFFCURVE",
"250 27 OFFCURVE",
"215 31 CURVE",
"215 389 LINE",
"277 389 LINE SMOOTH",
"333 389 OFFCURVE",
"389 381 OFFCURVE",
"430 349 CURVE SMOOTH",
"440 343 OFFCURVE",
"447 329 OFFCURVE",
"455 323 CURVE",
"455 357 OFFCURVE",
"460 440 OFFCURVE",
"462 480 CURVE",
"416 433 OFFCURVE",
"352 425 OFFCURVE",
"288 425 CURVE SMOOTH",
"215 425 LINE",
"215 740 LINE",
"226 740 OFFCURVE",
"234 740 OFFCURVE",
"245 740 CURVE SMOOTH",
"305 740 OFFCURVE",
"374 739 OFFCURVE",
"434 728 CURVE SMOOTH",
"523 710 OFFCURVE",
"601 647 OFFCURVE",
"636 569 CURVE SMOOTH",
"664 510 OFFCURVE",
"679 433 OFFCURVE",
"679 360 CURVE SMOOTH",
"679 292 OFFCURVE",
"666 223 OFFCURVE",
"636 162 CURVE SMOOTH",
"578 47 OFFCURVE",
"445 25 OFFCURVE",
"323 25 CURVE SMOOTH"
);
}
);
width = 806;
}
);
unicode = 00D0;
},
{
glyphname = E;
lastChange = "2020-03-06 23:11:27 +0000";
layers = (
{
hints = (
{
horizontal = 1;
origin = "{0, 93}";
target = "{0, 20}";
type = Stem;
},
{
horizontal = 1;
origin = "{0, 32}";
target = "{0, 50}";
type = Stem;
},
{
horizontal = 1;
origin = "{0, 81}";
target = "{0, 62}";
type = Stem;
},
{
horizontal = 1;
origin = "{0, 32}";
target = "{0, 53}";
type = Stem;
},
{
origin = "{0, 87}";
target = "{0, 56}";
type = Stem;
}
);
layerId = master01;
paths = (
{
closed = 1;
nodes = (
"605 -43 OFFCURVE",
"712 45 OFFCURVE",
"752 194 CURVE SMOOTH",
"754 201 OFFCURVE",
"757 210 OFFCURVE",
"757 215 CURVE SMOOTH",
"757 222 OFFCURVE",
"752 226 OFFCURVE",
"739 226 CURVE SMOOTH",
"732 226 OFFCURVE",
"725 224 OFFCURVE",
"718 224 CURVE SMOOTH",
"705 223 OFFCURVE",
"696 220 OFFCURVE",
"692 216 CURVE SMOOTH",
"687 210 OFFCURVE",
"687 204 OFFCURVE",
"683 193 CURVE SMOOTH",
"651 102 OFFCURVE",
"590 5 OFFCURVE",
"475 5 CURVE SMOOTH",
"438 5 OFFCURVE",
"404 15 OFFCURVE",
"370 29 CURVE SMOOTH",
"260 77 OFFCURVE",
"170 165 OFFCURVE",
"148 302 CURVE",
"182 321 OFFCURVE",
"221 328 OFFCURVE",
"269 330 CURVE SMOOTH",
"324 332 OFFCURVE",
"378 338 OFFCURVE",
"437 338 CURVE SMOOTH",
"474 338 OFFCURVE",
"511 337 OFFCURVE",
"548 337 CURVE SMOOTH",
"604 337 OFFCURVE",
"655 341 OFFCURVE",
"702 352 CURVE SMOOTH",
"724 357 OFFCURVE",
"736 370 OFFCURVE",
"736 378 CURVE SMOOTH",
"736 384 OFFCURVE",
"730 389 OFFCURVE",
"716 389 CURVE SMOOTH",
"705 389 OFFCURVE",
"693 386 OFFCURVE",
"682 384 CURVE SMOOTH",
"598 370 OFFCURVE",
"502 372 OFFCURVE",
"404 370 CURVE SMOOTH",
"337 368 OFFCURVE",
"271 360 OFFCURVE",
"203 360 CURVE SMOOTH",
"183 360 OFFCURVE",
"164 360 OFFCURVE",
"145 362 CURVE",
"147 400 OFFCURVE",
"157 438 OFFCURVE",
"173 472 CURVE SMOOTH",
"213 558 OFFCURVE",
"284 648 OFFCURVE",
"409 648 CURVE SMOOTH",
"539 648 OFFCURVE",
"613 570 OFFCURVE",
"653 476 CURVE SMOOTH",
"658 463 OFFCURVE",
"668 451 OFFCURVE",
"684 451 CURVE SMOOTH",
"688 451 OFFCURVE",
"695 453 OFFCURVE",
"700 455 CURVE SMOOTH",
"730 467 LINE SMOOTH",
"742 472 OFFCURVE",
"750 484 OFFCURVE",
"750 497 CURVE SMOOTH",
"750 501 OFFCURVE",
"749 507 OFFCURVE",
"748 511 CURVE SMOOTH",
"704 630 OFFCURVE",
"609 697 OFFCURVE",
"451 697 CURVE SMOOTH",
"360 697 OFFCURVE",
"297 670 OFFCURVE",
"238 630 CURVE SMOOTH",
"148 570 OFFCURVE",
"47 478 OFFCURVE",
"47 334 CURVE SMOOTH",
"47 220 OFFCURVE",
"100 137 OFFCURVE",
"160 72 CURVE SMOOTH",
"221 6 OFFCURVE",
"300 -43 OFFCURVE",
"420 -43 CURVE SMOOTH"
);
}
);
width = 788;
}
);
unicode = 0045;
},
{
glyphname = F;
lastChange = "2020-03-06 23:11:32 +0000";
layers = (
{
hints = (
{
horizontal = 1;
origin = "{0, 11}";
target = "{0, 29}";
type = Stem;
},
{
horizontal = 1;
origin = "{0, 73}";
target = down;
type = TopGhost;
},
{
horizontal = 1;
origin = "{0, 48}";
target = "{0, 67}";
type = Stem;
},
{
origin = "{0, 94}";
target = "{0, 5}";
type = Stem;
},
{
origin = "{0, 94}";
target = "{0, 8}";
type = Stem;
},
{
origin = "{0, 70}";
target = "{0, 45}";
type = Stem;
},
{
origin = "{0, 103}";
target = "{0, 8}";
type = Stem;
}
);
layerId = master01;
paths = (
{
closed = 1;
nodes = (
"164 -324 OFFCURVE",
"196 -287 OFFCURVE",
"196 -245 CURVE SMOOTH",
"196 -228 OFFCURVE",
"193 -211 OFFCURVE",
"193 -194 CURVE SMOOTH",
"193 -135 OFFCURVE",
"199 -78 OFFCURVE",
"200 -20 CURVE",
"265 -1 OFFCURVE",
"347 4 OFFCURVE",
"426 4 CURVE SMOOTH",
"478 4 OFFCURVE",
"528 -1 OFFCURVE",
"578 -1 CURVE SMOOTH",
"656 -1 OFFCURVE",
"726 9 OFFCURVE",
"803 10 CURVE SMOOTH",
"820 10 OFFCURVE",
"829 17 OFFCURVE",
"829 24 CURVE SMOOTH",
"829 31 OFFCURVE",
"821 40 OFFCURVE",
"804 41 CURVE SMOOTH",
"791 42 OFFCURVE",
"778 42 OFFCURVE",
"766 42 CURVE SMOOTH",
"708 42 OFFCURVE",
"652 35 OFFCURVE",
"593 35 CURVE SMOOTH",
"541 35 OFFCURVE",
"488 40 OFFCURVE",
"438 40 CURVE SMOOTH",
"379 40 OFFCURVE",
"325 30 OFFCURVE",
"269 30 CURVE SMOOTH",
"244 30 OFFCURVE",
"223 32 OFFCURVE",
"200 37 CURVE",
"200 107 LINE SMOOTH",
"200 178 OFFCURVE",
"200 249 OFFCURVE",
"194 316 CURVE SMOOTH",
"190 357 OFFCURVE",
"184 396 OFFCURVE",
"184 439 CURVE SMOOTH",
"184 533 OFFCURVE",
"235 608 OFFCURVE",
"330 608 CURVE SMOOTH",
"403 608 OFFCURVE",
"462 575 OFFCURVE",
"502 527 CURVE SMOOTH",
"515 511 OFFCURVE",
"523 502 OFFCURVE",
"535 502 CURVE SMOOTH",
"539 502 OFFCURVE",
"543 503 OFFCURVE",
"548 505 CURVE SMOOTH",
"568 514 LINE SMOOTH",
"578 519 OFFCURVE",
"583 526 OFFCURVE",
"583 534 CURVE SMOOTH",
"583 540 OFFCURVE",
"581 547 OFFCURVE",
"575 554 CURVE SMOOTH",
"531 612 OFFCURVE",
"456 638 OFFCURVE",
"360 638 CURVE SMOOTH",
"206 638 OFFCURVE",
"116 552 OFFCURVE",
"114 401 CURVE",
"101 412 OFFCURVE",
"81 425 OFFCURVE",
"61 425 CURVE SMOOTH",
"51 425 OFFCURVE",
"44 423 OFFCURVE",
"37 418 CURVE SMOOTH",
"30 413 OFFCURVE",
"26 407 OFFCURVE",
"26 402 CURVE SMOOTH",
"26 396 OFFCURVE",
"31 390 OFFCURVE",
"37 385 CURVE SMOOTH",
"68 361 OFFCURVE",
"95 332 OFFCURVE",
"119 301 CURVE",
"121 267 OFFCURVE",
"124 235 OFFCURVE",
"124 200 CURVE SMOOTH",
"124 156 OFFCURVE",
"121 110 OFFCURVE",
"121 66 CURVE SMOOTH",
"121 25 OFFCURVE",
"124 -15 OFFCURVE",
"124 -56 CURVE SMOOTH",
"124 -134 OFFCURVE",
"119 -211 OFFCURVE",
"108 -282 CURVE SMOOTH",
"107 -289 OFFCURVE",
"106 -295 OFFCURVE",
"106 -302 CURVE SMOOTH",
"106 -312 OFFCURVE",
"110 -324 OFFCURVE",
"121 -324 CURVE SMOOTH"
);
}
);
width = 679;
}
);
unicode = 0046;
},
{
glyphname = G;
lastChange = "2020-03-06 23:11:40 +0000";
layers = (
{
hints = (
{
horizontal = 1;
origin = "{0, 143}";
target = "{0, 116}";
type = Stem;
},
{
horizontal = 1;
origin = "{0, 128}";
target = down;
type = TopGhost;
},
{
horizontal = 1;
origin = "{0, 26}";
target = "{0, 56}";
type = Stem;
},
{
horizontal = 1;
origin = "{0, 74}";
target = down;
type = TopGhost;
},
{
horizontal = 1;
origin = "{0, 77}";
target = down;
type = TopGhost;
},
{
origin = "{0, 98}";
target = "{0, 17}";
type = Stem;
},
{
origin = "{0, 137}";
target = "{0, 119}";
type = Stem;
},
{
origin = "{0, 110}";
target = "{0, 5}";
type = Stem;
},
{
origin = "{0, 44}";
target = "{0, 38}";
type = Stem;
}
);
layerId = master01;
paths = (
{
closed = 1;
nodes = (
"707 -613 OFFCURVE",
"784 -551 OFFCURVE",
"812 -467 CURVE SMOOTH",
"832 -406 OFFCURVE",
"869 -335 OFFCURVE",
"869 -257 CURVE SMOOTH",
"869 -118 OFFCURVE",
"740 -76 OFFCURVE",
"636 -44 CURVE SMOOTH",
"586 -27 OFFCURVE",
"532 -15 OFFCURVE",
"480 -5 CURVE SMOOTH",
"444 2 OFFCURVE",
"408 7 OFFCURVE",
"373 18 CURVE SMOOTH",
"284 47 OFFCURVE",
"223 116 OFFCURVE",
"223 232 CURVE SMOOTH",
"223 321 OFFCURVE",
"268 376 OFFCURVE",
"316 420 CURVE SMOOTH",
"351 452 OFFCURVE",
"386 484 OFFCURVE",
"422 515 CURVE",
"526 511 OFFCURVE",
"632 510 OFFCURVE",
"738 510 CURVE SMOOTH",
"800 510 OFFCURVE",
"851 510 OFFCURVE",
"901 529 CURVE SMOOTH",
"932 541 OFFCURVE",
"961 561 OFFCURVE",
"989 581 CURVE SMOOTH",
"1011 598 OFFCURVE",
"1038 616 OFFCURVE",
"1051 640 CURVE SMOOTH",
"1055 646 OFFCURVE",
"1057 653 OFFCURVE",
"1057 658 CURVE SMOOTH",
"1057 682 OFFCURVE",
"1024 696 OFFCURVE",
"998 696 CURVE SMOOTH",
"979 696 OFFCURVE",
"949 678 OFFCURVE",
"949 661 CURVE SMOOTH",
"949 657 OFFCURVE",
"951 653 OFFCURVE",
"955 649 CURVE SMOOTH",
"963 641 OFFCURVE",
"971 631 OFFCURVE",
"971 619 CURVE SMOOTH",
"971 614 OFFCURVE",
"969 608 OFFCURVE",
"965 602 CURVE SMOOTH",
"935 559 OFFCURVE",
"857 557 OFFCURVE",
"786 557 CURVE SMOOTH",
"613 557 OFFCURVE",
"441 570 OFFCURVE",
"280 581 CURVE SMOOTH",
"232 585 OFFCURVE",
"184 585 OFFCURVE",
"136 592 CURVE SMOOTH",
"105 597 OFFCURVE",
"92 615 OFFCURVE",
"92 635 CURVE SMOOTH",
"92 652 OFFCURVE",
"99 669 OFFCURVE",
"109 683 CURVE SMOOTH",
"111 687 OFFCURVE",
"113 688 OFFCURVE",
"113 692 CURVE SMOOTH",
"113 697 OFFCURVE",
"111 701 OFFCURVE",
"106 701 CURVE SMOOTH",
"102 701 OFFCURVE",
"99 700 OFFCURVE",
"95 696 CURVE SMOOTH",
"49 650 OFFCURVE",
"10 595 OFFCURVE",
"-50 564 CURVE SMOOTH",
"-57 560 OFFCURVE",
"-65 556 OFFCURVE",
"-65 552 CURVE SMOOTH",
"-65 548 OFFCURVE",
"-60 547 OFFCURVE",
"-49 547 CURVE SMOOTH",
"-23 547 OFFCURVE",
"5 546 OFFCURVE",
"31 544 CURVE SMOOTH",
"144 536 OFFCURVE",
"253 522 OFFCURVE",
"371 517 CURVE",
"322 474 OFFCURVE",
"274 431 OFFCURVE",
"228 385 CURVE SMOOTH",
"185 342 OFFCURVE",
"144 289 OFFCURVE",
"144 209 CURVE SMOOTH",
"144 90 OFFCURVE",
"220 -3 OFFCURVE",
"305 -43 CURVE SMOOTH",
"365 -71 OFFCURVE",
"432 -76 OFFCURVE",
"497 -92 CURVE SMOOTH",
"547 -103 OFFCURVE",
"595 -120 OFFCURVE",
"642 -140 CURVE SMOOTH",
"724 -177 OFFCURVE",
"787 -233 OFFCURVE",
"787 -348 CURVE SMOOTH",
"787 -391 OFFCURVE",
"783 -420 OFFCURVE",
"769 -463 CURVE SMOOTH",
"751 -517 OFFCURVE",
"705 -547 OFFCURVE",
"653 -547 CURVE SMOOTH",
"540 -547 OFFCURVE",
"463 -457 OFFCURVE",
"463 -344 CURVE SMOOTH",
"463 -282 OFFCURVE",
"492 -237 OFFCURVE",
"536 -214 CURVE SMOOTH",
"547 -208 OFFCURVE",
"554 -201 OFFCURVE",
"554 -196 CURVE SMOOTH",
"554 -192 OFFCURVE",
"550 -190 OFFCURVE",
"544 -190 CURVE SMOOTH",
"540 -190 OFFCURVE",
"534 -189 OFFCURVE",
"527 -193 CURVE SMOOTH",
"498 -204 OFFCURVE",
"473 -222 OFFCURVE",
"451 -245 CURVE SMOOTH",
"415 -282 OFFCURVE",
"382 -336 OFFCURVE",
"382 -404 CURVE SMOOTH",
"382 -428 OFFCURVE",
"386 -452 OFFCURVE",
"396 -475 CURVE SMOOTH",
"427 -549 OFFCURVE",
"500 -613 OFFCURVE",
"601 -613 CURVE SMOOTH"
);
}
);
width = 961;
}
);
unicode = 0047;
},
{
glyphname = H;
lastChange = "2020-03-06 23:12:00 +0000";
layers = (
{
hints = (
{
horizontal = 1;
origin = "{0, 140}";
target = "{0, 131}";
type = Stem;
},
{
horizontal = 1;
origin = "{0, 134}";
target = down;
type = TopGhost;
},
{
horizontal = 1;
origin = "{0, 119}";
target = "{0, 14}";
type = Stem;
},
{
horizontal = 1;
origin = "{0, 57}";
target = up;
type = BottomGhost;
},
{
horizontal = 1;
origin = "{0, 103}";
target = "{0, 131}";
type = Stem;
},
{
horizontal = 1;
origin = "{0, 78}";
target = "{0, 60}";
type = Stem;
},
{
horizontal = 1;
origin = "{0, 104}";
target = up;
type = BottomGhost;
},
{
origin = "{0, 88}";
target = "{0, 20}";
type = Stem;
},
{
origin = "{0, 125}";
target = "{0, 8}";
type = Stem;
},
{
origin = "{0, 54}";
target = "{0, 30}";
type = Stem;
},
{
origin = "{0, 88}";
target = "{0, 110}";
type = Stem;
}
);
layerId = master01;
paths = (
{
closed = 1;
nodes = (
"747 -155 OFFCURVE",
"760 -152 OFFCURVE",
"776 -146 CURVE SMOOTH",
"838 -118 OFFCURVE",
"881 -50 OFFCURVE",
"911 8 CURVE SMOOTH",
"933 52 OFFCURVE",
"948 94 OFFCURVE",
"948 150 CURVE SMOOTH",
"948 233 OFFCURVE",
"916 294 OFFCURVE",
"878 346 CURVE SMOOTH",
"819 425 OFFCURVE",
"723 488 OFFCURVE",
"592 488 CURVE SMOOTH",
"507 488 OFFCURVE",
"429 468 OFFCURVE",
"373 432 CURVE SMOOTH",
"320 398 OFFCURVE",
"280 350 OFFCURVE",
"227 316 CURVE",
"227 433 LINE SMOOTH",
"227 516 OFFCURVE",
"226 590 OFFCURVE",
"221 667 CURVE SMOOTH",
"219 697 OFFCURVE",
"218 729 OFFCURVE",
"212 758 CURVE SMOOTH",
"208 770 OFFCURVE",
"206 780 OFFCURVE",
"206 790 CURVE SMOOTH",
"206 795 OFFCURVE",
"207 800 OFFCURVE",
"208 806 CURVE SMOOTH",
"213 826 OFFCURVE",
"223 845 OFFCURVE",
"236 859 CURVE SMOOTH",
"244 869 OFFCURVE",
"251 877 OFFCURVE",
"251 882 CURVE SMOOTH",
"251 886 OFFCURVE",
"249 888 OFFCURVE",
"244 888 CURVE SMOOTH",
"239 888 OFFCURVE",
"233 886 OFFCURVE",
"222 880 CURVE SMOOTH",
"205 870 OFFCURVE",
"191 857 OFFCURVE",
"180 841 CURVE SMOOTH",
"170 830 OFFCURVE",
"170 814 OFFCURVE",
"152 814 CURVE SMOOTH",
"129 814 OFFCURVE",
"112 802 OFFCURVE",
"112 779 CURVE SMOOTH",
"112 762 OFFCURVE",
"102 758 OFFCURVE",
"86 758 CURVE SMOOTH",
"57 758 OFFCURVE",
"32 790 OFFCURVE",
"0 790 CURVE SMOOTH",
"-28 790 OFFCURVE",
"-49 780 OFFCURVE",
"-72 773 CURVE SMOOTH",
"-93 766 OFFCURVE",
"-113 758 OFFCURVE",
"-131 748 CURVE SMOOTH",
"-144 741 OFFCURVE",
"-150 732 OFFCURVE",
"-150 727 CURVE SMOOTH",
"-150 723 OFFCURVE",
"-148 721 OFFCURVE",
"-142 721 CURVE SMOOTH",
"-137 721 OFFCURVE",
"-131 722 OFFCURVE",
"-124 726 CURVE SMOOTH",
"-101 736 OFFCURVE",
"-76 745 OFFCURVE",
"-48 745 CURVE SMOOTH",
"-28 745 OFFCURVE",
"-14 739 OFFCURVE",
"2 731 CURVE SMOOTH",
"58 700 OFFCURVE",
"108 660 OFFCURVE",
"142 608 CURVE",
"144 566 OFFCURVE",
"144 524 OFFCURVE",
"144 482 CURVE SMOOTH",
"144 307 LINE SMOOTH",
"144 197 OFFCURVE",
"146 85 OFFCURVE",
"146 -23 CURVE SMOOTH",
"146 -48 OFFCURVE",
"146 -68 OFFCURVE",
"139 -90 CURVE SMOOTH",
"137 -96 OFFCURVE",
"137 -101 OFFCURVE",
"137 -106 CURVE SMOOTH",
"137 -132 OFFCURVE",
"161 -148 OFFCURVE",
"192 -148 CURVE SMOOTH",
"228 -148 OFFCURVE",
"261 -132 OFFCURVE",
"289 -118 CURVE",
"292 -103 LINE",
"256 -92 OFFCURVE",
"230 -90 OFFCURVE",
"226 -47 CURVE SMOOTH",
"222 -7 OFFCURVE",
"221 33 OFFCURVE",
"221 74 CURVE SMOOTH",
"221 106 OFFCURVE",
"221 139 OFFCURVE",
"222 170 CURVE",
"246 220 OFFCURVE",
"265 273 OFFCURVE",
"299 316 CURVE SMOOTH",
"348 380 OFFCURVE",
"437 422 OFFCURVE",
"544 422 CURVE SMOOTH",
"616 422 OFFCURVE",
"670 401 OFFCURVE",
"722 366 CURVE SMOOTH",
"807 310 OFFCURVE",
"881 221 OFFCURVE",
"881 89 CURVE SMOOTH",
"881 15 OFFCURVE",
"855 -66 OFFCURVE",
"799 -95 CURVE SMOOTH",
"793 -99 OFFCURVE",
"786 -98 OFFCURVE",
"781 -98 CURVE SMOOTH",
"746 -98 OFFCURVE",
"738 -50 OFFCURVE",
"703 -50 CURVE SMOOTH",
"679 -50 OFFCURVE",
"638 -76 OFFCURVE",
"638 -102 CURVE SMOOTH",
"638 -134 OFFCURVE",
"699 -155 OFFCURVE",
"730 -155 CURVE SMOOTH"
);
}
);
width = 993;
}
);
unicode = 0048;
},
{
glyphname = I;
lastChange = "2020-03-06 23:12:06 +0000";
layers = (
{
hints = (
{
horizontal = 1;
origin = "{0, 90}";
target = up;
type = BottomGhost;
},
{
horizontal = 1;
origin = "{0, 47}";
target = up;
type = BottomGhost;
},
{
horizontal = 1;
origin = "{0, 53}";
target = down;
type = TopGhost;
},
{
horizontal = 1;
origin = "{0, 38}";
target = down;
type = TopGhost;
},
{
horizontal = 1;
origin = "{0, 53}";
target = "{0, 57}";
type = Stem;
},
{
origin = "{0, 69}";
target = "{0, 26}";
type = Stem;
}
);
layerId = master01;
paths = (
{
closed = 1;
nodes = (
"2 -396 OFFCURVE",
"19 -369 OFFCURVE",
"29 -347 CURVE SMOOTH",
"46 -306 OFFCURVE",
"77 -278 OFFCURVE",
"101 -244 CURVE SMOOTH",
"138 -192 OFFCURVE",
"186 -126 OFFCURVE",
"268 -126 CURVE SMOOTH",
"273 -126 OFFCURVE",
"281 -127 OFFCURVE",
"286 -127 CURVE SMOOTH",
"300 -127 OFFCURVE",
"302 -122 OFFCURVE",
"302 -116 CURVE SMOOTH",
"302 -111 OFFCURVE",
"297 -106 OFFCURVE",
"287 -102 CURVE SMOOTH",
"247 -85 OFFCURVE",
"216 -46 OFFCURVE",
"216 8 CURVE SMOOTH",
"216 66 OFFCURVE",
"226 126 OFFCURVE",
"226 191 CURVE SMOOTH",
"226 249 OFFCURVE",
"221 312 OFFCURVE",
"221 395 CURVE SMOOTH",
"221 460 OFFCURVE",
"212 523 OFFCURVE",
"212 588 CURVE SMOOTH",
"212 640 OFFCURVE",
"222 682 OFFCURVE",
"234 725 CURVE SMOOTH",
"236 732 OFFCURVE",
"236 738 OFFCURVE",
"236 742 CURVE SMOOTH",
"236 748 OFFCURVE",
"234 749 OFFCURVE",
"230 749 CURVE SMOOTH",
"225 749 OFFCURVE",
"219 743 OFFCURVE",
"212 736 CURVE SMOOTH",
"199 722 OFFCURVE",
"187 708 OFFCURVE",
"172 694 CURVE SMOOTH",
"159 681 OFFCURVE",
"138 664 OFFCURVE",
"114 664 CURVE SMOOTH",
"98 664 OFFCURVE",
"86 670 OFFCURVE",
"72 680 CURVE SMOOTH",
"60 688 OFFCURVE",
"46 695 OFFCURVE",
"29 695 CURVE SMOOTH",
"4 695 OFFCURVE",
"-20 682 OFFCURVE",
"-36 665 CURVE",
"-29 638 LINE",
"27 638 OFFCURVE",
"65 614 OFFCURVE",
"95 586 CURVE SMOOTH",
"125 558 OFFCURVE",
"144 527 OFFCURVE",
"144 473 CURVE SMOOTH",
"144 443 OFFCURVE",
"142 414 OFFCURVE",
"142 384 CURVE SMOOTH",
"142 341 OFFCURVE",
"144 299 OFFCURVE",
"144 257 CURVE SMOOTH",
"144 211 OFFCURVE",
"149 191 OFFCURVE",
"149 163 CURVE SMOOTH",
"149 113 OFFCURVE",
"145 65 OFFCURVE",
"145 17 CURVE SMOOTH",
"145 -14 OFFCURVE",
"149 -43 OFFCURVE",
"149 -74 CURVE SMOOTH",
"149 -118 OFFCURVE",
"134 -152 OFFCURVE",
"116 -181 CURVE SMOOTH",
"84 -231 OFFCURVE",
"43 -279 OFFCURVE",
"1 -322 CURVE SMOOTH",
"-4 -327 OFFCURVE",
"-46 -368 OFFCURVE",
"-46 -385 CURVE SMOOTH",
"-46 -392 OFFCURVE",
"-39 -396 OFFCURVE",
"-28 -396 CURVE SMOOTH"
);
}
);
width = 308;
}
);
unicode = 0049;
},
{
glyphname = J;
lastChange = "2020-03-06 23:12:14 +0000";
layers = (
{
hints = (
{
horizontal = 1;
origin = "{0, 44}";
target = up;
type = BottomGhost;
},
{
horizontal = 1;
origin = "{0, 50}";
target = down;
type = TopGhost;
},
{
horizontal = 1;
origin = "{0, 35}";
target = down;
type = TopGhost;
},
{
origin = "{0, 74}";
target = "{0, 20}";
type = Stem;
},
{
origin = "{0, 74}";
target = "{0, 23}";
type = Stem;
}
);
layerId = master01;
paths = (
{
closed = 1;
nodes = (
"2 -613 OFFCURVE",
"18 -585 OFFCURVE",
"28 -563 CURVE SMOOTH",
"45 -522 OFFCURVE",
"77 -495 OFFCURVE",
"101 -460 CURVE SMOOTH",
"138 -408 OFFCURVE",
"184 -343 OFFCURVE",
"266 -343 CURVE SMOOTH",
"288 -343 OFFCURVE",
"299 -340 OFFCURVE",
"299 -335 CURVE SMOOTH",
"299 -329 OFFCURVE",
"290 -320 OFFCURVE",
"274 -312 CURVE SMOOTH",
"240 -293 OFFCURVE",
"216 -256 OFFCURVE",
"216 -209 CURVE SMOOTH",
"216 -151 OFFCURVE",
"227 44 OFFCURVE",
"227 109 CURVE SMOOTH",
"227 223 OFFCURVE",
"221 247 OFFCURVE",
"221 409 CURVE SMOOTH",
"221 474 OFFCURVE",
"212 537 OFFCURVE",
"212 602 CURVE SMOOTH",
"212 649 OFFCURVE",
"222 688 OFFCURVE",
"233 726 CURVE SMOOTH",
"235 736 OFFCURVE",
"236 744 OFFCURVE",
"236 750 CURVE SMOOTH",
"236 758 OFFCURVE",
"234 762 OFFCURVE",
"230 762 CURVE SMOOTH",
"225 762 OFFCURVE",
"219 756 OFFCURVE",
"209 745 CURVE SMOOTH",
"197 732 OFFCURVE",
"186 719 OFFCURVE",
"172 708 CURVE SMOOTH",
"158 696 OFFCURVE",
"136 678 OFFCURVE",
"114 678 CURVE SMOOTH",
"98 678 OFFCURVE",
"85 685 OFFCURVE",
"72 695 CURVE SMOOTH",
"59 705 OFFCURVE",
"46 709 OFFCURVE",
"29 709 CURVE SMOOTH",
"15 709 OFFCURVE",
"0 705 OFFCURVE",
"-12 698 CURVE SMOOTH",
"-24 691 OFFCURVE",
"-34 680 OFFCURVE",
"-34 670 CURVE SMOOTH",
"-34 662 OFFCURVE",
"-26 654 OFFCURVE",
"-7 652 CURVE SMOOTH",
"37 646 OFFCURVE",
"69 624 OFFCURVE",
"95 600 CURVE SMOOTH",
"125 572 OFFCURVE",
"144 540 OFFCURVE",
"144 486 CURVE SMOOTH",
"144 456 OFFCURVE",
"142 428 OFFCURVE",
"142 398 CURVE SMOOTH",
"142 355 OFFCURVE",
"144 313 OFFCURVE",
"144 271 CURVE SMOOTH",
"144 201 OFFCURVE",
"150 156 OFFCURVE",
"150 82 CURVE SMOOTH",
"150 32 OFFCURVE",
"144 -152 OFFCURVE",
"144 -200 CURVE SMOOTH",
"144 -231 OFFCURVE",
"149 -259 OFFCURVE",
"149 -290 CURVE SMOOTH",
"149 -334 OFFCURVE",
"133 -368 OFFCURVE",
"115 -397 CURVE SMOOTH",
"83 -447 OFFCURVE",
"42 -496 OFFCURVE",
"0 -539 CURVE SMOOTH",
"-5 -544 OFFCURVE",
"-47 -585 OFFCURVE",
"-47 -601 CURVE SMOOTH",
"-47 -608 OFFCURVE",
"-39 -613 OFFCURVE",
"-28 -613 CURVE SMOOTH"
);
}
);
width = 295;
}
);
unicode = 004A;
},
{
glyphname = K;
lastChange = "2020-03-06 23:12:19 +0000";
layers = (
{
hints = (
{
horizontal = 1;
origin = "{0, 38}";
target = "{0, 47}";
type = Stem;
},
{
horizontal = 1;
origin = "{0, 134}";
target = up;
type = BottomGhost;
},
{
horizontal = 1;
origin = "{0, 86}";
target = down;
type = TopGhost;
},
{
horizontal = 1;
origin = "{0, 74}";
target = down;
type = TopGhost;
},
{
horizontal = 1;
origin = "{0, 80}";
target = up;
type = BottomGhost;
},
{
horizontal = 1;
origin = "{0, 140}";
target = down;
type = TopGhost;
},
{
horizontal = 1;
origin = "{0, 144}";
target = "{0, 140}";
type = Stem;
},
{
origin = "{0, 165}";
target = "{0, 23}";
type = Stem;
},
{
origin = "{0, 156}";
target = "{0, 116}";
type = Stem;
}
);
layerId = master01;
paths = (
{
closed = 1;
nodes = (
"2 -328 OFFCURVE",
"19 -300 OFFCURVE",
"29 -278 CURVE SMOOTH",
"46 -237 OFFCURVE",
"77 -209 OFFCURVE",
"101 -175 CURVE SMOOTH",
"138 -123 OFFCURVE",
"186 -58 OFFCURVE",
"268 -58 CURVE SMOOTH",
"273 -58 OFFCURVE",
"281 -59 OFFCURVE",
"286 -59 CURVE SMOOTH",
"300 -59 OFFCURVE",
"302 -54 OFFCURVE",
"302 -48 CURVE SMOOTH",
"302 -43 OFFCURVE",
"297 -38 OFFCURVE",
"287 -34 CURVE SMOOTH",
"247 -17 OFFCURVE",
"216 23 OFFCURVE",
"216 77 CURVE SMOOTH",
"216 135 OFFCURVE",
"226 194 OFFCURVE",
"226 259 CURVE SMOOTH",
"226 287 OFFCURVE",
"225 316 OFFCURVE",
"223 348 CURVE",
"273 290 OFFCURVE",
"311 231 OFFCURVE",
"365 154 CURVE SMOOTH",
"413 87 OFFCURVE",
"457 31 OFFCURVE",
"486 -19 CURVE SMOOTH",
"493 -32 OFFCURVE",
"499 -40 OFFCURVE",
"518 -41 CURVE SMOOTH",
"559 -43 OFFCURVE",
"600 -52 OFFCURVE",
"644 -52 CURVE SMOOTH",
"658 -52 OFFCURVE",
"674 -50 OFFCURVE",
"688 -49 CURVE SMOOTH",
"704 -47 OFFCURVE",
"715 -41 OFFCURVE",
"715 -35 CURVE SMOOTH",
"715 -31 OFFCURVE",
"710 -28 OFFCURVE",
"694 -28 CURVE SMOOTH",
"634 -28 OFFCURVE",
"597 4 OFFCURVE",
"563 38 CURVE SMOOTH",
"504 96 OFFCURVE",
"462 141 OFFCURVE",
"418 200 CURVE SMOOTH",
"384 242 OFFCURVE",
"356 286 OFFCURVE",
"320 322 CURVE SMOOTH",
"316 326 OFFCURVE",
"316 330 OFFCURVE",
"316 330 CURVE",
"345 397 OFFCURVE",
"376 448 OFFCURVE",
"416 522 CURVE SMOOTH",
"451 587 OFFCURVE",
"480 645 OFFCURVE",
"508 689 CURVE SMOOTH",
"531 726 OFFCURVE",
"563 757 OFFCURVE",
"617 761 CURVE SMOOTH",
"630 762 OFFCURVE",
"636 765 OFFCURVE",
"636 769 CURVE SMOOTH",
"636 773 OFFCURVE",
"629 778 OFFCURVE",
"618 778 CURVE SMOOTH",
"607 778 OFFCURVE",
"594 777 OFFCURVE",
"583 776 CURVE SMOOTH",
"537 774 OFFCURVE",
"545 775 OFFCURVE",
"498 775 CURVE SMOOTH",
"462 775 OFFCURVE",
"419 777 OFFCURVE",
"384 781 CURVE SMOOTH",
"378 782 OFFCURVE",
"371 784 OFFCURVE",
"367 784 CURVE SMOOTH",
"357 784 OFFCURVE",
"354 783 OFFCURVE",
"354 779 CURVE SMOOTH",
"354 775 OFFCURVE",
"360 769 OFFCURVE",
"376 763 CURVE SMOOTH",
"413 749 OFFCURVE",
"431 730 OFFCURVE",
"431 676 CURVE SMOOTH",
"431 656 OFFCURVE",
"423 620 OFFCURVE",
"413 602 CURVE SMOOTH",
"395 566 OFFCURVE",
"374 524 OFFCURVE",
"349 475 CURVE SMOOTH",
"327 431 OFFCURVE",
"308 401 OFFCURVE",
"290 364 CURVE SMOOTH",
"289 362 OFFCURVE",
"287 361 OFFCURVE",
"286 361 CURVE SMOOTH",
"282 361 OFFCURVE",
"278 365 OFFCURVE",
"277 366 CURVE SMOOTH",
"255 388 OFFCURVE",
"231 430 OFFCURVE",
"221 458 CURVE",
"221 525 OFFCURVE",
"212 589 OFFCURVE",
"212 656 CURVE SMOOTH",
"212 709 OFFCURVE",
"222 750 OFFCURVE",
"234 793 CURVE SMOOTH",
"236 800 OFFCURVE",
"236 806 OFFCURVE",
"236 810 CURVE SMOOTH",
"236 816 OFFCURVE",
"234 817 OFFCURVE",
"230 817 CURVE SMOOTH",
"225 817 OFFCURVE",
"219 811 OFFCURVE",
"212 804 CURVE SMOOTH",
"199 790 OFFCURVE",
"186 775 OFFCURVE",
"172 762 CURVE SMOOTH",
"159 749 OFFCURVE",
"138 732 OFFCURVE",
"114 732 CURVE SMOOTH",
"98 732 OFFCURVE",
"86 739 OFFCURVE",
"72 749 CURVE SMOOTH",
"60 757 OFFCURVE",
"46 763 OFFCURVE",
"29 763 CURVE SMOOTH",
"4 763 OFFCURVE",
"-20 750 OFFCURVE",
"-36 733 CURVE",
"-29 707 LINE",
"27 707 OFFCURVE",
"65 682 OFFCURVE",
"95 654 CURVE SMOOTH",
"125 626 OFFCURVE",
"144 595 OFFCURVE",
"144 541 CURVE SMOOTH",
"144 511 OFFCURVE",
"142 482 OFFCURVE",
"142 452 CURVE SMOOTH",
"142 409 OFFCURVE",
"144 367 OFFCURVE",
"144 325 CURVE SMOOTH",
"144 279 OFFCURVE",
"149 260 OFFCURVE",
"149 232 CURVE SMOOTH",
"149 182 OFFCURVE",
"145 133 OFFCURVE",
"145 85 CURVE SMOOTH",
"145 54 OFFCURVE",
"149 25 OFFCURVE",
"149 -6 CURVE SMOOTH",
"149 -50 OFFCURVE",
"134 -84 OFFCURVE",
"116 -113 CURVE SMOOTH",
"84 -163 OFFCURVE",
"43 -210 OFFCURVE",
"1 -253 CURVE SMOOTH",
"-4 -258 OFFCURVE",
"-46 -300 OFFCURVE",
"-46 -317 CURVE SMOOTH",
"-46 -324 OFFCURVE",
"-39 -328 OFFCURVE",
"-28 -328 CURVE SMOOTH"
);
}
);
width = 661;
}
);
unicode = 004B;
},
{
glyphname = L;
lastChange = "2020-03-06 23:12:25 +0000";
layers = (
{
hints = (
{
horizontal = 1;
origin = "{0, 119}";
target = "{0, 26}";
type = Stem;
},
{
horizontal = 1;
origin = "{0, 83}";
target = "{0, 56}";
type = Stem;
},
{
horizontal = 1;
origin = "{0, 47}";
target = down;
type = TopGhost;
},
{
horizontal = 1;
origin = "{0, 119}";
target = "{0, 23}";
type = Stem;
},
{
horizontal = 1;
origin = "{0, 14}";
target = down;
type = TopGhost;
},
{
horizontal = 1;
origin = "{0, 119}";
target = "{0, 20}";
type = Stem;
},
{
origin = "{0, 95}";
target = "{0, 35}";
type = Stem;
},
{
origin = "{0, 62}";
target = "{0, 59}";
type = Stem;
}
);
layerId = master01;
paths = (
{
closed = 1;
nodes = (
"463 -203 OFFCURVE",
"466 -197 OFFCURVE",
"467 -180 CURVE SMOOTH",
"468 -164 OFFCURVE",
"469 -151 OFFCURVE",
"473 -138 CURVE SMOOTH",
"477 -125 OFFCURVE",
"485 -111 OFFCURVE",
"493 -104 CURVE SMOOTH",
"500 -97 OFFCURVE",
"510 -87 OFFCURVE",
"510 -80 CURVE SMOOTH",
"510 -74 OFFCURVE",
"505 -71 OFFCURVE",
"486 -71 CURVE SMOOTH",
"438 -71 OFFCURVE",
"423 -107 OFFCURVE",
"377 -107 CURVE SMOOTH",
"363 -107 OFFCURVE",
"348 -104 OFFCURVE",
"332 -104 CURVE SMOOTH",
"314 -104 OFFCURVE",
"296 -106 OFFCURVE",
"278 -106 CURVE SMOOTH",
"250 -106 OFFCURVE",
"224 -101 OFFCURVE",
"196 -101 CURVE SMOOTH",
"156 -101 OFFCURVE",
"151 -59 OFFCURVE",
"151 -17 CURVE SMOOTH",
"151 0 OFFCURVE",
"152 17 OFFCURVE",
"152 31 CURVE SMOOTH",
"152 153 OFFCURVE",
"162 274 OFFCURVE",
"162 400 CURVE SMOOTH",
"162 497 OFFCURVE",
"156 572 OFFCURVE",
"156 667 CURVE SMOOTH",
"156 716 OFFCURVE",
"182 741 OFFCURVE",
"208 763 CURVE SMOOTH",
"216 770 OFFCURVE",
"226 780 OFFCURVE",
"226 787 CURVE SMOOTH",
"226 793 OFFCURVE",
"224 797 OFFCURVE",
"220 797 CURVE SMOOTH",
"216 797 OFFCURVE",
"209 794 OFFCURVE",
"203 788 CURVE SMOOTH",
"184 771 OFFCURVE",
"168 760 OFFCURVE",
"148 750 CURVE SMOOTH",
"129 740 OFFCURVE",
"104 734 OFFCURVE",
"65 734 CURVE SMOOTH",
"10 734 OFFCURVE",
"-67 744 OFFCURVE",
"-96 761 CURVE",
"-102 757 OFFCURVE",
"-107 751 OFFCURVE",
"-107 743 CURVE SMOOTH",
"-107 731 OFFCURVE",
"-96 720 OFFCURVE",
"-91 712 CURVE SMOOTH",
"-81 695 OFFCURVE",
"-78 669 OFFCURVE",
"-78 644 CURVE SMOOTH",
"-78 621 OFFCURVE",
"-76 612 OFFCURVE",
"-70 612 CURVE SMOOTH",
"-66 612 OFFCURVE",
"-59 618 OFFCURVE",
"-52 631 CURVE SMOOTH",
"-44 645 OFFCURVE",
"-36 660 OFFCURVE",
"-25 670 CURVE SMOOTH",
"-15 678 OFFCURVE",
"-3 686 OFFCURVE",
"10 688 CURVE SMOOTH",
"21 690 OFFCURVE",
"34 691 OFFCURVE",
"46 691 CURVE SMOOTH",
"71 691 OFFCURVE",
"71 659 OFFCURVE",
"71 631 CURVE SMOOTH",
"71 608 OFFCURVE",
"70 585 OFFCURVE",
"70 562 CURVE SMOOTH",
"70 514 OFFCURVE",
"74 472 OFFCURVE",
"74 424 CURVE SMOOTH",
"74 376 OFFCURVE",
"71 328 OFFCURVE",
"71 280 CURVE SMOOTH",
"71 214 OFFCURVE",
"77 150 OFFCURVE",
"77 85 CURVE SMOOTH",
"77 49 OFFCURVE",
"77 13 OFFCURVE",
"76 -23 CURVE SMOOTH",
"74 -68 OFFCURVE",
"56 -97 OFFCURVE",
"37 -125 CURVE SMOOTH",
"27 -138 OFFCURVE",
"23 -149 OFFCURVE",
"23 -156 CURVE SMOOTH",
"23 -163 OFFCURVE",
"26 -168 OFFCURVE",
"34 -168 CURVE SMOOTH",
"40 -168 OFFCURVE",
"48 -164 OFFCURVE",
"60 -158 CURVE SMOOTH",
"74 -150 OFFCURVE",
"91 -144 OFFCURVE",
"109 -140 CURVE SMOOTH",
"140 -133 OFFCURVE",
"126 -132 OFFCURVE",
"166 -132 CURVE SMOOTH",
"237 -132 OFFCURVE",
"309 -134 OFFCURVE",
"359 -154 CURVE SMOOTH",
"381 -162 OFFCURVE",
"406 -170 OFFCURVE",
"426 -182 CURVE SMOOTH",
"436 -188 OFFCURVE",
"449 -203 OFFCURVE",
"457 -203 CURVE SMOOTH"
);
}
);
width = 377;
}
);
unicode = 004C;
},
{
glyphname = Lslash;
lastChange = "2020-03-06 23:12:29 +0000";
layers = (
{
hints = (
{
horizontal = 1;
place = "{-1, 26}";
type = Stem;
},
{
horizontal = 1;
origin = "{0, 43}";
target = down;
type = TopGhost;
},
{
horizontal = 1;
origin = "{0, 42}";
target = down;
type = TopGhost;
},
{
origin = "{0, 55}";
target = "{0, 16}";
type = Stem;
},
{
origin = "{0, 55}";
target = "{0, 36}";
type = Stem;
}
);
layerId = master01;
paths = (
{
closed = 1;
nodes = (
"461 155 LINE",
"450 131 OFFCURVE",
"437 99 OFFCURVE",
"431 89 CURVE SMOOTH",
"384 28 OFFCURVE",
"285 25 OFFCURVE",
"203 25 CURVE SMOOTH",
"173 25 LINE SMOOTH",
"167 25 OFFCURVE",
"158 27 OFFCURVE",
"156 32 CURVE SMOOTH",
"149 45 OFFCURVE",
"144 78 OFFCURVE",
"144 92 CURVE SMOOTH",
"144 135 OFFCURVE",
"142 179 OFFCURVE",
"142 222 CURVE SMOOTH",
"142 269 OFFCURVE",
"143 317 OFFCURVE",
"144 364 CURVE",
"242 420 LINE SMOOTH",
"297 452 OFFCURVE",
"333 471 OFFCURVE",
"379 472 CURVE",
"368 491 OFFCURVE",
"357 516 OFFCURVE",
"346 539 CURVE",
"320 504 OFFCURVE",
"280 478 OFFCURVE",
"234 452 CURVE SMOOTH",
"145 402 LINE",
"145 418 OFFCURVE",
"145 433 OFFCURVE",
"145 449 CURVE SMOOTH",
"145 510 OFFCURVE",
"143 572 OFFCURVE",
"143 634 CURVE SMOOTH",
"143 657 OFFCURVE",
"143 677 OFFCURVE",
"144 701 CURVE SMOOTH",
"144 730 OFFCURVE",
"144 757 OFFCURVE",
"162 775 CURVE",
"42 781 LINE",
"59 643 OFFCURVE",
"67 500 OFFCURVE",
"67 356 CURVE",
"25 332 OFFCURVE",
"-14 315 OFFCURVE",
"-55 308 CURVE",
"-41 288 OFFCURVE",
"-25 264 OFFCURVE",
"-14 245 CURVE",
"9 276 OFFCURVE",
"31 296 OFFCURVE",
"67 319 CURVE",
"66 218 OFFCURVE",
"63 118 OFFCURVE",
"53 18 CURVE SMOOTH",
"52 8 OFFCURVE",
"45 4 OFFCURVE",
"40 0 CURVE",
"182 -1 OFFCURVE",
"324 -1 OFFCURVE",
"466 -2 CURVE"
);
}
);
width = 505;
}
);
unicode = 0141;
},
{
glyphname = M;
lastChange = "2020-03-06 23:12:33 +0000";
layers = (
{
hints = (
{
horizontal = 1;
origin = "{0, 20}";
target = "{0, 53}";
type = Stem;
},
{
horizontal = 1;
origin = "{0, 26}";
target = "{0, 95}";
type = Stem;
},
{
horizontal = 1;
origin = "{0, 38}";
target = up;
type = BottomGhost;
},
{
horizontal = 1;
origin = "{0, 32}";
target = down;
type = TopGhost;
},
{
horizontal = 1;
origin = "{0, 41}";
target = "{0, 56}";
type = Stem;
},
{
origin = "{0, 62}";
target = "{0, 89}";
type = Stem;
},
{
origin = "{0, 101}";
target = "{0, 128}";
type = Stem;
},
{
origin = "{0, 140}";
target = "{0, 14}";
type = Stem;
},
{
origin = "{0, 140}";
target = "{0, 17}";
type = Stem;
},
{
origin = "{0, 110}";
target = "{0, 125}";
type = Stem;
}
);
layerId = master01;
paths = (
{
closed = 1;
nodes = (
"1057 -23 OFFCURVE",
"1083 -8 OFFCURVE",
"1097 -8 CURVE SMOOTH",
"1104 -8 OFFCURVE",
"1111 -10 OFFCURVE",
"1118 -10 CURVE SMOOTH",
"1144 -10 OFFCURVE",
"1178 0 OFFCURVE",
"1178 26 CURVE SMOOTH",
"1178 42 OFFCURVE",
"1157 48 OFFCURVE",
"1146 58 CURVE SMOOTH",
"1136 68 OFFCURVE",
"1133 80 OFFCURVE",
"1133 96 CURVE SMOOTH",
"1133 161 OFFCURVE",
"1153 220 OFFCURVE",
"1153 288 CURVE SMOOTH",
"1153 500 OFFCURVE",
"1084 670 OFFCURVE",
"870 670 CURVE SMOOTH",
"784 670 OFFCURVE",
"712 647 OFFCURVE",
"658 610 CURVE",
"624 652 OFFCURVE",
"570 684 OFFCURVE",
"500 684 CURVE SMOOTH",
"414 684 OFFCURVE",
"349 646 OFFCURVE",
"296 606 CURVE",
"295 641 OFFCURVE",
"291 691 OFFCURVE",
"256 691 CURVE SMOOTH",
"245 691 OFFCURVE",
"235 685 OFFCURVE",
"228 674 CURVE",
"214 667 OFFCURVE",
"194 660 OFFCURVE",
"176 660 CURVE SMOOTH",
"147 660 OFFCURVE",
"128 676 OFFCURVE",
"94 676 CURVE SMOOTH",
"59 676 OFFCURVE",
"31 663 OFFCURVE",
"5 649 CURVE SMOOTH",
"-6 642 OFFCURVE",
"-11 637 OFFCURVE",
"-11 632 CURVE SMOOTH",
"-11 627 OFFCURVE",
"-6 622 OFFCURVE",
"4 622 CURVE SMOOTH",
"8 622 OFFCURVE",
"12 622 OFFCURVE",
"19 624 CURVE SMOOTH",
"29 628 OFFCURVE",
"38 630 OFFCURVE",
"49 630 CURVE SMOOTH",
"127 630 OFFCURVE",
"168 555 OFFCURVE",
"209 514 CURVE",
"208 446 OFFCURVE",
"202 377 OFFCURVE",
"202 310 CURVE SMOOTH",
"202 286 OFFCURVE",
"203 264 OFFCURVE",
"203 239 CURVE SMOOTH",
"203 209 OFFCURVE",
"198 176 OFFCURVE",
"198 146 CURVE SMOOTH",
"198 128 OFFCURVE",
"204 108 OFFCURVE",
"204 90 CURVE SMOOTH",
"204 79 OFFCURVE",
"202 70 OFFCURVE",
"197 60 CURVE SMOOTH",
"186 44 OFFCURVE",
"151 34 OFFCURVE",
"151 11 CURVE SMOOTH",
"151 -8 OFFCURVE",
"171 -18 OFFCURVE",
"185 -18 CURVE SMOOTH",
"211 -18 OFFCURVE",
"246 1 OFFCURVE",
"262 11 CURVE SMOOTH",
"281 24 OFFCURVE",
"287 46 OFFCURVE",
"287 71 CURVE SMOOTH",
"287 97 OFFCURVE",
"282 126 OFFCURVE",
"282 154 CURVE SMOOTH",
"282 296 OFFCURVE",
"296 428 OFFCURVE",
"296 571 CURVE",
"326 606 OFFCURVE",
"369 635 OFFCURVE",
"431 635 CURVE SMOOTH",
"454 635 OFFCURVE",
"478 631 OFFCURVE",
"497 624 CURVE SMOOTH",
"601 587 OFFCURVE",
"634 494 OFFCURVE",
"634 354 CURVE SMOOTH",
"634 268 OFFCURVE",
"628 186 OFFCURVE",
"612 110 CURVE SMOOTH",
"608 92 OFFCURVE",
"606 69 OFFCURVE",
"595 55 CURVE SMOOTH",
"587 42 OFFCURVE",
"566 35 OFFCURVE",
"566 17 CURVE SMOOTH",
"566 7 OFFCURVE",
"573 5 OFFCURVE",
"584 5 CURVE SMOOTH",
"598 5 OFFCURVE",
"618 11 OFFCURVE",
"626 11 CURVE SMOOTH",
"652 11 OFFCURVE",
"671 0 OFFCURVE",
"695 0 CURVE SMOOTH",
"707 0 OFFCURVE",
"728 8 OFFCURVE",
"728 22 CURVE SMOOTH",
"728 57 OFFCURVE",
"691 49 OFFCURVE",
"691 89 CURVE SMOOTH",
"691 184 OFFCURVE",
"722 266 OFFCURVE",
"722 362 CURVE SMOOTH",
"722 441 OFFCURVE",
"708 520 OFFCURVE",
"678 576 CURVE",
"718 605 OFFCURVE",
"761 624 OFFCURVE",
"822 624 CURVE SMOOTH",
"838 624 OFFCURVE",
"855 622 OFFCURVE",
"871 618 CURVE SMOOTH",
"1022 582 OFFCURVE",
"1067 414 OFFCURVE",
"1067 227 CURVE SMOOTH",
"1067 190 OFFCURVE",
"1063 152 OFFCURVE",
"1061 116 CURVE SMOOTH",
"1057 64 OFFCURVE",
"1022 45 OFFCURVE",
"1022 -4 CURVE SMOOTH",
"1022 -18 OFFCURVE",
"1029 -23 OFFCURVE",
"1040 -23 CURVE SMOOTH"
);
}
);
width = 1201;
}
);
unicode = 004D;
},
{
glyphname = N;
lastChange = "2020-03-06 23:12:44 +0000";
layers = (
{
hints = (
{
horizontal = 1;
origin = "{0, 23}";
target = "{0, 78}";
type = Stem;
},
{
horizontal = 1;
origin = "{0, 108}";
target = "{0, 99}";
type = Stem;
},
{
origin = "{0, 124}";
target = "{0, 14}";
type = Stem;
},
{
origin = "{0, 69}";
target = "{0, 41}";
type = Stem;
},
{
place = "{116, 94}";
type = Stem;
},
{
origin = "{0, 72}";
target = "{0, 41}";
type = Stem;
},
{
origin = "{0, 96}";
target = "{0, 90}";
type = Stem;
},
{
origin = "{0, 121}";
target = "{0, 14}";
type = Stem;
}
);
layerId = master01;
paths = (
{
closed = 1;
nodes = (
"170 -330 OFFCURVE",
"223 -324 OFFCURVE",
"223 -300 CURVE SMOOTH",
"223 -290 OFFCURVE",
"217 -279 OFFCURVE",
"212 -271 CURVE SMOOTH",
"202 -255 OFFCURVE",
"196 -241 OFFCURVE",
"196 -218 CURVE SMOOTH",
"196 -201 OFFCURVE",
"198 -183 OFFCURVE",
"198 -166 CURVE SMOOTH",
"198 -122 OFFCURVE",
"194 -78 OFFCURVE",
"194 -34 CURVE SMOOTH",
"194 13 OFFCURVE",
"200 54 OFFCURVE",
"200 101 CURVE",
"276 73 OFFCURVE",
"356 38 OFFCURVE",
"442 24 CURVE SMOOTH",
"486 17 OFFCURVE",
"530 14 OFFCURVE",
"574 14 CURVE SMOOTH",
"616 14 OFFCURVE",
"658 18 OFFCURVE",
"700 22 CURVE",
"700 -30 OFFCURVE",
"742 -31 OFFCURVE",
"792 -31 CURVE SMOOTH",
"818 -31 OFFCURVE",
"854 -28 OFFCURVE",
"854 -4 CURVE SMOOTH",
"854 9 OFFCURVE",
"836 18 OFFCURVE",
"820 22 CURVE SMOOTH",
"777 30 OFFCURVE",
"776 71 OFFCURVE",
"776 121 CURVE SMOOTH",
"776 168 OFFCURVE",
"779 215 OFFCURVE",
"779 263 CURVE SMOOTH",
"779 364 LINE SMOOTH",
"779 399 OFFCURVE",
"780 433 OFFCURVE",
"780 468 CURVE SMOOTH",
"780 514 OFFCURVE",
"777 557 OFFCURVE",
"731 557 CURVE SMOOTH",
"718 557 OFFCURVE",
"703 552 OFFCURVE",
"698 539 CURVE",
"682 537 OFFCURVE",
"667 534 OFFCURVE",
"650 534 CURVE SMOOTH",
"622 534 OFFCURVE",
"595 547 OFFCURVE",
"570 547 CURVE SMOOTH",
"548 547 OFFCURVE",
"539 538 OFFCURVE",
"539 528 CURVE SMOOTH",
"539 518 OFFCURVE",
"549 509 OFFCURVE",
"566 504 CURVE SMOOTH",
"624 487 OFFCURVE",
"663 443 OFFCURVE",
"695 402 CURVE",
"696 374 OFFCURVE",
"697 346 OFFCURVE",
"697 320 CURVE SMOOTH",
"697 258 OFFCURVE",
"692 198 OFFCURVE",
"692 134 CURVE SMOOTH",
"692 104 OFFCURVE",
"698 80 OFFCURVE",
"702 56 CURVE",
"670 52 OFFCURVE",
"637 50 OFFCURVE",
"606 50 CURVE SMOOTH",
"443 50 OFFCURVE",
"304 99 OFFCURVE",
"200 167 CURVE",
"200 210 OFFCURVE",
"207 248 OFFCURVE",
"209 289 CURVE SMOOTH",
"210 317 OFFCURVE",
"210 345 OFFCURVE",
"211 373 CURVE SMOOTH",
"213 417 OFFCURVE",
"217 462 OFFCURVE",
"217 509 CURVE SMOOTH",
"217 549 OFFCURVE",
"205 582 OFFCURVE",
"173 582 CURVE SMOOTH",
"151 582 OFFCURVE",
"132 566 OFFCURVE",
"131 540 CURVE",
"85 540 OFFCURVE",
"45 558 OFFCURVE",
"5 558 CURVE SMOOTH",
"-6 558 OFFCURVE",
"-18 557 OFFCURVE",
"-28 552 CURVE SMOOTH",
"-38 547 OFFCURVE",
"-46 537 OFFCURVE",
"-46 527 CURVE SMOOTH",
"-46 519 OFFCURVE",
"-41 512 OFFCURVE",
"-25 512 CURVE SMOOTH",
"-8 512 OFFCURVE",
"7 504 OFFCURVE",
"19 496 CURVE SMOOTH",
"59 470 OFFCURVE",
"95 432 OFFCURVE",
"126 396 CURVE",
"126 332 OFFCURVE",
"116 271 OFFCURVE",
"116 205 CURVE SMOOTH",
"116 131 LINE SMOOTH",
"116 83 OFFCURVE",
"113 36 OFFCURVE",
"113 -11 CURVE SMOOTH",
"113 -54 OFFCURVE",
"116 -97 OFFCURVE",
"116 -139 CURVE SMOOTH",
"116 -167 OFFCURVE",
"116 -193 OFFCURVE",
"112 -218 CURVE SMOOTH",
"108 -246 OFFCURVE",
"89 -263 OFFCURVE",
"89 -293 CURVE SMOOTH",
"89 -322 OFFCURVE",
"114 -330 OFFCURVE",
"144 -330 CURVE SMOOTH"
);
}
);
width = 866;
}
);
unicode = 004E;
},
{
glyphname = O;
lastChange = "2020-03-06 23:12:50 +0000";
layers = (
{
hints = (
{
horizontal = 1;
origin = "{0, 29}";
target = "{1, 29}";
type = Stem;
},
{
horizontal = 1;
origin = "{0, 11}";
target = "{1, 17}";
type = Stem;
},
{
origin = "{0, 23}";
target = "{1, 8}";
type = Stem;
},
{
origin = "{1, 23}";
target = "{0, 8}";
type = Stem;
}
);
layerId = master01;
paths = (
{
closed = 1;
nodes = (
"341 -41 OFFCURVE",
"357 -39 OFFCURVE",
"370 -34 CURVE SMOOTH",
"396 -26 OFFCURVE",
"419 -16 OFFCURVE",
"445 -6 CURVE SMOOTH",
"594 46 OFFCURVE",
"725 171 OFFCURVE",
"725 356 CURVE SMOOTH",
"725 522 OFFCURVE",
"601 692 OFFCURVE",
"421 692 CURVE SMOOTH",
"357 692 OFFCURVE",
"304 674 OFFCURVE",
"260 648 CURVE SMOOTH",
"237 635 OFFCURVE",
"215 622 OFFCURVE",
"193 608 CURVE SMOOTH",
"157 585 OFFCURVE",
"128 552 OFFCURVE",
"104 518 CURVE SMOOTH",
"72 472 OFFCURVE",
"46 422 OFFCURVE",
"46 348 CURVE SMOOTH",
"46 226 OFFCURVE",
"107 124 OFFCURVE",
"169 53 CURVE SMOOTH",
"205 13 OFFCURVE",
"254 -41 OFFCURVE",
"325 -41 CURVE SMOOTH"
);
},
{
closed = 1;
nodes = (
"378 14 OFFCURVE",
"366 17 OFFCURVE",
"350 25 CURVE SMOOTH",
"286 56 OFFCURVE",
"239 109 OFFCURVE",
"204 169 CURVE SMOOTH",
"167 233 OFFCURVE",
"138 299 OFFCURVE",
"138 389 CURVE SMOOTH",
"138 484 OFFCURVE",
"182 554 OFFCURVE",
"238 598 CURVE SMOOTH",
"249 606 OFFCURVE",
"261 613 OFFCURVE",
"274 620 CURVE SMOOTH",
"303 634 OFFCURVE",
"337 647 OFFCURVE",
"373 647 CURVE SMOOTH",
"422 647 OFFCURVE",
"463 627 OFFCURVE",
"498 598 CURVE SMOOTH",
"571 537 OFFCURVE",
"632 433 OFFCURVE",
"632 308 CURVE SMOOTH",
"632 164 OFFCURVE",
"550 72 OFFCURVE",
"440 26 CURVE SMOOTH",
"421 18 OFFCURVE",
"405 14 OFFCURVE",
"391 14 CURVE SMOOTH"
);
}
);
width = 768;
}
);
unicode = 004F;
},
{
glyphname = Oslash;
lastChange = "2020-03-06 23:12:57 +0000";
layers = (
{
hints = (
{
horizontal = 1;
origin = "{0, 13}";
target = "{2, 15}";
type = Stem;
},
{
horizontal = 1;
origin = "{0, 45}";
target = "{1, 14}";
type = Stem;
},
{
horizontal = 1;
origin = "{0, 42}";
target = up;
type = BottomGhost;
},
{
origin = "{0, 57}";
target = "{1, 5}";
type = Stem;
},
{
origin = "{2, 9}";
target = "{0, 22}";
type = Stem;
}
);
layerId = master01;
paths = (
{
closed = 1;
nodes = (
"108.502 -117.704 OFFCURVE",
"114.502 -114.704 OFFCURVE",
"118.502 -111.704 CURVE SMOOTH",
"150.502 -88.704 LINE SMOOTH",
"164.502 -78.704 OFFCURVE",
"175.502 -66.704 OFFCURVE",
"182.502 -52.704 CURVE SMOOTH",
"188.502 -40.704 OFFCURVE",
"194.499 -28.705 OFFCURVE",
"202.502 -14.704 CURVE SMOOTH",
"213.977 6.979 LINE",
"243.639 -19.188 OFFCURVE",
"279.876 -41 OFFCURVE",
"325 -41 CURVE SMOOTH",
"341 -41 OFFCURVE",
"357 -39 OFFCURVE",
"370 -34 CURVE SMOOTH",
"396 -26 OFFCURVE",
"419 -16 OFFCURVE",
"445 -6 CURVE SMOOTH",
"594 46 OFFCURVE",
"725 171 OFFCURVE",
"725 356 CURVE SMOOTH",
"725 475.456 OFFCURVE",
"660.787 596.984 OFFCURVE",
"557.701 655.741 CURVE",
"626.502 781.296 LINE SMOOTH",
"630.375 788.364 OFFCURVE",
"632.502 792.296 OFFCURVE",
"632.502 796.296 CURVE SMOOTH",
"632.502 797.296 OFFCURVE",
"630.502 799.296 OFFCURVE",
"629.502 799.296 CURVE SMOOTH",
"627.502 799.296 OFFCURVE",
"619.502 796.296 OFFCURVE",
"616.502 794.296 CURVE SMOOTH",
"573.502 763.296 LINE SMOOTH",
"562.502 756.296 OFFCURVE",
"553.502 745.296 OFFCURVE",
"546.502 733.296 CURVE SMOOTH",
"541.834 725.294 OFFCURVE",
"525.647 693.404 OFFCURVE",
"516.18 675.113 CURVE",
"486.736 685.985 OFFCURVE",
"454.859 692 OFFCURVE",
"421 692 CURVE SMOOTH",
"357 692 OFFCURVE",
"304 674 OFFCURVE",
"260 648 CURVE SMOOTH",
"237 635 OFFCURVE",
"215 622 OFFCURVE",
"193 608 CURVE SMOOTH",
"157 585 OFFCURVE",
"128 552 OFFCURVE",
"104 518 CURVE SMOOTH",
"72 472 OFFCURVE",
"46 422 OFFCURVE",
"46 348 CURVE SMOOTH",
"46 226 OFFCURVE",
"107 124 OFFCURVE",
"169 53 CURVE SMOOTH",
"172.531 49.076 OFFCURVE",
"176.188 45.018 OFFCURVE",
"179.978 40.889 CURVE",
"154.989 -4.541 OFFCURVE",
"120.027 -71.345 OFFCURVE",
"106.502 -96.704 CURVE SMOOTH",
"102.708 -103.817 OFFCURVE",
"101.502 -107.704 OFFCURVE",
"101.502 -112.704 CURVE SMOOTH",
"101.502 -116.704 OFFCURVE",
"104.502 -117.704 OFFCURVE",
"106.502 -117.704 CURVE SMOOTH"
);
},
{
closed = 1;
nodes = (
"219.697 143.38 OFFCURVE",
"211.568 156.027 OFFCURVE",
"204 169 CURVE SMOOTH",
"167 233 OFFCURVE",
"138 299 OFFCURVE",
"138 389 CURVE SMOOTH",
"138 484 OFFCURVE",
"182 554 OFFCURVE",
"238 598 CURVE SMOOTH",
"249 606 OFFCURVE",
"261 613 OFFCURVE",
"274 620 CURVE SMOOTH",
"303 634 OFFCURVE",
"337 647 OFFCURVE",
"373 647 CURVE SMOOTH",
"414.697 647 OFFCURVE",
"450.6 632.518 OFFCURVE",
"481.943 610.331 CURVE",
"228.437 131.213 LINE"
);
},
{
closed = 1;
nodes = (
"378 14 OFFCURVE",
"366 17 OFFCURVE",
"350 25 CURVE SMOOTH",
"315.042 41.933 OFFCURVE",
"285.155 65.43 OFFCURVE",
"259.526 93.046 CURVE",
"517.46 580.426 LINE",
"581.526 518.033 OFFCURVE",
"632 421.705 OFFCURVE",
"632 308 CURVE SMOOTH",
"632 164 OFFCURVE",
"550 72 OFFCURVE",
"440 26 CURVE SMOOTH",
"421 18 OFFCURVE",
"405 14 OFFCURVE",
"391 14 CURVE SMOOTH"
);
}
);
width = 787;
}
);
unicode = 00D8;
},
{
glyphname = OE;
lastChange = "2020-03-06 23:13:01 +0000";
layers = (
{
hints = (
{
horizontal = 1;
origin = "{0, 86}";
target = "{0, 21}";
type = Stem;
},
{
horizontal = 1;
origin = "{0, 28}";
target = "{0, 44}";
type = Stem;
},
{
horizontal = 1;
origin = "{0, 45}";
target = "{0, 59}";
type = Stem;
},
{
horizontal = 1;
origin = "{0, 77}";
target = "{1, 23}";
type = Stem;
},
{
horizontal = 1;
origin = "{1, 11}";
target = "{0, 62}";
type = Stem;
},
{
origin = "{0, 68}";
target = "{1, 5}";
type = Stem;
},
{
origin = "{1, 17}";
target = "{0, 21}";
type = Stem;
}
);
layerId = master01;
paths = (
{
closed = 1;
nodes = (
"972 -11 OFFCURVE",
"982 -8 OFFCURVE",
"988 0 CURVE",
"978 30 OFFCURVE",
"974 45 OFFCURVE",
"974 73 CURVE SMOOTH",
"974 108 OFFCURVE",
"983 130 OFFCURVE",
"983 156 CURVE SMOOTH",
"983 169 OFFCURVE",
"979 181 OFFCURVE",
"968 193 CURVE",
"950 150 OFFCURVE",
"933 116 OFFCURVE",
"916 90 CURVE SMOOTH",
"899 64 OFFCURVE",
"883 48 OFFCURVE",
"869 44 CURVE SMOOTH",
"850 39 OFFCURVE",
"806 37 OFFCURVE",
"738 37 CURVE SMOOTH",
"636 37 LINE",
"636 131 LINE SMOOTH",
"636 261 OFFCURVE",
"638 341 OFFCURVE",
"646 349 CURVE SMOOTH",
"650 353 OFFCURVE",
"690 355 OFFCURVE",
"767 355 CURVE SMOOTH",
"844 355 OFFCURVE",
"893 350 OFFCURVE",
"912 337 CURVE SMOOTH",
"931 324 OFFCURVE",
"949 308 OFFCURVE",
"965 290 CURVE",
"973 300 OFFCURVE",
"976 327 OFFCURVE",
"976 379 CURVE SMOOTH",
"976 431 OFFCURVE",
"972 460 OFFCURVE",
"968 470 CURVE",
"894 401 OFFCURVE",
"876 401 OFFCURVE",
"732 401 CURVE SMOOTH",
"636 401 LINE",
"636 727 LINE",
"744 727 LINE SMOOTH",
"841 727 OFFCURVE",
"899 716 OFFCURVE",
"918 692 CURVE SMOOTH",
"937 668 OFFCURVE",
"954 642 OFFCURVE",
"964 612 CURVE",
"965 629 OFFCURVE",
"968 661 OFFCURVE",
"984 708 CURVE SMOOTH",
"995 740 OFFCURVE",
"1000 754 OFFCURVE",
"1010 770 CURVE",
"540 770 LINE",
"489 781 OFFCURVE",
"433 786 OFFCURVE",
"382 786 CURVE SMOOTH",
"340 786 OFFCURVE",
"298 778 OFFCURVE",
"260 761 CURVE SMOOTH",
"128 691 OFFCURVE",
"17 580 OFFCURVE",
"17 390 CURVE SMOOTH",
"17 352 OFFCURVE",
"20 314 OFFCURVE",
"30 277 CURVE SMOOTH",
"61 176 OFFCURVE",
"106 123 OFFCURVE",
"194 52 CURVE SMOOTH",
"246 11 OFFCURVE",
"316 -10 OFFCURVE",
"386 -10 CURVE SMOOTH",
"434 -10 OFFCURVE",
"487 -8 OFFCURVE",
"534 2 CURVE",
"542 0 OFFCURVE",
"557 -1 OFFCURVE",
"582 -1 CURVE SMOOTH",
"611 -1 OFFCURVE",
"655 0 OFFCURVE",
"708 0 CURVE SMOOTH",
"834 0 OFFCURVE",
"901 -11 OFFCURVE",
"959 -11 CURVE SMOOTH"
);
},
{
closed = 1;
nodes = (
"311 18 OFFCURVE",
"261 57 OFFCURVE",
"226 92 CURVE SMOOTH",
"164 154 OFFCURVE",
"125 248 OFFCURVE",
"125 365 CURVE SMOOTH",
"125 483 OFFCURVE",
"146 585 OFFCURVE",
"232 684 CURVE SMOOTH",
"279 738 OFFCURVE",
"333 752 OFFCURVE",
"398 752 CURVE SMOOTH",
"462 752 OFFCURVE",
"510 729 OFFCURVE",
"548 697 CURVE",
"549 646 OFFCURVE",
"550 540 OFFCURVE",
"550 380 CURVE SMOOTH",
"550 303 OFFCURVE",
"550 203 OFFCURVE",
"548 76 CURVE",
"500 36 OFFCURVE",
"439 18 OFFCURVE",
"373 18 CURVE SMOOTH"
);
}
);
width = 1048;
}
);
unicode = 0152;
},
{
glyphname = P;
lastChange = "2020-03-06 23:16:08 +0000";
layers = (
{
hints = (
{
horizontal = 1;
origin = "{0, 57}";
target = "{0, 38}";
type = Stem;
},
{
horizontal = 1;
origin = "{0, 44}";
target = down;
type = TopGhost;
},
{
horizontal = 1;
origin = "{0, 26}";
target = "{0, 72}";
type = Stem;
},
{
origin = "{0, 111}";
target = "{0, 8}";
type = Stem;
},
{
origin = "{0, 32}";
target = "{0, 69}";
type = Stem;
},
{
origin = "{0, 84}";
target = "{0, 20}";
type = Stem;
}
);
layerId = master01;
paths = (
{
closed = 1;
nodes = (
"196 -659 OFFCURVE",
"212 -648 OFFCURVE",
"220 -638 CURVE SMOOTH",
"237 -620 OFFCURVE",
"240 -594 OFFCURVE",
"242 -563 CURVE SMOOTH",
"243 -545 OFFCURVE",
"245 -524 OFFCURVE",
"245 -504 CURVE SMOOTH",
"245 -463 OFFCURVE",
"243 -424 OFFCURVE",
"242 -383 CURVE SMOOTH",
"240 -211 OFFCURVE",
"211 -62 OFFCURVE",
"197 98 CURVE SMOOTH",
"191 166 OFFCURVE",
"191 237 OFFCURVE",
"190 305 CURVE SMOOTH",
"190 330 OFFCURVE",
"187 356 OFFCURVE",
"187 380 CURVE SMOOTH",
"187 415 OFFCURVE",
"193 434 OFFCURVE",
"211 460 CURVE SMOOTH",
"273 552 OFFCURVE",
"397 605 OFFCURVE",
"536 605 CURVE SMOOTH",
"660 605 OFFCURVE",
"764 552 OFFCURVE",
"828 484 CURVE SMOOTH",
"889 418 OFFCURVE",
"930 313 OFFCURVE",
"930 198 CURVE SMOOTH",
"930 56 OFFCURVE",
"840 -17 OFFCURVE",
"750 -76 CURVE SMOOTH",
"698 -110 OFFCURVE",
"645 -144 OFFCURVE",
"566 -144 CURVE SMOOTH",
"476 -144 OFFCURVE",
"406 -102 OFFCURVE",
"359 -50 CURVE SMOOTH",
"349 -39 OFFCURVE",
"341 -34 OFFCURVE",
"330 -34 CURVE SMOOTH",
"324 -34 OFFCURVE",
"316 -36 OFFCURVE",
"308 -41 CURVE SMOOTH",
"287 -55 LINE SMOOTH",
"277 -62 OFFCURVE",
"272 -70 OFFCURVE",
"272 -78 CURVE SMOOTH",
"272 -89 OFFCURVE",
"280 -101 OFFCURVE",
"292 -114 CURVE SMOOTH",
"340 -167 OFFCURVE",
"413 -210 OFFCURVE",
"499 -210 CURVE SMOOTH",
"528 -210 OFFCURVE",
"555 -204 OFFCURVE",
"581 -197 CURVE SMOOTH",
"687 -168 OFFCURVE",
"760 -118 OFFCURVE",
"840 -62 CURVE SMOOTH",
"881 -33 OFFCURVE",
"923 -6 OFFCURVE",
"954 32 CURVE SMOOTH",
"995 82 OFFCURVE",
"1021 154 OFFCURVE",
"1021 239 CURVE SMOOTH",
"1021 490 OFFCURVE",
"850 654 OFFCURVE",
"593 654 CURVE SMOOTH",
"540 654 OFFCURVE",
"497 647 OFFCURVE",
"451 636 CURVE SMOOTH",
"345 611 OFFCURVE",
"245 572 OFFCURVE",
"181 500 CURVE SMOOTH",
"159 476 OFFCURVE",
"141 451 OFFCURVE",
"119 428 CURVE SMOOTH",
"107 415 OFFCURVE",
"103 388 OFFCURVE",
"103 362 CURVE SMOOTH",
"103 345 OFFCURVE",
"106 329 OFFCURVE",
"106 313 CURVE SMOOTH",
"106 295 OFFCURVE",
"99 286 OFFCURVE",
"82 281 CURVE SMOOTH",
"69 277 OFFCURVE",
"56 270 OFFCURVE",
"44 264 CURVE SMOOTH",
"34 258 OFFCURVE",
"30 253 OFFCURVE",
"30 246 CURVE SMOOTH",
"30 240 OFFCURVE",
"34 234 OFFCURVE",
"40 228 CURVE SMOOTH",
"57 209 OFFCURVE",
"74 189 OFFCURVE",
"91 170 CURVE SMOOTH",
"105 153 OFFCURVE",
"110 144 OFFCURVE",
"112 113 CURVE SMOOTH",
"125 -69 OFFCURVE",
"154 -244 OFFCURVE",
"154 -440 CURVE SMOOTH",
"154 -458 OFFCURVE",
"155 -480 OFFCURVE",
"155 -503 CURVE SMOOTH",
"155 -538 OFFCURVE",
"152 -572 OFFCURVE",
"139 -589 CURVE SMOOTH",
"132 -597 OFFCURVE",
"130 -608 OFFCURVE",
"130 -616 CURVE SMOOTH",
"130 -640 OFFCURVE",
"153 -659 OFFCURVE",
"178 -659 CURVE SMOOTH"
);
}
);
width = 1063;
}
);
unicode = 0050;
},
{
glyphname = Thorn;
lastChange = "2020-03-06 23:16:14 +0000";
layers = (
{
hints = (
{
horizontal = 1;
origin = "{0, 30}";
target = up;
type = BottomGhost;
},
{
horizontal = 1;
origin = "{0, 8}";
target = "{1, 6}";
type = Stem;
},
{
horizontal = 1;
origin = "{0, 15}";
target = down;
type = TopGhost;
},
{
origin = "{0, 24}";
target = "{0, 3}";
type = Stem;
},
{
origin = "{0, 18}";
target = "{0, 8}";
type = Stem;
}
);
layerId = master01;
paths = (
{
closed = 1;
nodes = (
"161 -1 LINE",
"145 22 OFFCURVE",
"144 23 OFFCURVE",
"144 60 CURVE SMOOTH",
"144 192 LINE",
"272 382 OFFCURVE",
"364 518 OFFCURVE",
"482 678 CURVE",
"143 678 LINE",
"143 710 OFFCURVE",
"147 730 OFFCURVE",
"158 762 CURVE SMOOTH",
"159 766 OFFCURVE",
"165 773 OFFCURVE",
"169 775 CURVE",
"37 781 LINE",
"54 737 OFFCURVE",
"56 688 OFFCURVE",
"56 640 CURVE SMOOTH",
"56 605 OFFCURVE",
"55 567 OFFCURVE",
"55 533 CURVE SMOOTH",
"55 485 OFFCURVE",
"54 438 OFFCURVE",
"54 390 CURVE SMOOTH",
"54 335 OFFCURVE",
"53 158 OFFCURVE",
"53 103 CURVE SMOOTH",
"53 65 OFFCURVE",
"48 27 OFFCURVE",
"28 1 CURVE",
"160 -1 LINE"
);
},
{
closed = 1;
nodes = (
"144 608 LINE",
"184 636 OFFCURVE",
"208 642 OFFCURVE",
"263 644 CURVE SMOOTH",
"281 645 OFFCURVE",
"300 646 OFFCURVE",
"318 646 CURVE SMOOTH",
"331 646 OFFCURVE",
"346 645 OFFCURVE",
"358 644 CURVE",
"300 540 OFFCURVE",
"230 441 OFFCURVE",
"144 323 CURVE"
);
}
);
width = 487;
}
);
unicode = 00DE;
},
{
glyphname = Q;
lastChange = "2020-03-06 23:16:18 +0000";
layers = (
{
hints = (
{
horizontal = 1;
origin = "{0, 70}";
target = "{0, 64}";
type = Stem;
},
{
horizontal = 1;
origin = "{0, 48}";
target = "{1, 26}";
type = Stem;
},
{
horizontal = 1;
origin = "{0, 33}";
target = "{1, 11}";
type = Stem;
},
{
origin = "{0, 42}";
target = "{1, 5}";
type = Stem;
},
{
origin = "{0, 55}";
target = "{0, 11}";
type = Stem;
}
);
layerId = master01;
paths = (
{
closed = 1;
nodes = (
"822 -744 OFFCURVE",
"842 -730 OFFCURVE",
"848 -707 CURVE",
"912 -675 OFFCURVE",
"956 -592 OFFCURVE",
"972 -548 CURVE SMOOTH",
"985 -511 OFFCURVE",
"995 -481 OFFCURVE",
"995 -437 CURVE SMOOTH",
"995 -407 OFFCURVE",
"988 -378 OFFCURVE",
"988 -349 CURVE SMOOTH",
"988 -130 LINE SMOOTH",
"988 24 OFFCURVE",
"1014 153 OFFCURVE",
"1015 302 CURVE",
"1066 398 OFFCURVE",
"1140 480 OFFCURVE",
"1230 538 CURVE SMOOTH",
"1246 548 OFFCURVE",
"1253 558 OFFCURVE",
"1253 564 CURVE SMOOTH",
"1253 569 OFFCURVE",
"1250 571 OFFCURVE",
"1243 571 CURVE SMOOTH",
"1237 571 OFFCURVE",
"1228 568 OFFCURVE",
"1217 562 CURVE SMOOTH",
"1138 519 OFFCURVE",
"1066 462 OFFCURVE",
"1008 398 CURVE",
"983 570 OFFCURVE",
"857 658 OFFCURVE",
"661 658 CURVE SMOOTH",
"638 658 OFFCURVE",
"616 656 OFFCURVE",
"594 656 CURVE SMOOTH",
"479 656 OFFCURVE",
"372 642 OFFCURVE",
"287 605 CURVE SMOOTH",
"144 543 OFFCURVE",
"46 399 OFFCURVE",
"46 200 CURVE SMOOTH",
"46 7 OFFCURVE",
"164 -152 OFFCURVE",
"296 -230 CURVE SMOOTH",
"345 -259 OFFCURVE",
"393 -276 OFFCURVE",
"464 -276 CURVE SMOOTH",
"550 -276 OFFCURVE",
"624 -261 OFFCURVE",
"689 -224 CURVE SMOOTH",
"767 -180 OFFCURVE",
"824 -103 OFFCURVE",
"884 -38 CURVE",
"884 -296 LINE SMOOTH",
"884 -355 OFFCURVE",
"893 -420 OFFCURVE",
"893 -506 CURVE SMOOTH",
"893 -550 OFFCURVE",
"882 -602 OFFCURVE",
"839 -654 CURVE",
"829 -642 OFFCURVE",
"814 -635 OFFCURVE",
"797 -635 CURVE SMOOTH",
"766 -635 OFFCURVE",
"742 -659 OFFCURVE",
"742 -690 CURVE SMOOTH",
"742 -721 OFFCURVE",
"766 -744 OFFCURVE",
"797 -744 CURVE SMOOTH"
);
},
{
closed = 1;
nodes = (
"380 -224 OFFCURVE",
"291 -114 OFFCURVE",
"233 -18 CURVE SMOOTH",
"185 64 OFFCURVE",
"154 143 OFFCURVE",
"154 256 CURVE SMOOTH",
"154 382 OFFCURVE",
"192 484 OFFCURVE",
"264 542 CURVE SMOOTH",
"348 610 OFFCURVE",
"471 623 OFFCURVE",
"607 623 CURVE SMOOTH",
"692 623 OFFCURVE",
"763 584 OFFCURVE",
"818 547 CURVE SMOOTH",
"883 503 OFFCURVE",
"911 403 OFFCURVE",
"911 287 CURVE SMOOTH",
"911 222 OFFCURVE",
"902 162 OFFCURVE",
"895 98 CURVE",
"849 31 OFFCURVE",
"808 -40 OFFCURVE",
"756 -102 CURVE SMOOTH",
"703 -166 OFFCURVE",
"635 -224 OFFCURVE",
"528 -224 CURVE SMOOTH"
);
}
);
width = 1129;
}
);
unicode = 0051;
},
{
glyphname = R;
lastChange = "2020-03-06 23:16:22 +0000";
layers = (
{
hints = (
{
horizontal = 1;
origin = "{0, 159}";
target = "{0, 14}";
type = Stem;
},
{
horizontal = 1;
origin = "{0, 65}";
target = "{0, 35}";
type = Stem;
},
{
horizontal = 1;
origin = "{0, 50}";
target = down;
type = TopGhost;
},
{
horizontal = 1;
origin = "{0, 8}";
target = down;
type = TopGhost;
},
{
horizontal = 1;
origin = "{0, 59}";
target = down;
type = TopGhost;
},
{
horizontal = 1;
origin = "{0, 144}";
target = "{0, 140}";
type = Stem;
},
{
origin = "{0, 131}";
target = "{0, 29}";
type = Stem;
},
{
place = "{76, 92}";
type = Stem;
}
);
layerId = master01;
paths = (
{
closed = 1;
nodes = (
"682 -193 OFFCURVE",
"713 -184 OFFCURVE",
"736 -166 CURVE SMOOTH",
"748 -156 OFFCURVE",
"754 -148 OFFCURVE",
"754 -143 CURVE SMOOTH",
"754 -141 OFFCURVE",
"752 -138 OFFCURVE",
"748 -138 CURVE SMOOTH",
"744 -138 OFFCURVE",
"738 -138 OFFCURVE",
"730 -142 CURVE SMOOTH",
"719 -146 OFFCURVE",
"707 -148 OFFCURVE",
"696 -148 CURVE SMOOTH",
"667 -148 OFFCURVE",
"647 -135 OFFCURVE",
"628 -122 CURVE SMOOTH",
"602 -104 OFFCURVE",
"577 -80 OFFCURVE",
"558 -54 CURVE SMOOTH",
"504 18 OFFCURVE",
"474 113 OFFCURVE",
"402 168 CURVE",
"498 223 OFFCURVE",
"604 288 OFFCURVE",
"646 396 CURVE SMOOTH",
"658 425 OFFCURVE",
"664 457 OFFCURVE",
"664 488 CURVE SMOOTH",
"664 588 OFFCURVE",
"607 660 OFFCURVE",
"534 688 CURVE SMOOTH",
"500 701 OFFCURVE",
"463 704 OFFCURVE",
"427 704 CURVE SMOOTH",
"381 704 OFFCURVE",
"343 700 OFFCURVE",
"302 689 CURVE SMOOTH",
"270 679 OFFCURVE",
"238 664 OFFCURVE",
"208 650 CURVE",
"213 671 OFFCURVE",
"221 690 OFFCURVE",
"233 706 CURVE SMOOTH",
"240 716 OFFCURVE",
"247 725 OFFCURVE",
"247 732 CURVE SMOOTH",
"247 738 OFFCURVE",
"245 740 OFFCURVE",
"239 740 CURVE SMOOTH",
"234 740 OFFCURVE",
"228 738 OFFCURVE",
"218 732 CURVE SMOOTH",
"183 712 OFFCURVE",
"145 695 OFFCURVE",
"92 695 CURVE SMOOTH",
"74 695 OFFCURVE",
"56 696 OFFCURVE",
"38 696 CURVE SMOOTH",
"13 696 OFFCURVE",
"4 692 OFFCURVE",
"4 686 CURVE SMOOTH",
"4 681 OFFCURVE",
"11 674 OFFCURVE",
"23 667 CURVE SMOOTH",
"71 637 OFFCURVE",
"98 584 OFFCURVE",
"98 509 CURVE SMOOTH",
"98 438 OFFCURVE",
"92 369 OFFCURVE",
"91 298 CURVE SMOOTH",
"90 219 OFFCURVE",
"83 140 OFFCURVE",
"78 62 CURVE SMOOTH",
"77 31 OFFCURVE",
"76 -1 OFFCURVE",
"74 -32 CURVE SMOOTH",
"72 -66 OFFCURVE",
"65 -96 OFFCURVE",
"53 -121 CURVE SMOOTH",
"51 -127 OFFCURVE",
"49 -132 OFFCURVE",
"49 -136 CURVE SMOOTH",
"49 -141 OFFCURVE",
"50 -143 OFFCURVE",
"54 -143 CURVE SMOOTH",
"58 -143 OFFCURVE",
"61 -141 OFFCURVE",
"67 -137 CURVE SMOOTH",
"79 -129 OFFCURVE",
"93 -120 OFFCURVE",
"110 -120 CURVE SMOOTH",
"120 -120 OFFCURVE",
"130 -122 OFFCURVE",
"138 -124 CURVE SMOOTH",
"151 -126 OFFCURVE",
"165 -129 OFFCURVE",
"181 -131 CURVE SMOOTH",
"187 -132 OFFCURVE",
"190 -132 OFFCURVE",
"194 -132 CURVE SMOOTH",
"202 -132 OFFCURVE",
"204 -129 OFFCURVE",
"204 -127 CURVE SMOOTH",
"204 -123 OFFCURVE",
"198 -117 OFFCURVE",
"191 -109 CURVE SMOOTH",
"174 -91 OFFCURVE",
"168 -63 OFFCURVE",
"168 -29 CURVE SMOOTH",
"168 -3 OFFCURVE",
"171 26 OFFCURVE",
"173 52 CURVE SMOOTH",
"177 102 OFFCURVE",
"179 155 OFFCURVE",
"181 205 CURVE SMOOTH",
"186 289 OFFCURVE",
"192 373 OFFCURVE",
"198 457 CURVE SMOOTH",
"202 506 OFFCURVE",
"202 553 OFFCURVE",
"203 602 CURVE",
"240 639 OFFCURVE",
"289 667 OFFCURVE",
"355 667 CURVE SMOOTH",
"377 667 OFFCURVE",
"398 665 OFFCURVE",
"418 659 CURVE SMOOTH",
"512 634 OFFCURVE",
"583 562 OFFCURVE",
"583 446 CURVE SMOOTH",
"583 384 OFFCURVE",
"565 331 OFFCURVE",
"529 288 CURVE SMOOTH",
"489 241 OFFCURVE",
"433 212 OFFCURVE",
"378 182 CURVE",
"364 188 OFFCURVE",
"349 193 OFFCURVE",
"330 193 CURVE SMOOTH",
"292 193 OFFCURVE",
"258 179 OFFCURVE",
"229 166 CURVE",
"230 150 LINE",
"277 148 OFFCURVE",
"314 132 OFFCURVE",
"343 107 CURVE SMOOTH",
"366 88 OFFCURVE",
"382 61 OFFCURVE",
"398 36 CURVE SMOOTH",
"415 8 OFFCURVE",
"431 -20 OFFCURVE",
"448 -48 CURVE SMOOTH",
"460 -67 OFFCURVE",
"471 -88 OFFCURVE",
"484 -106 CURVE SMOOTH",
"518 -155 OFFCURVE",
"567 -193 OFFCURVE",
"647 -193 CURVE SMOOTH"
);
}
);
width = 681;
}
);
unicode = 0052;
},
{
glyphname = S;
lastChange = "2020-03-06 23:16:25 +0000";
layers = (
{
hints = (
{
horizontal = 1;
origin = "{0, 107}";
target = "{0, 77}";
type = Stem;
},
{
horizontal = 1;
origin = "{0, 56}";
target = "{0, 17}";
type = Stem;
},
{
origin = "{0, 62}";
target = "{0, 14}";
type = Stem;
},
{
origin = "{0, 74}";
target = "{0, 8}";
type = Stem;
},
{
origin = "{0, 101}";
target = "{0, 86}";
type = Stem;
}
);
layerId = master01;
paths = (
{
closed = 1;
nodes = (
"405 -208 OFFCURVE",
"458 -192 OFFCURVE",
"510 -173 CURVE SMOOTH",
"574 -150 OFFCURVE",
"627 -112 OFFCURVE",
"649 -47 CURVE SMOOTH",
"663 -6 OFFCURVE",
"665 36 OFFCURVE",
"665 82 CURVE SMOOTH",
"665 324 OFFCURVE",
"370 261 OFFCURVE",
"220 355 CURVE SMOOTH",
"174 384 OFFCURVE",
"130 430 OFFCURVE",
"130 498 CURVE SMOOTH",
"130 598 OFFCURVE",
"237 636 OFFCURVE",
"335 636 CURVE SMOOTH",
"418 636 OFFCURVE",
"464 600 OFFCURVE",
"496 548 CURVE SMOOTH",
"515 518 OFFCURVE",
"542 499 OFFCURVE",
"547 457 CURVE SMOOTH",
"548 449 OFFCURVE",
"549 440 OFFCURVE",
"550 432 CURVE SMOOTH",
"551 419 OFFCURVE",
"555 413 OFFCURVE",
"559 413 CURVE SMOOTH",
"563 413 OFFCURVE",
"566 417 OFFCURVE",
"570 427 CURVE SMOOTH",
"572 435 OFFCURVE",
"574 445 OFFCURVE",
"575 457 CURVE SMOOTH",
"576 470 OFFCURVE",
"583 474 OFFCURVE",
"594 474 CURVE SMOOTH",
"606 474 OFFCURVE",
"623 469 OFFCURVE",
"636 469 CURVE SMOOTH",
"646 469 OFFCURVE",
"653 472 OFFCURVE",
"661 474 CURVE SMOOTH",
"673 478 OFFCURVE",
"678 482 OFFCURVE",
"678 487 CURVE SMOOTH",
"678 492 OFFCURVE",
"672 495 OFFCURVE",
"662 499 CURVE SMOOTH",
"644 506 OFFCURVE",
"632 514 OFFCURVE",
"622 532 CURVE SMOOTH",
"575 614 OFFCURVE",
"497 664 OFFCURVE",
"370 664 CURVE SMOOTH",
"222 664 OFFCURVE",
"119 630 OFFCURVE",
"64 536 CURVE SMOOTH",
"50 512 OFFCURVE",
"41 486 OFFCURVE",
"41 458 CURVE SMOOTH",
"41 370 OFFCURVE",
"117 312 OFFCURVE",
"182 290 CURVE SMOOTH",
"218 278 OFFCURVE",
"257 275 OFFCURVE",
"294 268 CURVE SMOOTH",
"355 256 OFFCURVE",
"417 239 OFFCURVE",
"472 217 CURVE SMOOTH",
"543 189 OFFCURVE",
"584 140 OFFCURVE",
"584 42 CURVE SMOOTH",
"584 -68 OFFCURVE",
"533 -152 OFFCURVE",
"424 -152 CURVE SMOOTH",
"368 -152 OFFCURVE",
"324 -136 OFFCURVE",
"282 -114 CURVE SMOOTH",
"228 -88 OFFCURVE",
"179 -49 OFFCURVE",
"148 -6 CURVE SMOOTH",
"128 22 OFFCURVE",
"112 53 OFFCURVE",
"112 91 CURVE SMOOTH",
"112 108 OFFCURVE",
"115 125 OFFCURVE",
"121 139 CURVE SMOOTH",
"127 152 OFFCURVE",
"132 166 OFFCURVE",
"132 173 CURVE SMOOTH",
"132 177 OFFCURVE",
"130 179 OFFCURVE",
"125 179 CURVE SMOOTH",
"120 179 OFFCURVE",
"112 176 OFFCURVE",
"100 170 CURVE SMOOTH",
"59 151 OFFCURVE",
"25 112 OFFCURVE",
"25 62 CURVE SMOOTH",
"25 14 OFFCURVE",
"53 -20 OFFCURVE",
"76 -49 CURVE SMOOTH",
"137 -122 OFFCURVE",
"214 -208 OFFCURVE",
"340 -208 CURVE SMOOTH"
);
}
);
width = 696;
}
);
unicode = 0053;
},
{
glyphname = T;
lastChange = "2020-03-06 23:16:29 +0000";
layers = (
{
hints = (
{
horizontal = 1;
origin = "{0, 91}";
target = "{0, 18}";
type = Stem;
},
{
horizontal = 1;
origin = "{0, 76}";
target = "{0, 58}";
type = Stem;
},
{
horizontal = 1;
origin = "{0, 64}";
target = down;
type = TopGhost;
},
{
horizontal = 1;
origin = "{0, 33}";
target = "{0, 52}";
type = Stem;
},
{
origin = "{0, 85}";
target = "{0, 24}";
type = Stem;
}
);
layerId = master01;
paths = (
{
closed = 1;
nodes = (
"635 -106 OFFCURVE",
"722 -29 OFFCURVE",
"775 56 CURVE SMOOTH",
"779 61 OFFCURVE",
"779 64 OFFCURVE",
"779 68 CURVE SMOOTH",
"779 72 OFFCURVE",
"777 74 OFFCURVE",
"775 78 CURVE SMOOTH",
"768 86 LINE SMOOTH",
"766 90 OFFCURVE",
"763 91 OFFCURVE",
"761 91 CURVE SMOOTH",
"759 91 OFFCURVE",
"757 88 OFFCURVE",
"755 84 CURVE SMOOTH",
"720 11 OFFCURVE",
"641 -50 OFFCURVE",
"541 -50 CURVE SMOOTH",
"473 -50 OFFCURVE",
"423 -20 OFFCURVE",
"379 17 CURVE SMOOTH",
"323 63 OFFCURVE",
"275 121 OFFCURVE",
"275 217 CURVE SMOOTH",
"275 264 OFFCURVE",
"284 301 OFFCURVE",
"302 338 CURVE SMOOTH",
"339 415 OFFCURVE",
"420 446 OFFCURVE",
"473 506 CURVE",
"516 510 OFFCURVE",
"561 515 OFFCURVE",
"605 515 CURVE SMOOTH",
"640 515 OFFCURVE",
"670 512 OFFCURVE",
"700 506 CURVE SMOOTH",
"704 505 OFFCURVE",
"708 505 OFFCURVE",
"712 505 CURVE SMOOTH",
"724 505 OFFCURVE",
"732 512 OFFCURVE",
"739 526 CURVE SMOOTH",
"748 542 LINE SMOOTH",
"750 546 OFFCURVE",
"750 550 OFFCURVE",
"750 554 CURVE SMOOTH",
"750 561 OFFCURVE",
"744 567 OFFCURVE",
"732 568 CURVE SMOOTH",
"708 572 OFFCURVE",
"684 572 OFFCURVE",
"660 572 CURVE SMOOTH",
"624 572 OFFCURVE",
"588 568 OFFCURVE",
"552 563 CURVE SMOOTH",
"439 547 OFFCURVE",
"324 529 OFFCURVE",
"202 522 CURVE",
"195 544 OFFCURVE",
"189 565 OFFCURVE",
"185 588 CURVE SMOOTH",
"181 604 OFFCURVE",
"182 656 OFFCURVE",
"166 656 CURVE SMOOTH",
"161 656 OFFCURVE",
"155 650 OFFCURVE",
"150 643 CURVE SMOOTH",
"125 603 OFFCURVE",
"94 566 OFFCURVE",
"59 535 CURVE SMOOTH",
"45 521 OFFCURVE",
"20 517 OFFCURVE",
"20 505 CURVE SMOOTH",
"20 481 OFFCURVE",
"141 480 OFFCURVE",
"172 480 CURVE SMOOTH",
"260 480 OFFCURVE",
"338 490 OFFCURVE",
"420 500 CURVE",
"383 458 OFFCURVE",
"330 431 OFFCURVE",
"288 394 CURVE SMOOTH",
"232 344 OFFCURVE",
"198 269 OFFCURVE",
"198 167 CURVE SMOOTH",
"198 75 OFFCURVE",
"242 14 OFFCURVE",
"295 -29 CURVE SMOOTH",
"348 -72 OFFCURVE",
"413 -106 OFFCURVE",
"502 -106 CURVE SMOOTH"
);
}
);
width = 751;
}
);
unicode = 0054;
},
{
glyphname = U;
lastChange = "2020-03-06 23:16:32 +0000";
layers = (
{
hints = (
{
horizontal = 1;
origin = "{0, 113}";
target = "{0, 59}";
type = Stem;
},
{
horizontal = 1;
origin = "{0, 95}";
target = down;
type = TopGhost;
},
{
horizontal = 1;
origin = "{0, 83}";
target = down;
type = TopGhost;
},
{
horizontal = 1;
origin = "{0, 35}";
target = up;
type = BottomGhost;
},
{
horizontal = 1;
origin = "{0, 86}";
target = down;
type = TopGhost;
},
{
horizontal = 1;
origin = "{0, 89}";
target = up;
type = BottomGhost;
},
{
origin = "{0, 107}";
target = "{0, 65}";
type = Stem;
},
{
origin = "{0, 120}";
target = "{0, 14}";
type = Stem;
},
{
origin = "{0, 53}";
target = "{0, 17}";
type = Stem;
}
);
layerId = master01;
paths = (
{
closed = 1;
nodes = (
"771 -106 OFFCURVE",
"780 -104 OFFCURVE",
"790 -102 CURVE SMOOTH",
"800 -100 OFFCURVE",
"806 -95 OFFCURVE",
"806 -91 CURVE SMOOTH",
"806 -87 OFFCURVE",
"802 -86 OFFCURVE",
"792 -84 CURVE SMOOTH",
"740 -74 OFFCURVE",
"719 -18 OFFCURVE",
"719 41 CURVE SMOOTH",
"719 119 OFFCURVE",
"725 200 OFFCURVE",
"725 283 CURVE SMOOTH",
"725 357 OFFCURVE",
"733 430 OFFCURVE",
"733 506 CURVE SMOOTH",
"733 526 OFFCURVE",
"732 548 OFFCURVE",
"732 568 CURVE SMOOTH",
"732 622 OFFCURVE",
"748 654 OFFCURVE",
"785 668 CURVE SMOOTH",
"801 674 OFFCURVE",
"806 680 OFFCURVE",
"806 684 CURVE SMOOTH",
"806 688 OFFCURVE",
"803 689 OFFCURVE",
"793 689 CURVE SMOOTH",
"789 689 OFFCURVE",
"782 687 OFFCURVE",
"776 686 CURVE SMOOTH",
"741 682 OFFCURVE",
"708 680 OFFCURVE",
"672 680 CURVE SMOOTH",
"625 680 OFFCURVE",
"578 683 OFFCURVE",
"532 685 CURVE SMOOTH",
"521 686 OFFCURVE",
"508 686 OFFCURVE",
"497 686 CURVE SMOOTH",
"486 686 OFFCURVE",
"479 682 OFFCURVE",
"479 678 CURVE SMOOTH",
"479 674 OFFCURVE",
"485 671 OFFCURVE",
"498 670 CURVE SMOOTH",
"552 666 OFFCURVE",
"584 635 OFFCURVE",
"607 598 CURVE SMOOTH",
"635 554 OFFCURVE",
"656 511 OFFCURVE",
"656 444 CURVE SMOOTH",
"656 330 OFFCURVE",
"645 214 OFFCURVE",
"641 104 CURVE",
"571 46 OFFCURVE",
"527 -58 OFFCURVE",
"401 -58 CURVE SMOOTH",
"275 -58 OFFCURVE",
"197 25 OFFCURVE",
"154 113 CURVE SMOOTH",
"138 144 OFFCURVE",
"127 176 OFFCURVE",
"127 214 CURVE SMOOTH",
"127 248 OFFCURVE",
"136 280 OFFCURVE",
"148 311 CURVE SMOOTH",
"176 381 OFFCURVE",
"212 446 OFFCURVE",
"241 516 CURVE SMOOTH",
"254 548 OFFCURVE",
"261 581 OFFCURVE",
"268 622 CURVE SMOOTH",
"272 646 OFFCURVE",
"280 651 OFFCURVE",
"293 664 CURVE SMOOTH",
"303 674 OFFCURVE",
"307 680 OFFCURVE",
"307 684 CURVE SMOOTH",
"307 688 OFFCURVE",
"304 689 OFFCURVE",
"298 689 CURVE SMOOTH",
"294 689 OFFCURVE",
"288 687 OFFCURVE",
"281 686 CURVE SMOOTH",
"252 681 OFFCURVE",
"222 678 OFFCURVE",
"188 678 CURVE SMOOTH",
"138 678 OFFCURVE",
"92 686 OFFCURVE",
"48 694 CURVE SMOOTH",
"37 696 OFFCURVE",
"29 697 OFFCURVE",
"18 697 CURVE SMOOTH",
"8 697 OFFCURVE",
"1 695 OFFCURVE",
"1 691 CURVE SMOOTH",
"1 687 OFFCURVE",
"6 683 OFFCURVE",
"20 679 CURVE SMOOTH",
"100 659 OFFCURVE",
"147 575 OFFCURVE",
"178 509 CURVE",
"134 407 OFFCURVE",
"46 323 OFFCURVE",
"46 181 CURVE SMOOTH",
"46 78 OFFCURVE",
"106 18 OFFCURVE",
"167 -29 CURVE SMOOTH",
"216 -66 OFFCURVE",
"267 -96 OFFCURVE",
"350 -96 CURVE SMOOTH",
"441 -96 OFFCURVE",
"515 -72 OFFCURVE",
"564 -24 CURVE SMOOTH",
"589 0 OFFCURVE",
"611 28 OFFCURVE",
"640 50 CURVE",
"640 1 LINE SMOOTH",
"640 -34 OFFCURVE",
"639 -66 OFFCURVE",
"635 -100 CURVE",
"655 -99 OFFCURVE",
"671 -89 OFFCURVE",
"691 -89 CURVE SMOOTH",
"715 -89 OFFCURVE",
"732 -106 OFFCURVE",
"761 -106 CURVE SMOOTH"
);
}
);
width = 814;
}
);
unicode = 0055;
},
{
glyphname = V;
lastChange = "2020-03-06 23:16:39 +0000";
layers = (
{
hints = (
{
horizontal = 1;
origin = "{0, 32}";
target = down;
type = TopGhost;
},
{
horizontal = 1;
origin = "{0, 86}";
target = down;
type = TopGhost;
},
{
horizontal = 1;
origin = "{0, 26}";
target = up;
type = BottomGhost;
},
{
horizontal = 1;
place = "{781, -2147483648}";
type = Stem;
},
{
horizontal = 1;
origin = "{0, 83}";
target = up;
type = BottomGhost;
}
);
layerId = master01;
paths = (
{
closed = 1;
nodes = (
"454 -69 OFFCURVE",
"461 -53 OFFCURVE",
"469 -30 CURVE SMOOTH",
"500 59 OFFCURVE",
"549 160 OFFCURVE",
"587 252 CURVE SMOOTH",
"619 331 OFFCURVE",
"652 421 OFFCURVE",
"690 516 CURVE SMOOTH",
"719 587 OFFCURVE",
"751 645 OFFCURVE",
"779 689 CURVE SMOOTH",
"802 726 OFFCURVE",
"834 757 OFFCURVE",
"888 761 CURVE SMOOTH",
"901 762 OFFCURVE",
"907 765 OFFCURVE",
"907 769 CURVE SMOOTH",
"907 773 OFFCURVE",
"900 778 OFFCURVE",
"889 778 CURVE SMOOTH",
"878 778 OFFCURVE",
"865 777 OFFCURVE",
"854 776 CURVE SMOOTH",
"808 774 OFFCURVE",
"816 774 OFFCURVE",
"769 774 CURVE SMOOTH",
"733 774 OFFCURVE",
"690 777 OFFCURVE",
"655 781 CURVE SMOOTH",
"649 782 OFFCURVE",
"642 784 OFFCURVE",
"638 784 CURVE SMOOTH",
"628 784 OFFCURVE",
"625 783 OFFCURVE",
"625 779 CURVE SMOOTH",
"625 775 OFFCURVE",
"631 769 OFFCURVE",
"647 763 CURVE SMOOTH",
"684 749 OFFCURVE",
"702 730 OFFCURVE",
"702 676 CURVE SMOOTH",
"702 656 OFFCURVE",
"692 620 OFFCURVE",
"682 602 CURVE SMOOTH",
"666 565 OFFCURVE",
"646 527 OFFCURVE",
"629 487 CURVE SMOOTH",
"604 426 OFFCURVE",
"582 363 OFFCURVE",
"556 302 CURVE SMOOTH",
"525 228 OFFCURVE",
"496 156 OFFCURVE",
"470 95 CURVE",
"453 118 OFFCURVE",
"437 155 OFFCURVE",
"425 181 CURVE SMOOTH",
"391 254 OFFCURVE",
"366 318 OFFCURVE",
"334 382 CURVE SMOOTH",
"315 419 OFFCURVE",
"293 456 OFFCURVE",
"274 497 CURVE SMOOTH",
"258 528 OFFCURVE",
"245 562 OFFCURVE",
"228 599 CURVE SMOOTH",
"217 622 OFFCURVE",
"206 651 OFFCURVE",
"206 671 CURVE SMOOTH",
"206 717 OFFCURVE",
"225 747 OFFCURVE",
"262 761 CURVE SMOOTH",
"278 767 OFFCURVE",
"283 772 OFFCURVE",
"283 776 CURVE SMOOTH",
"283 780 OFFCURVE",
"280 781 OFFCURVE",
"270 781 CURVE SMOOTH",
"266 781 OFFCURVE",
"259 780 OFFCURVE",
"253 779 CURVE SMOOTH",
"218 775 OFFCURVE",
"185 773 OFFCURVE",
"149 773 CURVE SMOOTH",
"102 773 OFFCURVE",
"54 776 OFFCURVE",
"8 778 CURVE SMOOTH",
"-3 779 OFFCURVE",
"-15 779 OFFCURVE",
"-26 779 CURVE SMOOTH",
"-37 779 OFFCURVE",
"-44 774 OFFCURVE",
"-44 770 CURVE SMOOTH",
"-44 766 OFFCURVE",
"-38 763 OFFCURVE",
"-25 762 CURVE SMOOTH",
"29 758 OFFCURVE",
"65 727 OFFCURVE",
"84 690 CURVE SMOOTH",
"115 630 OFFCURVE",
"157 529 OFFCURVE",
"192 458 CURVE SMOOTH",
"210 420 OFFCURVE",
"236 380 OFFCURVE",
"256 338 CURVE SMOOTH",
"292 262 OFFCURVE",
"322 185 OFFCURVE",
"356 113 CURVE SMOOTH",
"378 66 OFFCURVE",
"403 22 OFFCURVE",
"420 -16 CURVE SMOOTH",
"437 -54 OFFCURVE",
"444 -69 OFFCURVE",
"449 -69 CURVE SMOOTH"
);
}
);
width = 817;
}
);
unicode = 0056;
},
{
glyphname = W;
lastChange = "2020-03-06 23:16:43 +0000";
layers = (
{
hints = (
{
horizontal = 1;
origin = "{0, 98}";
target = down;
type = TopGhost;
},
{
horizontal = 1;
origin = "{0, 200}";
target = down;
type = TopGhost;
},
{
horizontal = 1;
origin = "{0, 197}";
target = up;
type = BottomGhost;
},
{
horizontal = 1;
place = "{781, -2147483648}";
type = Stem;
}
);
layerId = master01;
paths = (
{
closed = 1;
nodes = (
"454 -69 OFFCURVE",
"461 -53 OFFCURVE",
"469 -30 CURVE SMOOTH",
"498 55 OFFCURVE",
"544 150 OFFCURVE",
"581 239 CURVE",
"600 196 OFFCURVE",
"618 154 OFFCURVE",
"637 113 CURVE SMOOTH",
"659 66 OFFCURVE",
"684 22 OFFCURVE",
"701 -16 CURVE SMOOTH",
"718 -54 OFFCURVE",
"725 -69 OFFCURVE",
"730 -69 CURVE SMOOTH",
"735 -69 OFFCURVE",
"742 -53 OFFCURVE",
"750 -30 CURVE SMOOTH",
"781 59 OFFCURVE",
"830 160 OFFCURVE",
"868 252 CURVE SMOOTH",
"900 331 OFFCURVE",
"933 421 OFFCURVE",
"971 516 CURVE SMOOTH",
"1000 587 OFFCURVE",
"1032 645 OFFCURVE",
"1060 689 CURVE SMOOTH",
"1083 726 OFFCURVE",
"1115 757 OFFCURVE",
"1169 761 CURVE SMOOTH",
"1182 762 OFFCURVE",
"1188 765 OFFCURVE",
"1188 769 CURVE SMOOTH",
"1188 773 OFFCURVE",
"1181 778 OFFCURVE",
"1170 778 CURVE SMOOTH",
"1117 778 OFFCURVE",
"1098 773 OFFCURVE",
"1050 773 CURVE SMOOTH",
"1014 773 OFFCURVE",
"987 777 OFFCURVE",
"952 781 CURVE SMOOTH",
"946 782 OFFCURVE",
"939 784 OFFCURVE",
"935 784 CURVE SMOOTH",
"925 784 OFFCURVE",
"922 783 OFFCURVE",
"922 779 CURVE SMOOTH",
"922 775 OFFCURVE",
"927 769 OFFCURVE",
"943 763 CURVE SMOOTH",
"980 749 OFFCURVE",
"989 740 OFFCURVE",
"989 692 CURVE SMOOTH",
"989 672 OFFCURVE",
"972 620 OFFCURVE",
"962 602 CURVE SMOOTH",
"943 566 OFFCURVE",
"927 527 OFFCURVE",
"910 487 CURVE SMOOTH",
"885 426 OFFCURVE",
"862 363 OFFCURVE",
"836 302 CURVE SMOOTH",
"805 228 OFFCURVE",
"777 156 OFFCURVE",
"751 95 CURVE",
"734 118 OFFCURVE",
"718 155 OFFCURVE",
"706 181 CURVE SMOOTH",
"677 244 OFFCURVE",
"653 300 OFFCURVE",
"627 355 CURVE",
"647 406 OFFCURVE",
"667 460 OFFCURVE",
"690 516 CURVE SMOOTH",
"719 587 OFFCURVE",
"751 645 OFFCURVE",
"779 689 CURVE SMOOTH",
"802 726 OFFCURVE",
"819 754 OFFCURVE",
"859 761 CURVE SMOOTH",
"872 763 OFFCURVE",
"878 765 OFFCURVE",
"878 769 CURVE SMOOTH",
"878 773 OFFCURVE",
"871 778 OFFCURVE",
"860 778 CURVE SMOOTH",
"849 778 OFFCURVE",
"837 777 OFFCURVE",
"826 776 CURVE SMOOTH",
"798 774 OFFCURVE",
"792 773 OFFCURVE",
"748 773 CURVE SMOOTH",
"716 773 OFFCURVE",
"690 777 OFFCURVE",
"655 781 CURVE SMOOTH",
"649 782 OFFCURVE",
"642 784 OFFCURVE",
"638 784 CURVE SMOOTH",
"628 784 OFFCURVE",
"625 783 OFFCURVE",
"625 779 CURVE SMOOTH",
"625 775 OFFCURVE",
"631 769 OFFCURVE",
"647 763 CURVE SMOOTH",
"684 749 OFFCURVE",
"702 730 OFFCURVE",
"702 676 CURVE SMOOTH",
"702 656 OFFCURVE",
"692 620 OFFCURVE",
"682 602 CURVE SMOOTH",
"666 565 OFFCURVE",
"646 527 OFFCURVE",
"629 487 CURVE SMOOTH",
"619 462 OFFCURVE",
"609 436 OFFCURVE",
"599 411 CURVE",
"584 439 OFFCURVE",
"568 467 OFFCURVE",
"554 497 CURVE SMOOTH",
"538 528 OFFCURVE",
"526 562 OFFCURVE",
"509 599 CURVE SMOOTH",
"498 622 OFFCURVE",
"487 651 OFFCURVE",
"487 671 CURVE SMOOTH",
"487 717 OFFCURVE",
"498 747 OFFCURVE",
"528 761 CURVE SMOOTH",
"543 768 OFFCURVE",
"550 772 OFFCURVE",
"550 776 CURVE SMOOTH",
"550 780 OFFCURVE",
"546 781 OFFCURVE",
"536 781 CURVE SMOOTH",
"532 781 OFFCURVE",
"526 780 OFFCURVE",
"520 779 CURVE SMOOTH",
"485 775 OFFCURVE",
"466 773 OFFCURVE",
"430 773 CURVE SMOOTH",
"383 773 OFFCURVE",
"384 773 OFFCURVE",
"342 778 CURVE SMOOTH",
"331 779 OFFCURVE",
"317 779 OFFCURVE",
"306 779 CURVE SMOOTH",
"295 779 OFFCURVE",
"288 774 OFFCURVE",
"288 770 CURVE SMOOTH",
"288 766 OFFCURVE",
"299 764 OFFCURVE",
"307 762 CURVE SMOOTH",
"343 754 OFFCURVE",
"346 727 OFFCURVE",
"365 690 CURVE SMOOTH",
"396 630 OFFCURVE",
"438 529 OFFCURVE",
"473 458 CURVE SMOOTH",
"491 420 OFFCURVE",
"516 380 OFFCURVE",
"536 338 CURVE SMOOTH",
"542 325 OFFCURVE",
"548 313 OFFCURVE",
"554 300 CURVE",
"523 227 OFFCURVE",
"496 155 OFFCURVE",
"470 95 CURVE",
"453 118 OFFCURVE",
"437 155 OFFCURVE",
"425 181 CURVE SMOOTH",
"391 254 OFFCURVE",
"366 318 OFFCURVE",
"334 382 CURVE SMOOTH",
"315 419 OFFCURVE",
"293 456 OFFCURVE",
"274 497 CURVE SMOOTH",
"258 528 OFFCURVE",
"245 562 OFFCURVE",
"228 599 CURVE SMOOTH",
"218 622 OFFCURVE",
"194 680 OFFCURVE",
"194 700 CURVE SMOOTH",
"194 726 OFFCURVE",
"202 747 OFFCURVE",
"233 761 CURVE SMOOTH",
"248 768 OFFCURVE",
"254 772 OFFCURVE",
"254 776 CURVE SMOOTH",
"254 780 OFFCURVE",
"251 781 OFFCURVE",
"241 781 CURVE SMOOTH",
"237 781 OFFCURVE",
"230 780 OFFCURVE",
"224 779 CURVE SMOOTH",
"189 775 OFFCURVE",
"166 773 OFFCURVE",
"130 773 CURVE SMOOTH",
"83 773 OFFCURVE",
"54 774 OFFCURVE",
"8 778 CURVE SMOOTH",
"-3 779 OFFCURVE",
"-15 779 OFFCURVE",
"-26 779 CURVE SMOOTH",
"-37 779 OFFCURVE",
"-44 774 OFFCURVE",
"-44 770 CURVE SMOOTH",
"-44 766 OFFCURVE",
"-38 763 OFFCURVE",
"-25 762 CURVE SMOOTH",
"29 758 OFFCURVE",
"65 727 OFFCURVE",
"84 690 CURVE SMOOTH",
"115 630 OFFCURVE",
"157 529 OFFCURVE",
"192 458 CURVE SMOOTH",
"210 420 OFFCURVE",
"236 380 OFFCURVE",
"256 338 CURVE SMOOTH",
"292 262 OFFCURVE",
"322 185 OFFCURVE",
"356 113 CURVE SMOOTH",
"378 66 OFFCURVE",
"403 22 OFFCURVE",
"420 -16 CURVE SMOOTH",
"437 -54 OFFCURVE",
"444 -69 OFFCURVE",
"449 -69 CURVE SMOOTH"
);
}
);
width = 1098;
}
);
unicode = 0057;
},
{
glyphname = X;
lastChange = "2020-03-06 23:17:53 +0000";
layers = (
{
hints = (
{
horizontal = 1;
origin = "{0, 153}";
target = "{0, 20}";
type = Stem;
},
{
horizontal = 1;
origin = "{0, 111}";
target = up;
type = BottomGhost;
},
{
horizontal = 1;
origin = "{0, 117}";
target = down;
type = TopGhost;
},
{
horizontal = 1;
origin = "{0, 135}";
target = up;
type = BottomGhost;
},
{
horizontal = 1;
origin = "{0, 33}";
target = "{0, 51}";
type = Stem;
},
{
horizontal = 1;
origin = "{0, 87}";
target = "{0, 63}";
type = Stem;
},
{
horizontal = 1;
origin = "{0, 72}";
target = "{0, 78}";
type = Stem;
},
{
horizontal = 1;
origin = "{0, 126}";
target = "{0, 111}";
type = Stem;
},
{
origin = "{0, 69}";
target = "{0, 75}";
type = Stem;
},
{
origin = "{0, 147}";
target = "{0, 26}";
type = Stem;
},
{
origin = "{0, 96}";
target = "{0, 26}";
type = Stem;
}
);
layerId = master01;
paths = (
{
closed = 1;
nodes = (
"741 -210 OFFCURVE",
"769 -205 OFFCURVE",
"798 -193 CURVE SMOOTH",
"858 -168 OFFCURVE",
"908 -116 OFFCURVE",
"946 -62 CURVE SMOOTH",
"953 -52 OFFCURVE",
"956 -43 OFFCURVE",
"956 -36 CURVE SMOOTH",
"956 -29 OFFCURVE",
"953 -24 OFFCURVE",
"948 -24 CURVE SMOOTH",
"942 -24 OFFCURVE",
"935 -31 OFFCURVE",
"925 -44 CURVE SMOOTH",
"896 -87 OFFCURVE",
"861 -128 OFFCURVE",
"815 -149 CURVE SMOOTH",
"792 -160 OFFCURVE",
"768 -164 OFFCURVE",
"744 -164 CURVE SMOOTH",
"718 -164 OFFCURVE",
"692 -158 OFFCURVE",
"668 -146 CURVE SMOOTH",
"570 -98 OFFCURVE",
"523 18 OFFCURVE",
"523 162 CURVE SMOOTH",
"523 244 OFFCURVE",
"538 321 OFFCURVE",
"538 400 CURVE SMOOTH",
"538 425 LINE",
"576 468 OFFCURVE",
"615 535 OFFCURVE",
"692 535 CURVE SMOOTH",
"751 535 OFFCURVE",
"802 492 OFFCURVE",
"824 446 CURVE SMOOTH",
"829 436 OFFCURVE",
"834 427 OFFCURVE",
"845 427 CURVE SMOOTH",
"851 427 OFFCURVE",
"857 428 OFFCURVE",
"863 432 CURVE SMOOTH",
"880 442 OFFCURVE",
"906 457 OFFCURVE",
"906 479 CURVE SMOOTH",
"906 503 OFFCURVE",
"877 524 OFFCURVE",
"863 535 CURVE SMOOTH",
"834 559 OFFCURVE",
"806 580 OFFCURVE",
"756 580 CURVE SMOOTH",
"649 580 OFFCURVE",
"587 522 OFFCURVE",
"533 466 CURVE",
"528 501 OFFCURVE",
"518 535 OFFCURVE",
"500 566 CURVE SMOOTH",
"460 637 OFFCURVE",
"386 691 OFFCURVE",
"298 713 CURVE SMOOTH",
"278 718 OFFCURVE",
"258 720 OFFCURVE",
"239 720 CURVE SMOOTH",
"157 720 OFFCURVE",
"94 678 OFFCURVE",
"41 643 CURVE SMOOTH",
"10 623 OFFCURVE",
"-29 596 OFFCURVE",
"-29 546 CURVE SMOOTH",
"-29 523 OFFCURVE",
"-20 502 OFFCURVE",
"2 502 CURVE SMOOTH",
"27 502 OFFCURVE",
"55 526 OFFCURVE",
"55 552 CURVE SMOOTH",
"55 570 OFFCURVE",
"41 583 OFFCURVE",
"24 583 CURVE SMOOTH",
"23 583 OFFCURVE",
"20 582 OFFCURVE",
"19 582 CURVE",
"47 608 OFFCURVE",
"75 632 OFFCURVE",
"109 650 CURVE SMOOTH",
"137 664 OFFCURVE",
"163 676 OFFCURVE",
"200 676 CURVE SMOOTH",
"243 676 OFFCURVE",
"285 662 OFFCURVE",
"316 646 CURVE SMOOTH",
"362 624 OFFCURVE",
"400 589 OFFCURVE",
"424 545 CURVE SMOOTH",
"455 490 OFFCURVE",
"464 418 OFFCURVE",
"464 344 CURVE SMOOTH",
"464 308 OFFCURVE",
"462 271 OFFCURVE",
"458 233 CURVE",
"411 199 OFFCURVE",
"369 164 OFFCURVE",
"328 126 CURVE SMOOTH",
"250 53 OFFCURVE",
"169 -23 OFFCURVE",
"71 -76 CURVE SMOOTH",
"53 -86 OFFCURVE",
"36 -96 OFFCURVE",
"18 -107 CURVE SMOOTH",
"11 -112 OFFCURVE",
"4 -115 OFFCURVE",
"-7 -115 CURVE SMOOTH",
"-21 -115 OFFCURVE",
"-34 -107 OFFCURVE",
"-42 -100 CURVE SMOOTH",
"-49 -94 OFFCURVE",
"-65 -83 OFFCURVE",
"-76 -83 CURVE SMOOTH",
"-86 -83 OFFCURVE",
"-94 -87 OFFCURVE",
"-102 -92 CURVE SMOOTH",
"-115 -100 OFFCURVE",
"-128 -112 OFFCURVE",
"-128 -128 CURVE SMOOTH",
"-128 -157 OFFCURVE",
"-79 -172 OFFCURVE",
"-53 -172 CURVE SMOOTH",
"-33 -172 OFFCURVE",
"-16 -164 OFFCURVE",
"0 -157 CURVE SMOOTH",
"37 -139 OFFCURVE",
"70 -114 OFFCURVE",
"104 -91 CURVE SMOOTH",
"136 -69 OFFCURVE",
"169 -48 OFFCURVE",
"200 -24 CURVE SMOOTH",
"241 7 OFFCURVE",
"279 42 OFFCURVE",
"317 76 CURVE SMOOTH",
"341 98 OFFCURVE",
"365 119 OFFCURVE",
"389 142 CURVE SMOOTH",
"409 161 OFFCURVE",
"430 180 OFFCURVE",
"455 193 CURVE",
"453 169 OFFCURVE",
"450 144 OFFCURVE",
"450 120 CURVE SMOOTH",
"450 26 OFFCURVE",
"480 -39 OFFCURVE",
"527 -100 CURVE SMOOTH",
"568 -154 OFFCURVE",
"632 -210 OFFCURVE",
"716 -210 CURVE SMOOTH"
);
}
);
width = 921;
}
);
unicode = 0058;
},
{
glyphname = Y;
lastChange = "2020-03-06 23:17:56 +0000";
layers = (
{
hints = (
{
horizontal = 1;
place = "{788, -2147483648}";
type = Stem;
},
{
horizontal = 1;
origin = "{0, 107}";
target = down;
type = TopGhost;
},
{
horizontal = 1;
origin = "{0, 41}";
target = up;
type = BottomGhost;
},
{
horizontal = 1;
origin = "{0, 89}";
target = up;
type = BottomGhost;
},
{
horizontal = 1;
origin = "{0, 98}";
target = up;
type = BottomGhost;
}
);
layerId = master01;
paths = (
{
closed = 1;
nodes = (
"20 -482 OFFCURVE",
"36 -454 OFFCURVE",
"46 -432 CURVE SMOOTH",
"63 -391 OFFCURVE",
"95 -364 OFFCURVE",
"119 -329 CURVE SMOOTH",
"156 -277 OFFCURVE",
"202 -212 OFFCURVE",
"284 -212 CURVE SMOOTH",
"306 -212 OFFCURVE",
"317 -209 OFFCURVE",
"317 -204 CURVE SMOOTH",
"317 -198 OFFCURVE",
"308 -189 OFFCURVE",
"292 -181 CURVE SMOOTH",
"258 -163 OFFCURVE",
"263 -123 OFFCURVE",
"281 -80 CURVE SMOOTH",
"315 1 OFFCURVE",
"353 114 OFFCURVE",
"366 146 CURVE SMOOTH",
"398 225 OFFCURVE",
"477 421 OFFCURVE",
"515 516 CURVE SMOOTH",
"544 587 OFFCURVE",
"576 645 OFFCURVE",
"604 689 CURVE SMOOTH",
"627 726 OFFCURVE",
"659 757 OFFCURVE",
"713 761 CURVE SMOOTH",
"726 762 OFFCURVE",
"732 765 OFFCURVE",
"732 769 CURVE SMOOTH",
"732 773 OFFCURVE",
"725 778 OFFCURVE",
"714 778 CURVE SMOOTH",
"703 778 OFFCURVE",
"690 777 OFFCURVE",
"679 776 CURVE SMOOTH",
"633 774 OFFCURVE",
"641 774 OFFCURVE",
"594 774 CURVE SMOOTH",
"558 774 OFFCURVE",
"515 777 OFFCURVE",
"480 781 CURVE SMOOTH",
"474 782 OFFCURVE",
"467 784 OFFCURVE",
"463 784 CURVE SMOOTH",
"453 784 OFFCURVE",
"450 783 OFFCURVE",
"450 779 CURVE SMOOTH",
"450 775 OFFCURVE",
"456 769 OFFCURVE",
"472 763 CURVE SMOOTH",
"509 749 OFFCURVE",
"527 730 OFFCURVE",
"527 676 CURVE SMOOTH",
"527 656 OFFCURVE",
"516 620 OFFCURVE",
"506 602 CURVE SMOOTH",
"490 565 OFFCURVE",
"471 527 OFFCURVE",
"454 487 CURVE SMOOTH",
"434 437 OFFCURVE",
"414 386 OFFCURVE",
"394 334 CURVE SMOOTH",
"377 292 OFFCURVE",
"351 244 OFFCURVE",
"341 244 CURVE SMOOTH",
"333 244 OFFCURVE",
"329 282 OFFCURVE",
"312 329 CURVE SMOOTH",
"305 348 OFFCURVE",
"297 368 OFFCURVE",
"288 389 CURVE SMOOTH",
"272 426 OFFCURVE",
"255 463 OFFCURVE",
"236 504 CURVE SMOOTH",
"220 535 OFFCURVE",
"204 569 OFFCURVE",
"187 606 CURVE SMOOTH",
"176 629 OFFCURVE",
"166 658 OFFCURVE",
"166 678 CURVE SMOOTH",
"166 724 OFFCURVE",
"184 754 OFFCURVE",
"221 768 CURVE SMOOTH",
"237 774 OFFCURVE",
"242 780 OFFCURVE",
"242 784 CURVE SMOOTH",
"242 788 OFFCURVE",
"239 788 OFFCURVE",
"229 788 CURVE SMOOTH",
"225 788 OFFCURVE",
"218 787 OFFCURVE",
"212 786 CURVE SMOOTH",
"177 782 OFFCURVE",
"144 780 OFFCURVE",
"108 780 CURVE SMOOTH",
"61 780 OFFCURVE",
"14 783 OFFCURVE",
"-32 785 CURVE SMOOTH",
"-43 786 OFFCURVE",
"-56 786 OFFCURVE",
"-67 786 CURVE SMOOTH",
"-78 786 OFFCURVE",
"-85 782 OFFCURVE",
"-85 778 CURVE SMOOTH",
"-85 774 OFFCURVE",
"-79 770 OFFCURVE",
"-66 769 CURVE SMOOTH",
"-12 765 OFFCURVE",
"24 734 OFFCURVE",
"43 697 CURVE SMOOTH",
"74 637 OFFCURVE",
"125 537 OFFCURVE",
"160 466 CURVE SMOOTH",
"179 428 OFFCURVE",
"198 386 OFFCURVE",
"214 342 CURVE SMOOTH",
"235 283 OFFCURVE",
"266 195 OFFCURVE",
"266 107 CURVE SMOOTH",
"266 44 OFFCURVE",
"254 -2 OFFCURVE",
"234 -50 CURVE SMOOTH",
"222 -80 OFFCURVE",
"200 -127 OFFCURVE",
"184 -163 CURVE SMOOTH",
"166 -204 OFFCURVE",
"151 -237 OFFCURVE",
"133 -266 CURVE SMOOTH",
"102 -316 OFFCURVE",
"60 -365 OFFCURVE",
"18 -408 CURVE SMOOTH",
"13 -413 OFFCURVE",
"-29 -454 OFFCURVE",
"-29 -470 CURVE SMOOTH",
"-29 -477 OFFCURVE",
"-21 -482 OFFCURVE",
"-10 -482 CURVE SMOOTH"
);
}
);
width = 658;
}
);
unicode = 0059;
},
{
glyphname = Z;
lastChange = "2020-03-06 23:18:02 +0000";
layers = (
{
hints = (
{
horizontal = 1;
origin = "{0, 15}";
target = up;
type = BottomGhost;
},
{
horizontal = 1;
origin = "{0, 70}";
target = up;
type = BottomGhost;
},
{
horizontal = 1;
origin = "{0, 31}";
target = "{0, 61}";
type = Stem;
},
{
horizontal = 1;
origin = "{0, 121}";
target = "{0, 97}";
type = Stem;
},
{
horizontal = 1;
origin = "{0, 34}";
target = "{0, 31}";
type = Stem;
},
{
horizontal = 1;
origin = "{0, 118}";
target = "{0, 100}";
type = Stem;
},
{
origin = "{0, 12}";
target = "{0, 22}";
type = Stem;
}
);
layerId = master01;
paths = (
{
closed = 1;
nodes = (
"-177 -583 OFFCURVE",
"-160 -573 OFFCURVE",
"-137 -551 CURVE SMOOTH",
"-116 -532 LINE SMOOTH",
"-26 -449 OFFCURVE",
"51 -388 OFFCURVE",
"161 -312 CURVE SMOOTH",
"167 -307 OFFCURVE",
"175 -307 OFFCURVE",
"180 -307 CURVE SMOOTH",
"206 -307 OFFCURVE",
"217 -331 OFFCURVE",
"217 -350 CURVE SMOOTH",
"217 -372 OFFCURVE",
"205 -395 OFFCURVE",
"193 -408 CURVE",
"199 -419 LINE",
"217 -407 OFFCURVE",
"235 -392 OFFCURVE",
"251 -378 CURVE SMOOTH",
"265 -365 OFFCURVE",
"278 -351 OFFCURVE",
"278 -326 CURVE SMOOTH",
"278 -294 OFFCURVE",
"249 -271 OFFCURVE",
"226 -263 CURVE",
"330 -183 OFFCURVE",
"428 -88 OFFCURVE",
"544 -20 CURVE SMOOTH",
"582 3 OFFCURVE",
"621 22 OFFCURVE",
"679 22 CURVE SMOOTH",
"783 22 OFFCURVE",
"855 -35 OFFCURVE",
"962 -35 CURVE SMOOTH",
"997 -35 OFFCURVE",
"1032 -30 OFFCURVE",
"1067 -24 CURVE SMOOTH",
"1141 -11 OFFCURVE",
"1214 10 OFFCURVE",
"1264 50 CURVE SMOOTH",
"1274 57 OFFCURVE",
"1278 65 OFFCURVE",
"1278 70 CURVE SMOOTH",
"1278 74 OFFCURVE",
"1276 74 OFFCURVE",
"1271 74 CURVE SMOOTH",
"1266 74 OFFCURVE",
"1260 74 OFFCURVE",
"1253 70 CURVE SMOOTH",
"1224 56 OFFCURVE",
"1193 44 OFFCURVE",
"1162 34 CURVE SMOOTH",
"1138 27 OFFCURVE",
"1112 22 OFFCURVE",
"1087 22 CURVE SMOOTH",
"1039 22 OFFCURVE",
"1002 39 OFFCURVE",
"965 52 CURVE SMOOTH",
"917 69 OFFCURVE",
"870 77 OFFCURVE",
"815 77 CURVE SMOOTH",
"774 77 OFFCURVE",
"733 73 OFFCURVE",
"692 66 CURVE SMOOTH",
"612 53 OFFCURVE",
"548 24 OFFCURVE",
"492 -12 CURVE SMOOTH",
"398 -71 OFFCURVE",
"323 -150 OFFCURVE",
"226 -206 CURVE",
"280 -153 OFFCURVE",
"333 -99 OFFCURVE",
"386 -44 CURVE SMOOTH",
"447 20 OFFCURVE",
"507 84 OFFCURVE",
"569 145 CURVE SMOOTH",
"641 217 OFFCURVE",
"716 286 OFFCURVE",
"786 359 CURVE SMOOTH",
"863 439 OFFCURVE",
"935 523 OFFCURVE",
"1019 596 CURVE SMOOTH",
"1030 606 OFFCURVE",
"1033 613 OFFCURVE",
"1033 618 CURVE SMOOTH",
"1033 622 OFFCURVE",
"1031 623 OFFCURVE",
"1027 623 CURVE SMOOTH",
"1022 623 OFFCURVE",
"1016 620 OFFCURVE",
"1006 614 CURVE SMOOTH",
"976 595 OFFCURVE",
"948 574 OFFCURVE",
"923 551 CURVE",
"875 534 OFFCURVE",
"818 518 OFFCURVE",
"758 518 CURVE SMOOTH",
"613 518 OFFCURVE",
"512 598 OFFCURVE",
"367 598 CURVE SMOOTH",
"320 598 OFFCURVE",
"278 590 OFFCURVE",
"234 582 CURVE SMOOTH",
"145 564 OFFCURVE",
"73 540 OFFCURVE",
"14 492 CURVE SMOOTH",
"2 482 OFFCURVE",
"-5 474 OFFCURVE",
"-5 469 CURVE SMOOTH",
"-5 464 OFFCURVE",
"-4 462 OFFCURVE",
"2 462 CURVE SMOOTH",
"9 462 OFFCURVE",
"19 466 OFFCURVE",
"32 474 CURVE SMOOTH",
"86 509 OFFCURVE",
"149 539 OFFCURVE",
"233 539 CURVE SMOOTH",
"378 539 OFFCURVE",
"508 464 OFFCURVE",
"653 464 CURVE SMOOTH",
"732 464 OFFCURVE",
"810 484 OFFCURVE",
"876 503 CURVE",
"824 449 OFFCURVE",
"774 393 OFFCURVE",
"720 340 CURVE SMOOTH",
"624 245 OFFCURVE",
"523 155 OFFCURVE",
"432 55 CURVE SMOOTH",
"402 21 OFFCURVE",
"372 -12 OFFCURVE",
"341 -44 CURVE SMOOTH",
"297 -91 OFFCURVE",
"251 -136 OFFCURVE",
"204 -182 CURVE SMOOTH",
"84 -300 OFFCURVE",
"-34 -419 OFFCURVE",
"-155 -534 CURVE SMOOTH",
"-179 -557 OFFCURVE",
"-191 -571 OFFCURVE",
"-191 -578 CURVE SMOOTH",
"-191 -582 OFFCURVE",
"-190 -583 OFFCURVE",
"-185 -583 CURVE SMOOTH"
);
}
);
width = 1148;
}
);
unicode = 005A;
},
{
glyphname = uni01F7;
lastChange = "2020-03-06 23:18:07 +0000";
layers = (
{
hints = (
{
horizontal = 1;
origin = "{1, 6}";
target = "{0, 7}";
type = Stem;
},
{
origin = "{0, 19}";
target = "{0, 2}";
type = Stem;
},
{
origin = "{0, 22}";
target = "{0, 2}";
type = Stem;
}
);
layerId = master01;
paths = (
{
closed = 1;
nodes = (
"157 22 OFFCURVE",
"154 30 OFFCURVE",
"154 60 CURVE SMOOTH",
"154 262 LINE",
"280 453 OFFCURVE",
"373 616 OFFCURVE",
"493 776 CURVE",
"118 776 LINE SMOOTH",
"101 776 OFFCURVE",
"85 774 OFFCURVE",
"68 774 CURVE SMOOTH",
"62 774 OFFCURVE",
"54 774 OFFCURVE",
"48 775 CURVE",
"67 745 OFFCURVE",
"64 701 OFFCURVE",
"65 660 CURVE SMOOTH",
"66 617 OFFCURVE",
"68 577 OFFCURVE",
"68 539 CURVE SMOOTH",
"68 490 OFFCURVE",
"67 442 OFFCURVE",
"67 390 CURVE SMOOTH",
"67 332 OFFCURVE",
"65 286 OFFCURVE",
"65 228 CURVE SMOOTH",
"65 187 OFFCURVE",
"62 147 OFFCURVE",
"62 103 CURVE SMOOTH",
"62 65 OFFCURVE",
"60 27 OFFCURVE",
"40 1 CURVE",
"84 0 OFFCURVE",
"129 0 OFFCURVE",
"173 -1 CURVE"
);
},
{
closed = 1;
nodes = (
"154 708 LINE",
"194 736 OFFCURVE",
"219 743 OFFCURVE",
"274 745 CURVE SMOOTH",
"292 746 OFFCURVE",
"312 746 OFFCURVE",
"330 746 CURVE SMOOTH",
"343 746 OFFCURVE",
"355 746 OFFCURVE",
"367 745 CURVE",
"312 641 OFFCURVE",
"240 511 OFFCURVE",
"154 391 CURVE"
);
}
);
width = 457;
}
);
unicode = 01F7;
},
{
glyphname = uniA76A;
lastChange = "2020-03-06 23:18:11 +0000";
layers = (
{
hints = (
{
origin = "{1, 23}";
target = "{0, 5}";
type = Stem;
},
{
origin = "{1, 20}";
target = "{1, 5}";
type = Stem;
}
);
layerId = master01;
paths = (
{
closed = 1;
nodes = (
"117 250 OFFCURVE",
"143 270 OFFCURVE",
"162 294 CURVE SMOOTH",
"172 307 OFFCURVE",
"185 330 OFFCURVE",
"185 350 CURVE SMOOTH",
"185 378 OFFCURVE",
"155 393 OFFCURVE",
"131 393 CURVE SMOOTH",
"108 393 OFFCURVE",
"84 383 OFFCURVE",
"68 371 CURVE SMOOTH",
"64 368 OFFCURVE",
"60 363 OFFCURVE",
"60 359 CURVE SMOOTH",
"60 356 OFFCURVE",
"62 352 OFFCURVE",
"67 350 CURVE SMOOTH",
"85 343 OFFCURVE",
"109 331 OFFCURVE",
"109 308 CURVE SMOOTH",
"109 304 OFFCURVE",
"107 299 OFFCURVE",
"105 294 CURVE SMOOTH",
"98 278 OFFCURVE",
"88 264 OFFCURVE",
"78 250 CURVE",
"89 236 LINE"
);
},
{
closed = 1;
nodes = (
"120 36 OFFCURVE",
"146 55 OFFCURVE",
"165 79 CURVE SMOOTH",
"175 92 OFFCURVE",
"188 115 OFFCURVE",
"188 135 CURVE SMOOTH",
"188 163 OFFCURVE",
"159 178 OFFCURVE",
"135 178 CURVE SMOOTH",
"112 178 OFFCURVE",
"88 168 OFFCURVE",
"72 156 CURVE SMOOTH",
"68 153 OFFCURVE",
"64 148 OFFCURVE",
"64 144 CURVE SMOOTH",
"64 141 OFFCURVE",
"66 137 OFFCURVE",
"71 135 CURVE SMOOTH",
"89 128 OFFCURVE",
"112 116 OFFCURVE",
"112 93 CURVE SMOOTH",
"112 89 OFFCURVE",
"111 84 OFFCURVE",
"109 79 CURVE SMOOTH",
"102 63 OFFCURVE",
"91 49 OFFCURVE",
"81 35 CURVE",
"92 22 LINE"
);
}
);
width = 265;
}
);
unicode = A76A;
},
{
glyphname = AE.alt1;
lastChange = "2020-03-07 11:19:06 +0000";
layers = (
{
hints = (
{
horizontal = 1;
place = "{0, 32}";
type = Stem;
},
{
horizontal = 1;
origin = "{0, 147}";
target = "{0, 78}";
type = Stem;
},
{
horizontal = 1;
origin = "{0, 120}";
target = "{0, 102}";
type = Stem;
},
{
horizontal = 1;
origin = "{0, 90}";
target = "{0, 132}";
type = Stem;
},
{
horizontal = 1;
origin = "{0, 41}";
target = "{0, 49}";
type = Stem;
},
{
horizontal = 1;
origin = "{0, 48}";
target = down;
type = TopGhost;
},
{
horizontal = 1;
origin = "{0, 120}";
target = "{0, 108}";
type = Stem;
},
{
horizontal = 1;
origin = "{1, 14}";
target = up;
type = BottomGhost;
},
{
origin = "{0, 151}";
target = "{0, 14}";
type = Stem;
},
{
origin = "{0, 55}";
target = "{0, 14}";
type = Stem;
},
{
origin = "{0, 138}";
target = "{0, 144}";
type = Stem;
},
{
origin = "{0, 96}";
target = "{0, 126}";
type = Stem;
}
);
layerId = master01;
paths = (
{
closed = 1;
nodes = (
"752 16 OFFCURVE",
"746 57 OFFCURVE",
"742 77 CURVE SMOOTH",
"737 115 OFFCURVE",
"738 142 OFFCURVE",
"734 182 CURVE",
"723 150 OFFCURVE",
"719 108 OFFCURVE",
"683 84 CURVE SMOOTH",
"605 31 OFFCURVE",
"526 37 OFFCURVE",
"448 32 CURVE",
"447 36 OFFCURVE",
"445 43 OFFCURVE",
"445 48 CURVE SMOOTH",
"445 374 LINE",
"537 363 OFFCURVE",
"675 389 OFFCURVE",
"719 292 CURVE SMOOTH",
"721 286 OFFCURVE",
"724 283 OFFCURVE",
"725 283 CURVE SMOOTH",
"726 283 OFFCURVE",
"726 291 OFFCURVE",
"726 293 CURVE SMOOTH",
"730 526 LINE SMOOTH",
"730 530 OFFCURVE",
"728 530 OFFCURVE",
"726 530 CURVE SMOOTH",
"725 530 OFFCURVE",
"722 525 OFFCURVE",
"721 523 CURVE SMOOTH",
"709 491 OFFCURVE",
"694 452 OFFCURVE",
"654 440 CURVE SMOOTH",
"575 416 OFFCURVE",
"516 432 OFFCURVE",
"445 419 CURVE",
"445 738 LINE",
"473 743 OFFCURVE",
"504 746 OFFCURVE",
"535 746 CURVE SMOOTH",
"590 746 OFFCURVE",
"643 736 OFFCURVE",
"683 708 CURVE",
"713 683 OFFCURVE",
"718 636 OFFCURVE",
"730 605 CURVE",
"742 779 LINE",
"521 775 LINE SMOOTH",
"491 775 OFFCURVE",
"374 774 OFFCURVE",
"326 774 CURVE",
"337 756 OFFCURVE",
"338 735 OFFCURVE",
"338 712 CURVE SMOOTH",
"338 657 OFFCURVE",
"316 597 OFFCURVE",
"300 548 CURVE",
"271 465 OFFCURVE",
"244 385 OFFCURVE",
"210 308 CURVE",
"253 301 LINE",
"282 385 OFFCURVE",
"305 473 OFFCURVE",
"336 556 CURVE SMOOTH",
"341 568 OFFCURVE",
"345 580 OFFCURVE",
"350 580 CURVE SMOOTH",
"354 580 OFFCURVE",
"358 563 OFFCURVE",
"358 556 CURVE SMOOTH",
"358 296 LINE SMOOTH",
"358 292 OFFCURVE",
"357 282 OFFCURVE",
"356 276 CURVE",
"351 276 OFFCURVE",
"342 276 OFFCURVE",
"336 276 CURVE SMOOTH",
"276 276 OFFCURVE",
"206 286 OFFCURVE",
"154 317 CURVE SMOOTH",
"105 348 OFFCURVE",
"53 401 OFFCURVE",
"53 462 CURVE SMOOTH",
"53 475 OFFCURVE",
"58 487 OFFCURVE",
"65 498 CURVE SMOOTH",
"70 505 OFFCURVE",
"78 514 OFFCURVE",
"90 514 CURVE SMOOTH",
"96 514 OFFCURVE",
"105 513 OFFCURVE",
"110 509 CURVE SMOOTH",
"114 507 OFFCURVE",
"120 500 OFFCURVE",
"120 490 CURVE SMOOTH",
"120 488 OFFCURVE",
"120 484 OFFCURVE",
"119 480 CURVE SMOOTH",
"118 476 OFFCURVE",
"116 475 OFFCURVE",
"112 475 CURVE SMOOTH",
"106 475 OFFCURVE",
"103 478 OFFCURVE",
"101 482 CURVE SMOOTH",
"99 486 OFFCURVE",
"94 487 OFFCURVE",
"89 487 CURVE SMOOTH",
"85 487 OFFCURVE",
"80 486 OFFCURVE",
"78 482 CURVE SMOOTH",
"76 478 OFFCURVE",
"74 472 OFFCURVE",
"74 470 CURVE SMOOTH",
"74 465 OFFCURVE",
"78 460 OFFCURVE",
"84 456 CURVE SMOOTH",
"90 451 OFFCURVE",
"97 449 OFFCURVE",
"104 449 CURVE SMOOTH",
"120 449 OFFCURVE",
"133 453 OFFCURVE",
"139 463 CURVE SMOOTH",
"144 470 OFFCURVE",
"148 482 OFFCURVE",
"148 494 CURVE SMOOTH",
"148 511 OFFCURVE",
"140 524 OFFCURVE",
"132 532 CURVE SMOOTH",
"124 540 OFFCURVE",
"107 544 OFFCURVE",
"91 544 CURVE SMOOTH",
"66 544 OFFCURVE",
"42 534 OFFCURVE",
"31 521 CURVE SMOOTH",
"14 498 OFFCURVE",
"7 467 OFFCURVE",
"7 436 CURVE SMOOTH",
"7 410 OFFCURVE",
"13 384 OFFCURVE",
"24 361 CURVE SMOOTH",
"30 347 OFFCURVE",
"42 334 OFFCURVE",
"53 322 CURVE SMOOTH",
"120 239 OFFCURVE",
"240 236 OFFCURVE",
"334 235 CURVE SMOOTH",
"339 235 OFFCURVE",
"353 235 OFFCURVE",
"358 236 CURVE",
"358 114 LINE SMOOTH",
"358 76 OFFCURVE",
"354 39 OFFCURVE",
"342 2 CURVE",
"764 -2 LINE"
);
},
{
closed = 1;
nodes = (
"184 -6 LINE",
"178 5 OFFCURVE",
"172 23 OFFCURVE",
"172 41 CURVE SMOOTH",
"172 52 OFFCURVE",
"173 60 OFFCURVE",
"175 71 CURVE SMOOTH",
"189 133 OFFCURVE",
"215 173 OFFCURVE",
"226 227 CURVE",
"186 229 LINE",
"94 20 LINE SMOOTH",
"89 8 OFFCURVE",
"83 0 OFFCURVE",
"79 -4 CURVE",
"83 -6 LINE"
);
}
);
width = 801;
}
);
rightKerningGroup = E.titl2;
},
{
glyphname = Ccedilla.alt1;
lastChange = "2020-03-06 23:18:20 +0000";
layers = (
{
hints = (
{
horizontal = 1;
origin = "{0, 100}";
target = up;
type = BottomGhost;
},
{
horizontal = 1;
origin = "{0, 80}";
target = "{0, 34}";
type = Stem;
},
{
horizontal = 1;
origin = "{0, 53}";
target = "{0, 67}";
type = Stem;
},
{
origin = "{0, 74}";
target = "{0, 43}";
type = Stem;
},
{
origin = "{0, 94}";
target = "{0, 5}";
type = Stem;
}
);
layerId = master01;
paths = (
{
closed = 1;
nodes = (
"184 -223 OFFCURVE",
"198 -219 OFFCURVE",
"218 -212 CURVE SMOOTH",
"250 -201 OFFCURVE",
"311 -172 OFFCURVE",
"311 -131 CURVE SMOOTH",
"311 -103 OFFCURVE",
"285 -68 OFFCURVE",
"269 -55 CURVE SMOOTH",
"264 -51 OFFCURVE",
"262 -48 OFFCURVE",
"262 -44 CURVE SMOOTH",
"262 -40 OFFCURVE",
"264 -38 OFFCURVE",
"269 -34 CURVE SMOOTH",
"320 0 LINE",
"481 0 LINE",
"462 28 OFFCURVE",
"454 66 OFFCURVE",
"454 106 CURVE SMOOTH",
"454 124 OFFCURVE",
"454 141 OFFCURVE",
"458 158 CURVE SMOOTH",
"460 168 OFFCURVE",
"462 173 OFFCURVE",
"462 179 CURVE SMOOTH",
"462 180 OFFCURVE",
"462 183 OFFCURVE",
"461 185 CURVE",
"443 138 OFFCURVE",
"422 81 OFFCURVE",
"373 61 CURVE SMOOTH",
"336 45 OFFCURVE",
"298 43 OFFCURVE",
"260 43 CURVE SMOOTH",
"244 43 OFFCURVE",
"230 44 OFFCURVE",
"214 44 CURVE SMOOTH",
"198 44 OFFCURVE",
"184 43 OFFCURVE",
"168 42 CURVE",
"160 96 OFFCURVE",
"158 152 OFFCURVE",
"158 210 CURVE SMOOTH",
"158 498 LINE SMOOTH",
"158 559 OFFCURVE",
"156 619 OFFCURVE",
"156 679 CURVE SMOOTH",
"156 697 OFFCURVE",
"156 719 OFFCURVE",
"157 737 CURVE",
"177 743 OFFCURVE",
"199 745 OFFCURVE",
"222 745 CURVE SMOOTH",
"245 745 OFFCURVE",
"266 745 OFFCURVE",
"289 745 CURVE SMOOTH",
"311 745 OFFCURVE",
"332 744 OFFCURVE",
"350 740 CURVE SMOOTH",
"391 732 OFFCURVE",
"417 711 OFFCURVE",
"439 683 CURVE SMOOTH",
"458 655 OFFCURVE",
"467 622 OFFCURVE",
"475 588 CURVE",
"484 779 LINE",
"46 779 LINE",
"71 741 OFFCURVE",
"76 697 OFFCURVE",
"76 653 CURVE SMOOTH",
"76 621 OFFCURVE",
"74 588 OFFCURVE",
"74 556 CURVE SMOOTH",
"74 274 LINE SMOOTH",
"74 221 OFFCURVE",
"72 171 OFFCURVE",
"72 118 CURVE SMOOTH",
"72 72 OFFCURVE",
"65 29 OFFCURVE",
"40 0 CURVE",
"275 0 LINE",
"204 -47 LINE SMOOTH",
"188 -57 OFFCURVE",
"180 -66 OFFCURVE",
"180 -73 CURVE SMOOTH",
"180 -77 OFFCURVE",
"182 -79 OFFCURVE",
"186 -83 CURVE SMOOTH",
"206 -99 OFFCURVE",
"221 -112 OFFCURVE",
"228 -120 CURVE SMOOTH",
"235 -128 OFFCURVE",
"239 -138 OFFCURVE",
"239 -149 CURVE SMOOTH",
"239 -155 OFFCURVE",
"237 -161 OFFCURVE",
"235 -167 CURVE SMOOTH",
"233 -173 OFFCURVE",
"228 -175 OFFCURVE",
"223 -175 CURVE SMOOTH",
"210 -175 OFFCURVE",
"192 -160 OFFCURVE",
"185 -154 CURVE SMOOTH",
"177 -146 OFFCURVE",
"167 -144 OFFCURVE",
"157 -149 CURVE SMOOTH",
"121 -166 LINE SMOOTH",
"113 -170 OFFCURVE",
"109 -174 OFFCURVE",
"109 -179 CURVE SMOOTH",
"109 -181 OFFCURVE",
"110 -184 OFFCURVE",
"112 -186 CURVE SMOOTH",
"128 -204 OFFCURVE",
"152 -223 OFFCURVE",
"178 -223 CURVE SMOOTH"
);
}
);
width = 526;
}
);
},
{
glyphname = Thorn.alt1;
lastChange = "2020-03-06 23:18:25 +0000";
layers = (
{
hints = (
{
horizontal = 1;
origin = "{0, 55}";
target = "{0, 25}";
type = Stem;
},
{
horizontal = 1;
origin = "{0, 34}";
target = "{0, 46}";
type = Stem;
},
{
horizontal = 1;
origin = "{0, 13}";
target = "{0, 67}";
type = Stem;
},
{
horizontal = 1;
origin = "{0, 77}";
target = down;
type = TopGhost;
},
{
horizontal = 1;
origin = "{0, 76}";
target = down;
type = TopGhost;
},
{
origin = "{0, 89}";
target = "{0, 3}";
type = Stem;
},
{
origin = "{0, 49}";
target = "{0, 31}";
type = Stem;
},
{
origin = "{0, 19}";
target = "{0, 61}";
type = Stem;
},
{
origin = "{0, 89}";
target = "{0, 9}";
type = Stem;
}
);
layerId = master01;
paths = (
{
closed = 1;
nodes = (
"191 0 LINE",
"165 34 OFFCURVE",
"160 77 OFFCURVE",
"160 120 CURVE SMOOTH",
"160 143 OFFCURVE",
"161 164 OFFCURVE",
"161 187 CURVE SMOOTH",
"161 221 OFFCURVE",
"157 256 OFFCURVE",
"157 293 CURVE SMOOTH",
"157 544 LINE",
"217 561 OFFCURVE",
"258 571 OFFCURVE",
"313 571 CURVE SMOOTH",
"373 571 OFFCURVE",
"430 554 OFFCURVE",
"461 500 CURVE SMOOTH",
"480 466 OFFCURVE",
"492 434 OFFCURVE",
"492 394 CURVE SMOOTH",
"492 363 OFFCURVE",
"492 329 OFFCURVE",
"478 301 CURVE SMOOTH",
"452 249 OFFCURVE",
"400 202 OFFCURVE",
"335 202 CURVE SMOOTH",
"309 202 OFFCURVE",
"295 207 OFFCURVE",
"278 224 CURVE SMOOTH",
"268 234 OFFCURVE",
"260 246 OFFCURVE",
"260 263 CURVE SMOOTH",
"260 269 OFFCURVE",
"265 284 OFFCURVE",
"271 284 CURVE SMOOTH",
"277 284 OFFCURVE",
"280 279 OFFCURVE",
"281 274 CURVE SMOOTH",
"282 270 OFFCURVE",
"290 265 OFFCURVE",
"298 265 CURVE SMOOTH",
"314 265 OFFCURVE",
"322 277 OFFCURVE",
"322 293 CURVE SMOOTH",
"322 321 OFFCURVE",
"303 337 OFFCURVE",
"275 337 CURVE SMOOTH",
"237 337 OFFCURVE",
"221 303 OFFCURVE",
"221 271 CURVE SMOOTH",
"221 237 OFFCURVE",
"237 206 OFFCURVE",
"256 188 CURVE SMOOTH",
"282 162 OFFCURVE",
"313 156 OFFCURVE",
"360 156 CURVE SMOOTH",
"433 156 OFFCURVE",
"480 177 OFFCURVE",
"520 214 CURVE SMOOTH",
"561 251 OFFCURVE",
"590 303 OFFCURVE",
"590 374 CURVE SMOOTH",
"590 446 OFFCURVE",
"561 526 OFFCURVE",
"508 566 CURVE SMOOTH",
"464 598 OFFCURVE",
"400 611 OFFCURVE",
"338 611 CURVE SMOOTH",
"270 611 OFFCURVE",
"203 597 OFFCURVE",
"160 581 CURVE",
"162 616 OFFCURVE",
"165 694 OFFCURVE",
"172 743 CURVE SMOOTH",
"175 761 OFFCURVE",
"179 767 OFFCURVE",
"187 775 CURVE",
"55 781 LINE",
"72 737 OFFCURVE",
"74 688 OFFCURVE",
"74 640 CURVE SMOOTH",
"74 605 OFFCURVE",
"73 567 OFFCURVE",
"73 533 CURVE SMOOTH",
"73 485 OFFCURVE",
"72 438 OFFCURVE",
"72 390 CURVE SMOOTH",
"72 335 OFFCURVE",
"74 282 OFFCURVE",
"74 227 CURVE SMOOTH",
"74 149 OFFCURVE",
"69 71 OFFCURVE",
"40 0 CURVE"
);
}
);
width = 607;
}
);
},
{
glyphname = A.med1;
lastChange = "2020-03-06 23:18:29 +0000";
layers = (
{
hints = (
{
horizontal = 1;
origin = "{0, 155}";
target = "{0, 167}";
type = Stem;
},
{
horizontal = 1;
origin = "{0, 29}";
target = "{1, 14}";
type = Stem;
},
{
horizontal = 1;
origin = "{0, 176}";
target = "{0, 146}";
type = Stem;
},
{
horizontal = 1;
origin = "{0, 107}";
target = "{0, 122}";
type = Stem;
},
{
horizontal = 1;
origin = "{0, 131}";
target = "{0, 98}";
type = Stem;
},
{
horizontal = 1;
origin = "{0, 86}";
target = down;
type = TopGhost;
},
{
horizontal = 1;
origin = "{0, 92}";
target = down;
type = TopGhost;
},
{
origin = "{0, 152}";
target = "{0, 170}";
type = Stem;
},
{
origin = "{0, 164}";
target = "{0, 158}";
type = Stem;
},
{
origin = "{0, 104}";
target = "{0, 125}";
type = Stem;
},
{
origin = "{0, 119}";
target = "{0, 110}";
type = Stem;
}
);
layerId = master01;
paths = (
{
closed = 1;
nodes = (
"191 -137 OFFCURVE",
"199 -131 OFFCURVE",
"210 -121 CURVE SMOOTH",
"222 -110 OFFCURVE",
"235 -99 OFFCURVE",
"247 -89 CURVE SMOOTH",
"269 -72 OFFCURVE",
"290 -38 OFFCURVE",
"326 -38 CURVE SMOOTH",
"343 -38 OFFCURVE",
"361 -46 OFFCURVE",
"380 -46 CURVE SMOOTH",
"396 -46 OFFCURVE",
"402 -42 OFFCURVE",
"402 -36 CURVE SMOOTH",
"402 -30 OFFCURVE",
"396 -22 OFFCURVE",
"388 -17 CURVE SMOOTH",
"364 -3 OFFCURVE",
"347 26 OFFCURVE",
"347 58 CURVE SMOOTH",
"347 96 OFFCURVE",
"366 127 OFFCURVE",
"383 152 CURVE SMOOTH",
"409 194 OFFCURVE",
"432 236 OFFCURVE",
"456 282 CURVE",
"534 256 OFFCURVE",
"608 217 OFFCURVE",
"709 217 CURVE SMOOTH",
"761 217 OFFCURVE",
"810 228 OFFCURVE",
"842 254 CURVE",
"880 198 OFFCURVE",
"919 141 OFFCURVE",
"956 85 CURVE SMOOTH",
"974 57 OFFCURVE",
"1000 29 OFFCURVE",
"1000 -14 CURVE SMOOTH",
"1000 -28 OFFCURVE",
"996 -41 OFFCURVE",
"990 -52 CURVE SMOOTH",
"985 -62 OFFCURVE",
"978 -67 OFFCURVE",
"978 -73 CURVE SMOOTH",
"978 -78 OFFCURVE",
"979 -82 OFFCURVE",
"984 -82 CURVE SMOOTH",
"988 -82 OFFCURVE",
"993 -78 OFFCURVE",
"1003 -73 CURVE SMOOTH",
"1072 -37 OFFCURVE",
"1154 -18 OFFCURVE",
"1232 11 CURVE SMOOTH",
"1245 16 OFFCURVE",
"1250 20 OFFCURVE",
"1250 25 CURVE SMOOTH",
"1250 29 OFFCURVE",
"1247 30 OFFCURVE",
"1242 30 CURVE SMOOTH",
"1240 30 OFFCURVE",
"1236 29 OFFCURVE",
"1231 28 CURVE SMOOTH",
"1224 26 OFFCURVE",
"1215 24 OFFCURVE",
"1207 24 CURVE SMOOTH",
"1182 24 OFFCURVE",
"1169 34 OFFCURVE",
"1159 50 CURVE SMOOTH",
"1141 78 OFFCURVE",
"1118 103 OFFCURVE",
"1099 131 CURVE SMOOTH",
"1071 169 OFFCURVE",
"1048 210 OFFCURVE",
"1024 251 CURVE SMOOTH",
"996 299 OFFCURVE",
"967 345 OFFCURVE",
"938 392 CURVE SMOOTH",
"894 465 OFFCURVE",
"852 540 OFFCURVE",
"806 612 CURVE SMOOTH",
"782 649 OFFCURVE",
"765 692 OFFCURVE",
"736 726 CURVE SMOOTH",
"726 737 OFFCURVE",
"716 742 OFFCURVE",
"706 742 CURVE SMOOTH",
"682 742 OFFCURVE",
"665 718 OFFCURVE",
"635 718 CURVE SMOOTH",
"623 718 OFFCURVE",
"607 719 OFFCURVE",
"596 719 CURVE SMOOTH",
"589 719 OFFCURVE",
"582 718 OFFCURVE",
"577 716 CURVE SMOOTH",
"567 711 OFFCURVE",
"559 709 OFFCURVE",
"542 709 CURVE SMOOTH",
"423 705 OFFCURVE",
"337 683 OFFCURVE",
"278 618 CURVE SMOOTH",
"262 601 OFFCURVE",
"245 580 OFFCURVE",
"245 550 CURVE SMOOTH",
"245 506 OFFCURVE",
"288 464 OFFCURVE",
"332 464 CURVE SMOOTH",
"373 464 OFFCURVE",
"409 503 OFFCURVE",
"409 544 CURVE SMOOTH",
"409 566 OFFCURVE",
"387 583 OFFCURVE",
"362 583 CURVE SMOOTH",
"348 583 OFFCURVE",
"344 571 OFFCURVE",
"344 554 CURVE SMOOTH",
"344 547 OFFCURVE",
"346 541 OFFCURVE",
"346 534 CURVE SMOOTH",
"346 515 OFFCURVE",
"337 494 OFFCURVE",
"320 494 CURVE SMOOTH",
"292 494 OFFCURVE",
"281 530 OFFCURVE",
"281 552 CURVE SMOOTH",
"281 572 OFFCURVE",
"288 593 OFFCURVE",
"300 607 CURVE SMOOTH",
"344 657 OFFCURVE",
"423 685 OFFCURVE",
"514 685 CURVE SMOOTH",
"526 685 OFFCURVE",
"539 685 OFFCURVE",
"551 683 CURVE SMOOTH",
"568 679 OFFCURVE",
"569 677 OFFCURVE",
"577 667 CURVE SMOOTH",
"590 653 OFFCURVE",
"608 642 OFFCURVE",
"619 626 CURVE",
"564 535 OFFCURVE",
"510 441 OFFCURVE",
"458 343 CURVE",
"405 359 OFFCURVE",
"347 371 OFFCURVE",
"282 371 CURVE SMOOTH",
"139 371 OFFCURVE",
"50 312 OFFCURVE",
"-14 227 CURVE SMOOTH",
"-27 210 OFFCURVE",
"-38 188 OFFCURVE",
"-38 160 CURVE SMOOTH",
"-38 95 OFFCURVE",
"37 54 OFFCURVE",
"98 54 CURVE SMOOTH",
"151 54 OFFCURVE",
"200 86 OFFCURVE",
"200 139 CURVE SMOOTH",
"200 177 OFFCURVE",
"170 211 OFFCURVE",
"132 211 CURVE SMOOTH",
"97 211 OFFCURVE",
"67 183 OFFCURVE",
"67 148 CURVE SMOOTH",
"67 129 OFFCURVE",
"75 110 OFFCURVE",
"91 98 CURVE",
"50 102 OFFCURVE",
"28 135 OFFCURVE",
"28 172 CURVE SMOOTH",
"28 186 OFFCURVE",
"31 200 OFFCURVE",
"37 214 CURVE SMOOTH",
"69 285 OFFCURVE",
"137 334 OFFCURVE",
"235 334 CURVE SMOOTH",
"305 334 OFFCURVE",
"371 307 OFFCURVE",
"430 290 CURVE",
"398 229 OFFCURVE",
"364 168 OFFCURVE",
"326 113 CURVE SMOOTH",
"310 90 OFFCURVE",
"294 67 OFFCURVE",
"283 43 CURVE SMOOTH",
"276 27 OFFCURVE",
"271 11 OFFCURVE",
"264 -5 CURVE SMOOTH",
"247 -45 OFFCURVE",
"221 -77 OFFCURVE",
"193 -107 CURVE SMOOTH",
"185 -117 OFFCURVE",
"179 -125 OFFCURVE",
"179 -130 CURVE SMOOTH",
"179 -135 OFFCURVE",
"180 -137 OFFCURVE",
"185 -137 CURVE SMOOTH"
);
},
{
closed = 1;
nodes = (
"646 259 OFFCURVE",
"568 308 OFFCURVE",
"482 336 CURVE",
"529 430 OFFCURVE",
"580 522 OFFCURVE",
"634 607 CURVE",
"647 587 OFFCURVE",
"659 566 OFFCURVE",
"670 544 CURVE SMOOTH",
"719 449 OFFCURVE",
"771 360 OFFCURVE",
"829 275 CURVE",
"809 264 OFFCURVE",
"783 259 OFFCURVE",
"758 259 CURVE SMOOTH"
);
}
);
width = 1245;
}
);
},
{
glyphname = Aacute.med1;
lastChange = "2020-03-06 23:18:33 +0000";
layers = (
{
hints = (
{
horizontal = 1;
origin = "{0, 155}";
target = "{0, 167}";
type = Stem;
},
{
horizontal = 1;
origin = "{0, 29}";
target = "{1, 14}";
type = Stem;
},
{
horizontal = 1;
origin = "{0, 176}";
target = "{0, 146}";
type = Stem;
},
{
horizontal = 1;
origin = "{0, 107}";
target = "{0, 122}";
type = Stem;
},
{
horizontal = 1;
origin = "{0, 131}";
target = "{0, 98}";
type = Stem;
},
{
horizontal = 1;
origin = "{0, 86}";
target = down;
type = TopGhost;
},
{
horizontal = 1;
origin = "{0, 92}";
target = down;
type = TopGhost;
},
{
origin = "{0, 152}";
target = "{0, 170}";
type = Stem;
},
{
origin = "{0, 164}";
target = "{0, 158}";
type = Stem;
},
{
origin = "{0, 104}";
target = "{0, 125}";
type = Stem;
},
{
origin = "{0, 119}";
target = "{0, 110}";
type = Stem;
}
);
layerId = master01;
paths = (
{
closed = 1;
nodes = (
"191 -137 OFFCURVE",
"199 -131 OFFCURVE",
"210 -121 CURVE SMOOTH",
"222 -110 OFFCURVE",
"235 -99 OFFCURVE",
"247 -89 CURVE SMOOTH",
"269 -72 OFFCURVE",
"290 -38 OFFCURVE",
"326 -38 CURVE SMOOTH",
"343 -38 OFFCURVE",
"361 -46 OFFCURVE",
"380 -46 CURVE SMOOTH",
"396 -46 OFFCURVE",
"402 -42 OFFCURVE",
"402 -36 CURVE SMOOTH",
"402 -30 OFFCURVE",
"396 -22 OFFCURVE",
"388 -17 CURVE SMOOTH",
"364 -3 OFFCURVE",
"347 26 OFFCURVE",
"347 58 CURVE SMOOTH",
"347 96 OFFCURVE",
"366 127 OFFCURVE",
"383 152 CURVE SMOOTH",
"409 194 OFFCURVE",
"432 236 OFFCURVE",
"456 282 CURVE",
"534 256 OFFCURVE",
"608 217 OFFCURVE",
"709 217 CURVE SMOOTH",
"761 217 OFFCURVE",
"810 228 OFFCURVE",
"842 254 CURVE",
"880 198 OFFCURVE",
"919 141 OFFCURVE",
"956 85 CURVE SMOOTH",
"974 57 OFFCURVE",
"1000 29 OFFCURVE",
"1000 -14 CURVE SMOOTH",
"1000 -28 OFFCURVE",
"996 -41 OFFCURVE",
"990 -52 CURVE SMOOTH",
"985 -62 OFFCURVE",
"978 -67 OFFCURVE",
"978 -73 CURVE SMOOTH",
"978 -78 OFFCURVE",
"979 -82 OFFCURVE",
"984 -82 CURVE SMOOTH",
"988 -82 OFFCURVE",
"993 -78 OFFCURVE",
"1003 -73 CURVE SMOOTH",
"1072 -37 OFFCURVE",
"1154 -18 OFFCURVE",
"1232 11 CURVE SMOOTH",
"1245 16 OFFCURVE",
"1250 20 OFFCURVE",
"1250 25 CURVE SMOOTH",
"1250 29 OFFCURVE",
"1247 30 OFFCURVE",
"1242 30 CURVE SMOOTH",
"1240 30 OFFCURVE",
"1236 29 OFFCURVE",
"1231 28 CURVE SMOOTH",
"1224 26 OFFCURVE",
"1215 24 OFFCURVE",
"1207 24 CURVE SMOOTH",
"1182 24 OFFCURVE",
"1169 34 OFFCURVE",
"1159 50 CURVE SMOOTH",
"1141 78 OFFCURVE",
"1118 103 OFFCURVE",
"1099 131 CURVE SMOOTH",
"1071 169 OFFCURVE",
"1048 210 OFFCURVE",
"1024 251 CURVE SMOOTH",
"996 299 OFFCURVE",
"967 345 OFFCURVE",
"938 392 CURVE SMOOTH",
"894 465 OFFCURVE",
"852 540 OFFCURVE",
"806 612 CURVE SMOOTH",
"782 649 OFFCURVE",
"765 692 OFFCURVE",
"736 726 CURVE SMOOTH",
"726 737 OFFCURVE",
"716 742 OFFCURVE",
"706 742 CURVE SMOOTH",
"682 742 OFFCURVE",
"665 718 OFFCURVE",
"635 718 CURVE SMOOTH",
"623 718 OFFCURVE",
"607 719 OFFCURVE",
"596 719 CURVE SMOOTH",
"589 719 OFFCURVE",
"582 718 OFFCURVE",
"577 716 CURVE SMOOTH",
"567 711 OFFCURVE",
"559 709 OFFCURVE",
"542 709 CURVE SMOOTH",
"423 705 OFFCURVE",
"337 683 OFFCURVE",
"278 618 CURVE SMOOTH",
"262 601 OFFCURVE",
"245 580 OFFCURVE",
"245 550 CURVE SMOOTH",
"245 506 OFFCURVE",
"288 464 OFFCURVE",
"332 464 CURVE SMOOTH",
"373 464 OFFCURVE",
"409 503 OFFCURVE",
"409 544 CURVE SMOOTH",
"409 566 OFFCURVE",
"387 583 OFFCURVE",
"362 583 CURVE SMOOTH",
"348 583 OFFCURVE",
"344 571 OFFCURVE",
"344 554 CURVE SMOOTH",
"344 547 OFFCURVE",
"346 541 OFFCURVE",
"346 534 CURVE SMOOTH",
"346 515 OFFCURVE",
"337 494 OFFCURVE",
"320 494 CURVE SMOOTH",
"292 494 OFFCURVE",
"281 530 OFFCURVE",
"281 552 CURVE SMOOTH",
"281 572 OFFCURVE",
"288 593 OFFCURVE",
"300 607 CURVE SMOOTH",
"344 657 OFFCURVE",
"423 685 OFFCURVE",
"514 685 CURVE SMOOTH",
"526 685 OFFCURVE",
"539 685 OFFCURVE",
"551 683 CURVE SMOOTH",
"568 679 OFFCURVE",
"569 677 OFFCURVE",
"577 667 CURVE SMOOTH",
"590 653 OFFCURVE",
"608 642 OFFCURVE",
"619 626 CURVE",
"564 535 OFFCURVE",
"510 441 OFFCURVE",
"458 343 CURVE",
"405 359 OFFCURVE",
"347 371 OFFCURVE",
"282 371 CURVE SMOOTH",
"139 371 OFFCURVE",
"50 312 OFFCURVE",
"-14 227 CURVE SMOOTH",
"-27 210 OFFCURVE",
"-38 188 OFFCURVE",
"-38 160 CURVE SMOOTH",
"-38 95 OFFCURVE",
"37 54 OFFCURVE",
"98 54 CURVE SMOOTH",
"151 54 OFFCURVE",
"200 86 OFFCURVE",
"200 139 CURVE SMOOTH",
"200 177 OFFCURVE",
"170 211 OFFCURVE",
"132 211 CURVE SMOOTH",
"97 211 OFFCURVE",
"67 183 OFFCURVE",
"67 148 CURVE SMOOTH",
"67 129 OFFCURVE",
"75 110 OFFCURVE",
"91 98 CURVE",
"50 102 OFFCURVE",
"28 135 OFFCURVE",
"28 172 CURVE SMOOTH",
"28 186 OFFCURVE",
"31 200 OFFCURVE",
"37 214 CURVE SMOOTH",
"69 285 OFFCURVE",
"137 334 OFFCURVE",
"235 334 CURVE SMOOTH",
"305 334 OFFCURVE",
"371 307 OFFCURVE",
"430 290 CURVE",
"398 229 OFFCURVE",
"364 168 OFFCURVE",
"326 113 CURVE SMOOTH",
"310 90 OFFCURVE",
"294 67 OFFCURVE",
"283 43 CURVE SMOOTH",
"276 27 OFFCURVE",
"271 11 OFFCURVE",
"264 -5 CURVE SMOOTH",
"247 -45 OFFCURVE",
"221 -77 OFFCURVE",
"193 -107 CURVE SMOOTH",
"185 -117 OFFCURVE",
"179 -125 OFFCURVE",
"179 -130 CURVE SMOOTH",
"179 -135 OFFCURVE",
"180 -137 OFFCURVE",
"185 -137 CURVE SMOOTH"
);
},
{
closed = 1;
nodes = (
"646 259 OFFCURVE",
"568 308 OFFCURVE",
"482 336 CURVE",
"529 430 OFFCURVE",
"580 522 OFFCURVE",
"634 607 CURVE",
"647 587 OFFCURVE",
"659 566 OFFCURVE",
"670 544 CURVE SMOOTH",
"719 449 OFFCURVE",
"771 360 OFFCURVE",
"829 275 CURVE",
"809 264 OFFCURVE",
"783 259 OFFCURVE",
"758 259 CURVE SMOOTH"
);
},
{
closed = 1;
nodes = (
"512 815 OFFCURVE",
"515 815 OFFCURVE",
"517 816 CURVE SMOOTH",
"535 826 OFFCURVE",
"559 835 OFFCURVE",
"577 845 CURVE SMOOTH",
"605 859 OFFCURVE",
"637 871 OFFCURVE",
"666 883 CURVE SMOOTH",
"701 897 OFFCURVE",
"730 905 OFFCURVE",
"766 917 CURVE SMOOTH",
"768 918 OFFCURVE",
"769 920 OFFCURVE",
"769 922 CURVE SMOOTH",
"769 926 OFFCURVE",
"765 931 OFFCURVE",
"758 937 CURVE SMOOTH",
"750 943 OFFCURVE",
"739 947 OFFCURVE",
"732 947 CURVE SMOOTH",
"730 947 OFFCURVE",
"728 947 OFFCURVE",
"726 946 CURVE SMOOTH",
"700 936 OFFCURVE",
"677 926 OFFCURVE",
"642 910 CURVE SMOOTH",
"613 897 OFFCURVE",
"590 882 OFFCURVE",
"562 868 CURVE SMOOTH",
"544 858 OFFCURVE",
"521 848 OFFCURVE",
"503 838 CURVE SMOOTH",
"501 837 OFFCURVE",
"499 834 OFFCURVE",
"499 832 CURVE SMOOTH",
"499 828 OFFCURVE",
"501 824 OFFCURVE",
"503 820 CURVE SMOOTH",
"505 816 OFFCURVE",
"507 815 OFFCURVE",
"511 815 CURVE SMOOTH"
);
}
);
width = 1245;
}
);
},
{
glyphname = Acircumflex.med1;
lastChange = "2020-03-06 23:18:36 +0000";
layers = (
{
hints = (
{
horizontal = 1;
origin = "{0, 155}";
target = "{0, 167}";
type = Stem;
},
{
horizontal = 1;
origin = "{0, 29}";
target = "{1, 14}";
type = Stem;
},
{
horizontal = 1;
origin = "{0, 176}";
target = "{0, 146}";
type = Stem;
},
{
horizontal = 1;
origin = "{0, 107}";
target = "{0, 122}";
type = Stem;
},
{
horizontal = 1;
origin = "{0, 131}";
target = "{0, 98}";
type = Stem;
},
{
horizontal = 1;
origin = "{0, 86}";
target = down;
type = TopGhost;
},
{
horizontal = 1;
origin = "{0, 92}";
target = down;
type = TopGhost;
},
{
origin = "{0, 152}";
target = "{0, 170}";
type = Stem;
},
{
origin = "{0, 164}";
target = "{0, 158}";
type = Stem;
},
{
origin = "{0, 104}";
target = "{0, 125}";
type = Stem;
},
{
origin = "{0, 119}";
target = "{0, 110}";
type = Stem;
}
);
layerId = master01;
paths = (
{
closed = 1;
nodes = (
"191 -137 OFFCURVE",
"199 -131 OFFCURVE",
"210 -121 CURVE SMOOTH",
"222 -110 OFFCURVE",
"235 -99 OFFCURVE",
"247 -89 CURVE SMOOTH",
"269 -72 OFFCURVE",
"290 -38 OFFCURVE",
"326 -38 CURVE SMOOTH",
"343 -38 OFFCURVE",
"361 -46 OFFCURVE",
"380 -46 CURVE SMOOTH",
"396 -46 OFFCURVE",
"402 -42 OFFCURVE",
"402 -36 CURVE SMOOTH",
"402 -30 OFFCURVE",
"396 -22 OFFCURVE",
"388 -17 CURVE SMOOTH",
"364 -3 OFFCURVE",
"347 26 OFFCURVE",
"347 58 CURVE SMOOTH",
"347 96 OFFCURVE",
"366 127 OFFCURVE",
"383 152 CURVE SMOOTH",
"409 194 OFFCURVE",
"432 236 OFFCURVE",
"456 282 CURVE",
"534 256 OFFCURVE",
"608 217 OFFCURVE",
"709 217 CURVE SMOOTH",
"761 217 OFFCURVE",
"810 228 OFFCURVE",
"842 254 CURVE",
"880 198 OFFCURVE",
"919 141 OFFCURVE",
"956 85 CURVE SMOOTH",
"974 57 OFFCURVE",
"1000 29 OFFCURVE",
"1000 -14 CURVE SMOOTH",
"1000 -28 OFFCURVE",
"996 -41 OFFCURVE",
"990 -52 CURVE SMOOTH",
"985 -62 OFFCURVE",
"978 -67 OFFCURVE",
"978 -73 CURVE SMOOTH",
"978 -78 OFFCURVE",
"979 -82 OFFCURVE",
"984 -82 CURVE SMOOTH",
"988 -82 OFFCURVE",
"993 -78 OFFCURVE",
"1003 -73 CURVE SMOOTH",
"1072 -37 OFFCURVE",
"1154 -18 OFFCURVE",
"1232 11 CURVE SMOOTH",
"1245 16 OFFCURVE",
"1250 20 OFFCURVE",
"1250 25 CURVE SMOOTH",
"1250 29 OFFCURVE",
"1247 30 OFFCURVE",
"1242 30 CURVE SMOOTH",
"1240 30 OFFCURVE",
"1236 29 OFFCURVE",
"1231 28 CURVE SMOOTH",
"1224 26 OFFCURVE",
"1215 24 OFFCURVE",
"1207 24 CURVE SMOOTH",
"1182 24 OFFCURVE",
"1169 34 OFFCURVE",
"1159 50 CURVE SMOOTH",
"1141 78 OFFCURVE",
"1118 103 OFFCURVE",
"1099 131 CURVE SMOOTH",
"1071 169 OFFCURVE",
"1048 210 OFFCURVE",
"1024 251 CURVE SMOOTH",
"996 299 OFFCURVE",
"967 345 OFFCURVE",
"938 392 CURVE SMOOTH",
"894 465 OFFCURVE",
"852 540 OFFCURVE",
"806 612 CURVE SMOOTH",
"782 649 OFFCURVE",
"765 692 OFFCURVE",
"736 726 CURVE SMOOTH",
"726 737 OFFCURVE",
"716 742 OFFCURVE",
"706 742 CURVE SMOOTH",
"682 742 OFFCURVE",
"665 718 OFFCURVE",
"635 718 CURVE SMOOTH",
"623 718 OFFCURVE",
"607 719 OFFCURVE",
"596 719 CURVE SMOOTH",
"589 719 OFFCURVE",
"582 718 OFFCURVE",
"577 716 CURVE SMOOTH",
"567 711 OFFCURVE",
"559 709 OFFCURVE",
"542 709 CURVE SMOOTH",
"423 705 OFFCURVE",
"337 683 OFFCURVE",
"278 618 CURVE SMOOTH",
"262 601 OFFCURVE",
"245 580 OFFCURVE",
"245 550 CURVE SMOOTH",
"245 506 OFFCURVE",
"288 464 OFFCURVE",
"332 464 CURVE SMOOTH",
"373 464 OFFCURVE",
"409 503 OFFCURVE",
"409 544 CURVE SMOOTH",
"409 566 OFFCURVE",
"387 583 OFFCURVE",
"362 583 CURVE SMOOTH",
"348 583 OFFCURVE",
"344 571 OFFCURVE",
"344 554 CURVE SMOOTH",
"344 547 OFFCURVE",
"346 541 OFFCURVE",
"346 534 CURVE SMOOTH",
"346 515 OFFCURVE",
"337 494 OFFCURVE",
"320 494 CURVE SMOOTH",
"292 494 OFFCURVE",
"281 530 OFFCURVE",
"281 552 CURVE SMOOTH",
"281 572 OFFCURVE",
"288 593 OFFCURVE",
"300 607 CURVE SMOOTH",
"344 657 OFFCURVE",
"423 685 OFFCURVE",
"514 685 CURVE SMOOTH",
"526 685 OFFCURVE",
"539 685 OFFCURVE",
"551 683 CURVE SMOOTH",
"568 679 OFFCURVE",
"569 677 OFFCURVE",
"577 667 CURVE SMOOTH",
"590 653 OFFCURVE",
"608 642 OFFCURVE",
"619 626 CURVE",
"564 535 OFFCURVE",
"510 441 OFFCURVE",
"458 343 CURVE",
"405 359 OFFCURVE",
"347 371 OFFCURVE",
"282 371 CURVE SMOOTH",
"139 371 OFFCURVE",
"50 312 OFFCURVE",
"-14 227 CURVE SMOOTH",
"-27 210 OFFCURVE",
"-38 188 OFFCURVE",
"-38 160 CURVE SMOOTH",
"-38 95 OFFCURVE",
"37 54 OFFCURVE",
"98 54 CURVE SMOOTH",
"151 54 OFFCURVE",
"200 86 OFFCURVE",
"200 139 CURVE SMOOTH",
"200 177 OFFCURVE",
"170 211 OFFCURVE",
"132 211 CURVE SMOOTH",
"97 211 OFFCURVE",
"67 183 OFFCURVE",
"67 148 CURVE SMOOTH",
"67 129 OFFCURVE",
"75 110 OFFCURVE",
"91 98 CURVE",
"50 102 OFFCURVE",
"28 135 OFFCURVE",
"28 172 CURVE SMOOTH",
"28 186 OFFCURVE",
"31 200 OFFCURVE",
"37 214 CURVE SMOOTH",
"69 285 OFFCURVE",
"137 334 OFFCURVE",
"235 334 CURVE SMOOTH",
"305 334 OFFCURVE",
"371 307 OFFCURVE",
"430 290 CURVE",
"398 229 OFFCURVE",
"364 168 OFFCURVE",
"326 113 CURVE SMOOTH",
"310 90 OFFCURVE",
"294 67 OFFCURVE",
"283 43 CURVE SMOOTH",
"276 27 OFFCURVE",
"271 11 OFFCURVE",
"264 -5 CURVE SMOOTH",
"247 -45 OFFCURVE",
"221 -77 OFFCURVE",
"193 -107 CURVE SMOOTH",
"185 -117 OFFCURVE",
"179 -125 OFFCURVE",
"179 -130 CURVE SMOOTH",
"179 -135 OFFCURVE",
"180 -137 OFFCURVE",
"185 -137 CURVE SMOOTH"
);
},
{
closed = 1;
nodes = (
"646 259 OFFCURVE",
"568 308 OFFCURVE",
"482 336 CURVE",
"529 430 OFFCURVE",
"580 522 OFFCURVE",
"634 607 CURVE",
"647 587 OFFCURVE",
"659 566 OFFCURVE",
"670 544 CURVE SMOOTH",
"719 449 OFFCURVE",
"771 360 OFFCURVE",
"829 275 CURVE",
"809 264 OFFCURVE",
"783 259 OFFCURVE",
"758 259 CURVE SMOOTH"
);
},
{
closed = 1;
nodes = (
"565 847 OFFCURVE",
"580 861 OFFCURVE",
"608 889 CURVE SMOOTH",
"616 897 OFFCURVE",
"651 927 OFFCURVE",
"665 940 CURVE",
"683 926 OFFCURVE",
"718 892 OFFCURVE",
"732 878 CURVE SMOOTH",
"742 868 OFFCURVE",
"773 837 OFFCURVE",
"790 824 CURVE",
"806 834 OFFCURVE",
"822 842 OFFCURVE",
"834 846 CURVE",
"802 872 OFFCURVE",
"789 882 OFFCURVE",
"745 926 CURVE SMOOTH",
"726 945 OFFCURVE",
"710 965 OFFCURVE",
"692 983 CURVE",
"666 978 LINE",
"636 946 OFFCURVE",
"622 933 OFFCURVE",
"588 899 CURVE SMOOTH",
"545 853 OFFCURVE",
"529 845 OFFCURVE",
"515 832 CURVE",
"519 828 OFFCURVE",
"525 820 OFFCURVE",
"529 815 CURVE"
);
}
);
width = 1245;
}
);
},
{
glyphname = Adieresis.med1;
lastChange = "2020-03-06 23:18:39 +0000";
layers = (
{
hints = (
{
horizontal = 1;
origin = "{0, 155}";
target = "{0, 167}";
type = Stem;
},
{
horizontal = 1;
origin = "{0, 29}";
target = "{1, 14}";
type = Stem;
},
{
horizontal = 1;
origin = "{0, 176}";
target = "{0, 146}";
type = Stem;
},
{
horizontal = 1;
origin = "{0, 107}";
target = "{0, 122}";
type = Stem;
},
{
horizontal = 1;
origin = "{0, 131}";
target = "{0, 98}";
type = Stem;
},
{
horizontal = 1;
origin = "{0, 86}";
target = down;
type = TopGhost;
},
{
horizontal = 1;
origin = "{2, 11}";
target = "{2, 5}";
type = Stem;
},
{
horizontal = 1;
origin = "{0, 92}";
target = down;
type = TopGhost;
},
{
origin = "{0, 152}";
target = "{0, 170}";
type = Stem;
},
{
origin = "{0, 164}";
target = "{0, 158}";
type = Stem;
},
{
origin = "{0, 104}";
target = "{0, 125}";
type = Stem;
},
{
origin = "{0, 119}";
target = "{0, 110}";
type = Stem;
},
{
origin = "{2, 8}";
target = "{2, 2}";
type = Stem;
},
{
origin = "{3, 8}";
target = "{3, 2}";
type = Stem;
}
);
layerId = master01;
paths = (
{
closed = 1;
nodes = (
"191 -137 OFFCURVE",
"199 -131 OFFCURVE",
"210 -121 CURVE SMOOTH",
"222 -110 OFFCURVE",
"235 -99 OFFCURVE",
"247 -89 CURVE SMOOTH",
"269 -72 OFFCURVE",
"290 -38 OFFCURVE",
"326 -38 CURVE SMOOTH",
"343 -38 OFFCURVE",
"361 -46 OFFCURVE",
"380 -46 CURVE SMOOTH",
"396 -46 OFFCURVE",
"402 -42 OFFCURVE",
"402 -36 CURVE SMOOTH",
"402 -30 OFFCURVE",
"396 -22 OFFCURVE",
"388 -17 CURVE SMOOTH",
"364 -3 OFFCURVE",
"347 26 OFFCURVE",
"347 58 CURVE SMOOTH",
"347 96 OFFCURVE",
"366 127 OFFCURVE",
"383 152 CURVE SMOOTH",
"409 194 OFFCURVE",
"432 236 OFFCURVE",
"456 282 CURVE",
"534 256 OFFCURVE",
"608 217 OFFCURVE",
"709 217 CURVE SMOOTH",
"761 217 OFFCURVE",
"810 228 OFFCURVE",
"842 254 CURVE",
"880 198 OFFCURVE",
"919 141 OFFCURVE",
"956 85 CURVE SMOOTH",
"974 57 OFFCURVE",
"1000 29 OFFCURVE",
"1000 -14 CURVE SMOOTH",
"1000 -28 OFFCURVE",
"996 -41 OFFCURVE",
"990 -52 CURVE SMOOTH",
"985 -62 OFFCURVE",
"978 -67 OFFCURVE",
"978 -73 CURVE SMOOTH",
"978 -78 OFFCURVE",
"979 -82 OFFCURVE",
"984 -82 CURVE SMOOTH",
"988 -82 OFFCURVE",
"993 -78 OFFCURVE",
"1003 -73 CURVE SMOOTH",
"1072 -37 OFFCURVE",
"1154 -18 OFFCURVE",
"1232 11 CURVE SMOOTH",
"1245 16 OFFCURVE",
"1250 20 OFFCURVE",
"1250 25 CURVE SMOOTH",
"1250 29 OFFCURVE",
"1247 30 OFFCURVE",
"1242 30 CURVE SMOOTH",
"1240 30 OFFCURVE",
"1236 29 OFFCURVE",
"1231 28 CURVE SMOOTH",
"1224 26 OFFCURVE",
"1215 24 OFFCURVE",
"1207 24 CURVE SMOOTH",
"1182 24 OFFCURVE",
"1169 34 OFFCURVE",
"1159 50 CURVE SMOOTH",
"1141 78 OFFCURVE",
"1118 103 OFFCURVE",
"1099 131 CURVE SMOOTH",
"1071 169 OFFCURVE",
"1048 210 OFFCURVE",
"1024 251 CURVE SMOOTH",
"996 299 OFFCURVE",
"967 345 OFFCURVE",
"938 392 CURVE SMOOTH",
"894 465 OFFCURVE",
"852 540 OFFCURVE",
"806 612 CURVE SMOOTH",
"782 649 OFFCURVE",
"765 692 OFFCURVE",
"736 726 CURVE SMOOTH",
"726 737 OFFCURVE",
"716 742 OFFCURVE",
"706 742 CURVE SMOOTH",
"682 742 OFFCURVE",
"665 718 OFFCURVE",
"635 718 CURVE SMOOTH",
"623 718 OFFCURVE",
"607 719 OFFCURVE",
"596 719 CURVE SMOOTH",
"589 719 OFFCURVE",
"582 718 OFFCURVE",
"577 716 CURVE SMOOTH",
"567 711 OFFCURVE",
"559 709 OFFCURVE",
"542 709 CURVE SMOOTH",
"423 705 OFFCURVE",
"337 683 OFFCURVE",
"278 618 CURVE SMOOTH",
"262 601 OFFCURVE",
"245 580 OFFCURVE",
"245 550 CURVE SMOOTH",
"245 506 OFFCURVE",
"288 464 OFFCURVE",
"332 464 CURVE SMOOTH",
"373 464 OFFCURVE",
"409 503 OFFCURVE",
"409 544 CURVE SMOOTH",
"409 566 OFFCURVE",
"387 583 OFFCURVE",
"362 583 CURVE SMOOTH",
"348 583 OFFCURVE",
"344 571 OFFCURVE",
"344 554 CURVE SMOOTH",
"344 547 OFFCURVE",
"346 541 OFFCURVE",
"346 534 CURVE SMOOTH",
"346 515 OFFCURVE",
"337 494 OFFCURVE",
"320 494 CURVE SMOOTH",
"292 494 OFFCURVE",
"281 530 OFFCURVE",
"281 552 CURVE SMOOTH",
"281 572 OFFCURVE",
"288 593 OFFCURVE",
"300 607 CURVE SMOOTH",
"344 657 OFFCURVE",
"423 685 OFFCURVE",
"514 685 CURVE SMOOTH",
"526 685 OFFCURVE",
"539 685 OFFCURVE",
"551 683 CURVE SMOOTH",
"568 679 OFFCURVE",
"569 677 OFFCURVE",
"577 667 CURVE SMOOTH",
"590 653 OFFCURVE",
"608 642 OFFCURVE",
"619 626 CURVE",
"564 535 OFFCURVE",
"510 441 OFFCURVE",
"458 343 CURVE",
"405 359 OFFCURVE",
"347 371 OFFCURVE",
"282 371 CURVE SMOOTH",
"139 371 OFFCURVE",
"50 312 OFFCURVE",
"-14 227 CURVE SMOOTH",
"-27 210 OFFCURVE",
"-38 188 OFFCURVE",
"-38 160 CURVE SMOOTH",
"-38 95 OFFCURVE",
"37 54 OFFCURVE",
"98 54 CURVE SMOOTH",
"151 54 OFFCURVE",
"200 86 OFFCURVE",
"200 139 CURVE SMOOTH",
"200 177 OFFCURVE",
"170 211 OFFCURVE",
"132 211 CURVE SMOOTH",
"97 211 OFFCURVE",
"67 183 OFFCURVE",
"67 148 CURVE SMOOTH",
"67 129 OFFCURVE",
"75 110 OFFCURVE",
"91 98 CURVE",
"50 102 OFFCURVE",
"28 135 OFFCURVE",
"28 172 CURVE SMOOTH",
"28 186 OFFCURVE",
"31 200 OFFCURVE",
"37 214 CURVE SMOOTH",
"69 285 OFFCURVE",
"137 334 OFFCURVE",
"235 334 CURVE SMOOTH",
"305 334 OFFCURVE",
"371 307 OFFCURVE",
"430 290 CURVE",
"398 229 OFFCURVE",
"364 168 OFFCURVE",
"326 113 CURVE SMOOTH",
"310 90 OFFCURVE",
"294 67 OFFCURVE",
"283 43 CURVE SMOOTH",
"276 27 OFFCURVE",
"271 11 OFFCURVE",
"264 -5 CURVE SMOOTH",
"247 -45 OFFCURVE",
"221 -77 OFFCURVE",
"193 -107 CURVE SMOOTH",
"185 -117 OFFCURVE",
"179 -125 OFFCURVE",
"179 -130 CURVE SMOOTH",
"179 -135 OFFCURVE",
"180 -137 OFFCURVE",
"185 -137 CURVE SMOOTH"
);
},
{
closed = 1;
nodes = (
"646 259 OFFCURVE",
"568 308 OFFCURVE",
"482 336 CURVE",
"529 430 OFFCURVE",
"580 522 OFFCURVE",
"634 607 CURVE",
"647 587 OFFCURVE",
"659 566 OFFCURVE",
"670 544 CURVE SMOOTH",
"719 449 OFFCURVE",
"771 360 OFFCURVE",
"829 275 CURVE",
"809 264 OFFCURVE",
"783 259 OFFCURVE",
"758 259 CURVE SMOOTH"
);
},
{
closed = 1;
nodes = (
"590 853 OFFCURVE",
"608 878 OFFCURVE",
"608 894 CURVE SMOOTH",
"608 906 OFFCURVE",
"596 924 OFFCURVE",
"583 924 CURVE SMOOTH",
"570 924 OFFCURVE",
"544 901 OFFCURVE",
"544 884 CURVE SMOOTH",
"544 871 OFFCURVE",
"561 853 OFFCURVE",
"574 853 CURVE SMOOTH"
);
},
{
closed = 1;
nodes = (
"768 853 OFFCURVE",
"788 878 OFFCURVE",
"788 894 CURVE SMOOTH",
"788 906 OFFCURVE",
"776 924 OFFCURVE",
"763 924 CURVE SMOOTH",
"750 924 OFFCURVE",
"724 901 OFFCURVE",
"724 884 CURVE SMOOTH",
"724 871 OFFCURVE",
"739 853 OFFCURVE",
"752 853 CURVE SMOOTH"
);
}
);
width = 1245;
}
);
},
{
glyphname = Agrave.med1;
lastChange = "2020-03-06 23:20:52 +0000";
layers = (
{
hints = (
{
horizontal = 1;
origin = "{0, 167}";
target = "{0, 155}";
type = Stem;
},
{
horizontal = 1;
origin = "{1, 14}";
target = "{0, 29}";
type = Stem;
},
{
horizontal = 1;
origin = "{0, 146}";
target = "{0, 176}";
type = Stem;
},
{
horizontal = 1;
origin = "{0, 122}";
target = "{0, 107}";
type = Stem;
},
{
horizontal = 1;
origin = "{0, 98}";
target = "{0, 131}";
type = Stem;
},
{
horizontal = 1;
origin = "{0, 86}";
target = down;
type = TopGhost;
},
{
horizontal = 1;
origin = "{0, 92}";
target = down;
type = TopGhost;
},
{
origin = "{0, 152}";
target = "{0, 170}";
type = Stem;
},
{
origin = "{0, 164}";
target = "{0, 158}";
type = Stem;
},
{
origin = "{0, 104}";
target = "{0, 125}";
type = Stem;
},
{
origin = "{0, 119}";
target = "{0, 110}";
type = Stem;
}
);
layerId = master01;
paths = (
{
closed = 1;
nodes = (
"191 -137 OFFCURVE",
"199 -131 OFFCURVE",
"210 -121 CURVE SMOOTH",
"222 -110 OFFCURVE",
"235 -99 OFFCURVE",
"247 -89 CURVE SMOOTH",
"269 -72 OFFCURVE",
"290 -38 OFFCURVE",
"326 -38 CURVE SMOOTH",
"343 -38 OFFCURVE",
"361 -46 OFFCURVE",
"380 -46 CURVE SMOOTH",
"396 -46 OFFCURVE",
"402 -42 OFFCURVE",
"402 -36 CURVE SMOOTH",
"402 -30 OFFCURVE",
"396 -22 OFFCURVE",
"388 -17 CURVE SMOOTH",
"364 -3 OFFCURVE",
"347 26 OFFCURVE",
"347 58 CURVE SMOOTH",
"347 96 OFFCURVE",
"366 127 OFFCURVE",
"383 152 CURVE SMOOTH",
"409 194 OFFCURVE",
"432 236 OFFCURVE",
"456 282 CURVE",
"534 256 OFFCURVE",
"608 217 OFFCURVE",
"709 217 CURVE SMOOTH",
"761 217 OFFCURVE",
"810 228 OFFCURVE",
"842 254 CURVE",
"880 198 OFFCURVE",
"919 141 OFFCURVE",
"956 85 CURVE SMOOTH",
"974 57 OFFCURVE",
"1000 29 OFFCURVE",
"1000 -14 CURVE SMOOTH",
"1000 -28 OFFCURVE",
"996 -41 OFFCURVE",
"990 -52 CURVE SMOOTH",
"985 -62 OFFCURVE",
"978 -67 OFFCURVE",
"978 -73 CURVE SMOOTH",
"978 -78 OFFCURVE",
"979 -82 OFFCURVE",
"984 -82 CURVE SMOOTH",
"988 -82 OFFCURVE",
"993 -78 OFFCURVE",
"1003 -73 CURVE SMOOTH",
"1072 -37 OFFCURVE",
"1154 -18 OFFCURVE",
"1232 11 CURVE SMOOTH",
"1245 16 OFFCURVE",
"1250 20 OFFCURVE",
"1250 25 CURVE SMOOTH",
"1250 29 OFFCURVE",
"1247 30 OFFCURVE",
"1242 30 CURVE SMOOTH",
"1240 30 OFFCURVE",
"1236 29 OFFCURVE",
"1231 28 CURVE SMOOTH",
"1224 26 OFFCURVE",
"1215 24 OFFCURVE",
"1207 24 CURVE SMOOTH",
"1182 24 OFFCURVE",
"1169 34 OFFCURVE",
"1159 50 CURVE SMOOTH",
"1141 78 OFFCURVE",
"1118 103 OFFCURVE",
"1099 131 CURVE SMOOTH",
"1071 169 OFFCURVE",
"1048 210 OFFCURVE",
"1024 251 CURVE SMOOTH",
"996 299 OFFCURVE",
"967 345 OFFCURVE",
"938 392 CURVE SMOOTH",
"894 465 OFFCURVE",
"852 540 OFFCURVE",
"806 612 CURVE SMOOTH",
"782 649 OFFCURVE",
"765 692 OFFCURVE",
"736 726 CURVE SMOOTH",
"726 737 OFFCURVE",
"716 742 OFFCURVE",
"706 742 CURVE SMOOTH",
"682 742 OFFCURVE",
"665 718 OFFCURVE",
"635 718 CURVE SMOOTH",
"623 718 OFFCURVE",
"607 719 OFFCURVE",
"596 719 CURVE SMOOTH",
"589 719 OFFCURVE",
"582 718 OFFCURVE",
"577 716 CURVE SMOOTH",
"567 711 OFFCURVE",
"559 709 OFFCURVE",
"542 709 CURVE SMOOTH",
"423 705 OFFCURVE",
"337 683 OFFCURVE",
"278 618 CURVE SMOOTH",
"262 601 OFFCURVE",
"245 580 OFFCURVE",
"245 550 CURVE SMOOTH",
"245 506 OFFCURVE",
"288 464 OFFCURVE",
"332 464 CURVE SMOOTH",
"373 464 OFFCURVE",
"409 503 OFFCURVE",
"409 544 CURVE SMOOTH",
"409 566 OFFCURVE",
"387 583 OFFCURVE",
"362 583 CURVE SMOOTH",
"348 583 OFFCURVE",
"344 571 OFFCURVE",
"344 554 CURVE SMOOTH",
"344 547 OFFCURVE",
"346 541 OFFCURVE",
"346 534 CURVE SMOOTH",
"346 515 OFFCURVE",
"337 494 OFFCURVE",
"320 494 CURVE SMOOTH",
"292 494 OFFCURVE",
"281 530 OFFCURVE",
"281 552 CURVE SMOOTH",
"281 572 OFFCURVE",
"288 593 OFFCURVE",
"300 607 CURVE SMOOTH",
"344 657 OFFCURVE",
"423 685 OFFCURVE",
"514 685 CURVE SMOOTH",
"526 685 OFFCURVE",
"539 685 OFFCURVE",
"551 683 CURVE SMOOTH",
"568 679 OFFCURVE",
"569 677 OFFCURVE",
"577 667 CURVE SMOOTH",
"590 653 OFFCURVE",
"608 642 OFFCURVE",
"619 626 CURVE",
"564 535 OFFCURVE",
"510 441 OFFCURVE",
"458 343 CURVE",
"405 359 OFFCURVE",
"347 371 OFFCURVE",
"282 371 CURVE SMOOTH",
"139 371 OFFCURVE",
"50 312 OFFCURVE",
"-14 227 CURVE SMOOTH",
"-27 210 OFFCURVE",
"-38 188 OFFCURVE",
"-38 160 CURVE SMOOTH",
"-38 95 OFFCURVE",
"37 54 OFFCURVE",
"98 54 CURVE SMOOTH",
"151 54 OFFCURVE",
"200 86 OFFCURVE",
"200 139 CURVE SMOOTH",
"200 177 OFFCURVE",
"170 211 OFFCURVE",
"132 211 CURVE SMOOTH",
"97 211 OFFCURVE",
"67 183 OFFCURVE",
"67 148 CURVE SMOOTH",
"67 129 OFFCURVE",
"75 110 OFFCURVE",
"91 98 CURVE",
"50 102 OFFCURVE",
"28 135 OFFCURVE",
"28 172 CURVE SMOOTH",
"28 186 OFFCURVE",
"31 200 OFFCURVE",
"37 214 CURVE SMOOTH",
"69 285 OFFCURVE",
"137 334 OFFCURVE",
"235 334 CURVE SMOOTH",
"305 334 OFFCURVE",
"371 307 OFFCURVE",
"430 290 CURVE",
"398 229 OFFCURVE",
"364 168 OFFCURVE",
"326 113 CURVE SMOOTH",
"310 90 OFFCURVE",
"294 67 OFFCURVE",
"283 43 CURVE SMOOTH",
"276 27 OFFCURVE",
"271 11 OFFCURVE",
"264 -5 CURVE SMOOTH",
"247 -45 OFFCURVE",
"221 -77 OFFCURVE",
"193 -107 CURVE SMOOTH",
"185 -117 OFFCURVE",
"179 -125 OFFCURVE",
"179 -130 CURVE SMOOTH",
"179 -135 OFFCURVE",
"180 -137 OFFCURVE",
"185 -137 CURVE SMOOTH"
);
},
{
closed = 1;
nodes = (
"646 259 OFFCURVE",
"568 308 OFFCURVE",
"482 336 CURVE",
"529 430 OFFCURVE",
"580 522 OFFCURVE",
"634 607 CURVE",
"647 587 OFFCURVE",
"659 566 OFFCURVE",
"670 544 CURVE SMOOTH",
"719 449 OFFCURVE",
"771 360 OFFCURVE",
"829 275 CURVE",
"809 264 OFFCURVE",
"783 259 OFFCURVE",
"758 259 CURVE SMOOTH"
);
},
{
closed = 1;
nodes = (
"755 791 OFFCURVE",
"758 792 OFFCURVE",
"760 796 CURVE SMOOTH",
"762 800 OFFCURVE",
"763 804 OFFCURVE",
"763 808 CURVE SMOOTH",
"763 810 OFFCURVE",
"762 813 OFFCURVE",
"760 814 CURVE SMOOTH",
"742 824 OFFCURVE",
"719 834 OFFCURVE",
"701 844 CURVE SMOOTH",
"673 858 OFFCURVE",
"649 873 OFFCURVE",
"620 886 CURVE SMOOTH",
"585 902 OFFCURVE",
"562 912 OFFCURVE",
"536 922 CURVE SMOOTH",
"534 923 OFFCURVE",
"532 923 OFFCURVE",
"530 923 CURVE SMOOTH",
"523 923 OFFCURVE",
"512 919 OFFCURVE",
"504 913 CURVE SMOOTH",
"497 907 OFFCURVE",
"493 902 OFFCURVE",
"493 898 CURVE SMOOTH",
"493 896 OFFCURVE",
"495 894 OFFCURVE",
"497 893 CURVE SMOOTH",
"533 881 OFFCURVE",
"561 873 OFFCURVE",
"596 859 CURVE SMOOTH",
"625 847 OFFCURVE",
"657 835 OFFCURVE",
"685 821 CURVE SMOOTH",
"703 811 OFFCURVE",
"727 802 OFFCURVE",
"745 792 CURVE SMOOTH",
"747 791 OFFCURVE",
"750 791 OFFCURVE",
"751 791 CURVE SMOOTH"
);
}
);
width = 1245;
}
);
},
{
glyphname = Amacron.med1;
lastChange = "2020-03-06 23:18:46 +0000";
layers = (
{
hints = (
{
horizontal = 1;
origin = "{0, 155}";
target = "{0, 167}";
type = Stem;
},
{
horizontal = 1;
origin = "{0, 29}";
target = "{1, 14}";
type = Stem;
},
{
horizontal = 1;
origin = "{0, 176}";
target = "{0, 146}";
type = Stem;
},
{
horizontal = 1;
origin = "{0, 107}";
target = "{0, 122}";
type = Stem;
},
{
horizontal = 1;
origin = "{0, 131}";
target = "{0, 98}";
type = Stem;
},
{
horizontal = 1;
origin = "{0, 86}";
target = down;
type = TopGhost;
},
{
horizontal = 1;
origin = "{2, 43}";
target = "{2, 24}";
type = Stem;
},
{
horizontal = 1;
origin = "{2, 5}";
target = "{2, 18}";
type = Stem;
},
{
horizontal = 1;
origin = "{2, 8}";
target = "{2, 18}";
type = Stem;
},
{
horizontal = 1;
origin = "{0, 92}";
target = down;
type = TopGhost;
},
{
origin = "{0, 152}";
target = "{0, 170}";
type = Stem;
},
{
origin = "{0, 164}";
target = "{0, 158}";
type = Stem;
},
{
origin = "{0, 104}";
target = "{0, 125}";
type = Stem;
},
{
origin = "{0, 119}";
target = "{0, 110}";
type = Stem;
}
);
layerId = master01;
paths = (
{
closed = 1;
nodes = (
"191 -137 OFFCURVE",
"199 -131 OFFCURVE",
"210 -121 CURVE SMOOTH",
"222 -110 OFFCURVE",
"235 -99 OFFCURVE",
"247 -89 CURVE SMOOTH",
"269 -72 OFFCURVE",
"290 -38 OFFCURVE",
"326 -38 CURVE SMOOTH",
"343 -38 OFFCURVE",
"361 -46 OFFCURVE",
"380 -46 CURVE SMOOTH",
"396 -46 OFFCURVE",
"402 -42 OFFCURVE",
"402 -36 CURVE SMOOTH",
"402 -30 OFFCURVE",
"396 -22 OFFCURVE",
"388 -17 CURVE SMOOTH",
"364 -3 OFFCURVE",
"347 26 OFFCURVE",
"347 58 CURVE SMOOTH",
"347 96 OFFCURVE",
"366 127 OFFCURVE",
"383 152 CURVE SMOOTH",
"409 194 OFFCURVE",
"432 236 OFFCURVE",
"456 282 CURVE",
"534 256 OFFCURVE",
"608 217 OFFCURVE",
"709 217 CURVE SMOOTH",
"761 217 OFFCURVE",
"810 228 OFFCURVE",
"842 254 CURVE",
"880 198 OFFCURVE",
"919 141 OFFCURVE",
"956 85 CURVE SMOOTH",
"974 57 OFFCURVE",
"1000 29 OFFCURVE",
"1000 -14 CURVE SMOOTH",
"1000 -28 OFFCURVE",
"996 -41 OFFCURVE",
"990 -52 CURVE SMOOTH",
"985 -62 OFFCURVE",
"978 -67 OFFCURVE",
"978 -73 CURVE SMOOTH",
"978 -78 OFFCURVE",
"979 -82 OFFCURVE",
"984 -82 CURVE SMOOTH",
"988 -82 OFFCURVE",
"993 -78 OFFCURVE",
"1003 -73 CURVE SMOOTH",
"1072 -37 OFFCURVE",
"1154 -18 OFFCURVE",
"1232 11 CURVE SMOOTH",
"1245 16 OFFCURVE",
"1250 20 OFFCURVE",
"1250 25 CURVE SMOOTH",
"1250 29 OFFCURVE",
"1247 30 OFFCURVE",
"1242 30 CURVE SMOOTH",
"1240 30 OFFCURVE",
"1236 29 OFFCURVE",
"1231 28 CURVE SMOOTH",
"1224 26 OFFCURVE",
"1215 24 OFFCURVE",
"1207 24 CURVE SMOOTH",
"1182 24 OFFCURVE",
"1169 34 OFFCURVE",
"1159 50 CURVE SMOOTH",
"1141 78 OFFCURVE",
"1118 103 OFFCURVE",
"1099 131 CURVE SMOOTH",
"1071 169 OFFCURVE",
"1048 210 OFFCURVE",
"1024 251 CURVE SMOOTH",
"996 299 OFFCURVE",
"967 345 OFFCURVE",
"938 392 CURVE SMOOTH",
"894 465 OFFCURVE",
"852 540 OFFCURVE",
"806 612 CURVE SMOOTH",
"782 649 OFFCURVE",
"765 692 OFFCURVE",
"736 726 CURVE SMOOTH",
"726 737 OFFCURVE",
"716 742 OFFCURVE",
"706 742 CURVE SMOOTH",
"682 742 OFFCURVE",
"665 718 OFFCURVE",
"635 718 CURVE SMOOTH",
"623 718 OFFCURVE",
"607 719 OFFCURVE",
"596 719 CURVE SMOOTH",
"589 719 OFFCURVE",
"582 718 OFFCURVE",
"577 716 CURVE SMOOTH",
"567 711 OFFCURVE",
"559 709 OFFCURVE",
"542 709 CURVE SMOOTH",
"423 705 OFFCURVE",
"337 683 OFFCURVE",
"278 618 CURVE SMOOTH",
"262 601 OFFCURVE",
"245 580 OFFCURVE",
"245 550 CURVE SMOOTH",
"245 506 OFFCURVE",
"288 464 OFFCURVE",
"332 464 CURVE SMOOTH",
"373 464 OFFCURVE",
"409 503 OFFCURVE",
"409 544 CURVE SMOOTH",
"409 566 OFFCURVE",
"387 583 OFFCURVE",
"362 583 CURVE SMOOTH",
"348 583 OFFCURVE",
"344 571 OFFCURVE",
"344 554 CURVE SMOOTH",
"344 547 OFFCURVE",
"346 541 OFFCURVE",
"346 534 CURVE SMOOTH",
"346 515 OFFCURVE",
"337 494 OFFCURVE",
"320 494 CURVE SMOOTH",
"292 494 OFFCURVE",
"281 530 OFFCURVE",
"281 552 CURVE SMOOTH",
"281 572 OFFCURVE",
"288 593 OFFCURVE",
"300 607 CURVE SMOOTH",
"344 657 OFFCURVE",
"423 685 OFFCURVE",
"514 685 CURVE SMOOTH",
"526 685 OFFCURVE",
"539 685 OFFCURVE",
"551 683 CURVE SMOOTH",
"568 679 OFFCURVE",
"569 677 OFFCURVE",
"577 667 CURVE SMOOTH",
"590 653 OFFCURVE",
"608 642 OFFCURVE",
"619 626 CURVE",
"564 535 OFFCURVE",
"510 441 OFFCURVE",
"458 343 CURVE",
"405 359 OFFCURVE",
"347 371 OFFCURVE",
"282 371 CURVE SMOOTH",
"139 371 OFFCURVE",
"50 312 OFFCURVE",
"-14 227 CURVE SMOOTH",
"-27 210 OFFCURVE",
"-38 188 OFFCURVE",
"-38 160 CURVE SMOOTH",
"-38 95 OFFCURVE",
"37 54 OFFCURVE",
"98 54 CURVE SMOOTH",
"151 54 OFFCURVE",
"200 86 OFFCURVE",
"200 139 CURVE SMOOTH",
"200 177 OFFCURVE",
"170 211 OFFCURVE",
"132 211 CURVE SMOOTH",
"97 211 OFFCURVE",
"67 183 OFFCURVE",
"67 148 CURVE SMOOTH",
"67 129 OFFCURVE",
"75 110 OFFCURVE",
"91 98 CURVE",
"50 102 OFFCURVE",
"28 135 OFFCURVE",
"28 172 CURVE SMOOTH",
"28 186 OFFCURVE",
"31 200 OFFCURVE",
"37 214 CURVE SMOOTH",
"69 285 OFFCURVE",
"137 334 OFFCURVE",
"235 334 CURVE SMOOTH",
"305 334 OFFCURVE",
"371 307 OFFCURVE",
"430 290 CURVE",
"398 229 OFFCURVE",
"364 168 OFFCURVE",
"326 113 CURVE SMOOTH",
"310 90 OFFCURVE",
"294 67 OFFCURVE",
"283 43 CURVE SMOOTH",
"276 27 OFFCURVE",
"271 11 OFFCURVE",
"264 -5 CURVE SMOOTH",
"247 -45 OFFCURVE",
"221 -77 OFFCURVE",
"193 -107 CURVE SMOOTH",
"185 -117 OFFCURVE",
"179 -125 OFFCURVE",
"179 -130 CURVE SMOOTH",
"179 -135 OFFCURVE",
"180 -137 OFFCURVE",
"185 -137 CURVE SMOOTH"
);
},
{
closed = 1;
nodes = (
"646 259 OFFCURVE",
"568 308 OFFCURVE",
"482 336 CURVE",
"529 430 OFFCURVE",
"580 522 OFFCURVE",
"634 607 CURVE",
"647 587 OFFCURVE",
"659 566 OFFCURVE",
"670 544 CURVE SMOOTH",
"719 449 OFFCURVE",
"771 360 OFFCURVE",
"829 275 CURVE",
"809 264 OFFCURVE",
"783 259 OFFCURVE",
"758 259 CURVE SMOOTH"
);
},
{
closed = 1;
nodes = (
"618 862 OFFCURVE",
"639 869 OFFCURVE",
"658 876 CURVE SMOOTH",
"676 883 OFFCURVE",
"695 895 OFFCURVE",
"718 895 CURVE SMOOTH",
"749 895 OFFCURVE",
"766 866 OFFCURVE",
"794 866 CURVE SMOOTH",
"802 866 OFFCURVE",
"810 871 OFFCURVE",
"818 877 CURVE SMOOTH",
"840 893 LINE SMOOTH",
"846 898 OFFCURVE",
"850 903 OFFCURVE",
"850 908 CURVE SMOOTH",
"850 927 OFFCURVE",
"798 932 OFFCURVE",
"775 932 CURVE SMOOTH",
"750 932 OFFCURVE",
"723 926 OFFCURVE",
"698 919 CURVE SMOOTH",
"677 913 OFFCURVE",
"656 910 OFFCURVE",
"637 910 CURVE SMOOTH",
"620 910 OFFCURVE",
"603 913 OFFCURVE",
"589 923 CURVE SMOOTH",
"578 930 OFFCURVE",
"561 949 OFFCURVE",
"547 949 CURVE SMOOTH",
"540 949 OFFCURVE",
"532 946 OFFCURVE",
"524 940 CURVE SMOOTH",
"510 929 LINE SMOOTH",
"502 923 OFFCURVE",
"497 914 OFFCURVE",
"497 906 CURVE SMOOTH",
"497 901 OFFCURVE",
"499 897 OFFCURVE",
"504 892 CURVE SMOOTH",
"523 873 OFFCURVE",
"555 862 OFFCURVE",
"590 862 CURVE SMOOTH"
);
}
);
width = 1245;
}
);
},
{
glyphname = Atilde.med1;
lastChange = "2020-03-06 23:20:34 +0000";
layers = (
{
hints = (
{
horizontal = 1;
origin = "{0, 167}";
target = "{0, 155}";
type = Stem;
},
{
horizontal = 1;
origin = "{1, 14}";
target = "{0, 29}";
type = Stem;
},
{
horizontal = 1;
origin = "{0, 146}";
target = "{0, 176}";
type = Stem;
},
{
horizontal = 1;
origin = "{0, 122}";
target = "{0, 107}";
type = Stem;
},
{
horizontal = 1;
origin = "{0, 98}";
target = "{0, 131}";
type = Stem;
},
{
horizontal = 1;
origin = "{0, 86}";
target = down;
type = TopGhost;
},
{
horizontal = 1;
origin = "{2, 50}";
target = "{2, 20}";
type = Stem;
},
{
horizontal = 1;
origin = "{2, 44}";
target = "{2, 26}";
type = Stem;
},
{
horizontal = 1;
origin = "{0, 92}";
target = down;
type = TopGhost;
},
{
origin = "{0, 152}";
target = "{0, 170}";
type = Stem;
},
{
origin = "{0, 164}";
target = "{0, 158}";
type = Stem;
},
{
origin = "{0, 104}";
target = "{0, 125}";
type = Stem;
},
{
origin = "{0, 119}";
target = "{0, 110}";
type = Stem;
}
);
layerId = master01;
paths = (
{
closed = 1;
nodes = (
"191 -137 OFFCURVE",
"199 -131 OFFCURVE",
"210 -121 CURVE SMOOTH",
"222 -110 OFFCURVE",
"235 -99 OFFCURVE",
"247 -89 CURVE SMOOTH",
"269 -72 OFFCURVE",
"290 -38 OFFCURVE",
"326 -38 CURVE SMOOTH",
"343 -38 OFFCURVE",
"361 -46 OFFCURVE",
"380 -46 CURVE SMOOTH",
"396 -46 OFFCURVE",
"402 -42 OFFCURVE",
"402 -36 CURVE SMOOTH",
"402 -30 OFFCURVE",
"396 -22 OFFCURVE",
"388 -17 CURVE SMOOTH",
"364 -3 OFFCURVE",
"347 26 OFFCURVE",
"347 58 CURVE SMOOTH",
"347 96 OFFCURVE",
"366 127 OFFCURVE",
"383 152 CURVE SMOOTH",
"409 194 OFFCURVE",
"432 236 OFFCURVE",
"456 282 CURVE",
"534 256 OFFCURVE",
"608 217 OFFCURVE",
"709 217 CURVE SMOOTH",
"761 217 OFFCURVE",
"810 228 OFFCURVE",
"842 254 CURVE",
"880 198 OFFCURVE",
"919 141 OFFCURVE",
"956 85 CURVE SMOOTH",
"974 57 OFFCURVE",
"1000 29 OFFCURVE",
"1000 -14 CURVE SMOOTH",
"1000 -28 OFFCURVE",
"996 -41 OFFCURVE",
"990 -52 CURVE SMOOTH",
"985 -62 OFFCURVE",
"978 -67 OFFCURVE",
"978 -73 CURVE SMOOTH",
"978 -78 OFFCURVE",
"979 -82 OFFCURVE",
"984 -82 CURVE SMOOTH",
"988 -82 OFFCURVE",
"993 -78 OFFCURVE",
"1003 -73 CURVE SMOOTH",
"1072 -37 OFFCURVE",
"1154 -18 OFFCURVE",
"1232 11 CURVE SMOOTH",
"1245 16 OFFCURVE",
"1250 20 OFFCURVE",
"1250 25 CURVE SMOOTH",
"1250 29 OFFCURVE",
"1247 30 OFFCURVE",
"1242 30 CURVE SMOOTH",
"1240 30 OFFCURVE",
"1236 29 OFFCURVE",
"1231 28 CURVE SMOOTH",
"1224 26 OFFCURVE",
"1215 24 OFFCURVE",
"1207 24 CURVE SMOOTH",
"1182 24 OFFCURVE",
"1169 34 OFFCURVE",
"1159 50 CURVE SMOOTH",
"1141 78 OFFCURVE",
"1118 103 OFFCURVE",
"1099 131 CURVE SMOOTH",
"1071 169 OFFCURVE",
"1048 210 OFFCURVE",
"1024 251 CURVE SMOOTH",
"996 299 OFFCURVE",
"967 345 OFFCURVE",
"938 392 CURVE SMOOTH",
"894 465 OFFCURVE",
"852 540 OFFCURVE",
"806 612 CURVE SMOOTH",
"782 649 OFFCURVE",
"765 692 OFFCURVE",
"736 726 CURVE SMOOTH",
"726 737 OFFCURVE",
"716 742 OFFCURVE",
"706 742 CURVE SMOOTH",
"682 742 OFFCURVE",
"665 718 OFFCURVE",
"635 718 CURVE SMOOTH",
"623 718 OFFCURVE",
"607 719 OFFCURVE",
"596 719 CURVE SMOOTH",
"589 719 OFFCURVE",
"582 718 OFFCURVE",
"577 716 CURVE SMOOTH",
"567 711 OFFCURVE",
"559 709 OFFCURVE",
"542 709 CURVE SMOOTH",
"423 705 OFFCURVE",
"337 683 OFFCURVE",
"278 618 CURVE SMOOTH",
"262 601 OFFCURVE",
"245 580 OFFCURVE",
"245 550 CURVE SMOOTH",
"245 506 OFFCURVE",
"288 464 OFFCURVE",
"332 464 CURVE SMOOTH",
"373 464 OFFCURVE",
"409 503 OFFCURVE",
"409 544 CURVE SMOOTH",
"409 566 OFFCURVE",
"387 583 OFFCURVE",
"362 583 CURVE SMOOTH",
"348 583 OFFCURVE",
"344 571 OFFCURVE",
"344 554 CURVE SMOOTH",
"344 547 OFFCURVE",
"346 541 OFFCURVE",
"346 534 CURVE SMOOTH",
"346 515 OFFCURVE",
"337 494 OFFCURVE",
"320 494 CURVE SMOOTH",
"292 494 OFFCURVE",
"281 530 OFFCURVE",
"281 552 CURVE SMOOTH",
"281 572 OFFCURVE",
"288 593 OFFCURVE",
"300 607 CURVE SMOOTH",
"344 657 OFFCURVE",
"423 685 OFFCURVE",
"514 685 CURVE SMOOTH",
"526 685 OFFCURVE",
"539 685 OFFCURVE",
"551 683 CURVE SMOOTH",
"568 679 OFFCURVE",
"569 677 OFFCURVE",
"577 667 CURVE SMOOTH",
"590 653 OFFCURVE",
"608 642 OFFCURVE",
"619 626 CURVE",
"564 535 OFFCURVE",
"510 441 OFFCURVE",
"458 343 CURVE",
"405 359 OFFCURVE",
"347 371 OFFCURVE",
"282 371 CURVE SMOOTH",
"139 371 OFFCURVE",
"50 312 OFFCURVE",
"-14 227 CURVE SMOOTH",
"-27 210 OFFCURVE",
"-38 188 OFFCURVE",
"-38 160 CURVE SMOOTH",
"-38 95 OFFCURVE",
"37 54 OFFCURVE",
"98 54 CURVE SMOOTH",
"151 54 OFFCURVE",
"200 86 OFFCURVE",
"200 139 CURVE SMOOTH",
"200 177 OFFCURVE",
"170 211 OFFCURVE",
"132 211 CURVE SMOOTH",
"97 211 OFFCURVE",
"67 183 OFFCURVE",
"67 148 CURVE SMOOTH",
"67 129 OFFCURVE",
"75 110 OFFCURVE",
"91 98 CURVE",
"50 102 OFFCURVE",
"28 135 OFFCURVE",
"28 172 CURVE SMOOTH",
"28 186 OFFCURVE",
"31 200 OFFCURVE",
"37 214 CURVE SMOOTH",
"69 285 OFFCURVE",
"137 334 OFFCURVE",
"235 334 CURVE SMOOTH",
"305 334 OFFCURVE",
"371 307 OFFCURVE",
"430 290 CURVE",
"398 229 OFFCURVE",
"364 168 OFFCURVE",
"326 113 CURVE SMOOTH",
"310 90 OFFCURVE",
"294 67 OFFCURVE",
"283 43 CURVE SMOOTH",
"276 27 OFFCURVE",
"271 11 OFFCURVE",
"264 -5 CURVE SMOOTH",
"247 -45 OFFCURVE",
"221 -77 OFFCURVE",
"193 -107 CURVE SMOOTH",
"185 -117 OFFCURVE",
"179 -125 OFFCURVE",
"179 -130 CURVE SMOOTH",
"179 -135 OFFCURVE",
"180 -137 OFFCURVE",
"185 -137 CURVE SMOOTH"
);
},
{
closed = 1;
nodes = (
"646 259 OFFCURVE",
"568 308 OFFCURVE",
"482 336 CURVE",
"529 430 OFFCURVE",
"580 522 OFFCURVE",
"634 607 CURVE",
"647 587 OFFCURVE",
"659 566 OFFCURVE",
"670 544 CURVE SMOOTH",
"719 449 OFFCURVE",
"771 360 OFFCURVE",
"829 275 CURVE",
"809 264 OFFCURVE",
"783 259 OFFCURVE",
"758 259 CURVE SMOOTH"
);
},
{
closed = 1;
nodes = (
"700 836 OFFCURVE",
"740 863 OFFCURVE",
"764 873 CURVE SMOOTH",
"771 877 OFFCURVE",
"780 882 OFFCURVE",
"785 887 CURVE SMOOTH",
"789 891 OFFCURVE",
"791 894 OFFCURVE",
"791 898 CURVE SMOOTH",
"791 902 OFFCURVE",
"788 903 OFFCURVE",
"783 903 CURVE SMOOTH",
"779 903 OFFCURVE",
"774 901 OFFCURVE",
"769 899 CURVE SMOOTH",
"747 889 OFFCURVE",
"729 879 OFFCURVE",
"715 873 CURVE SMOOTH",
"708 871 OFFCURVE",
"702 869 OFFCURVE",
"696 869 CURVE SMOOTH",
"672 869 OFFCURVE",
"657 890 OFFCURVE",
"638 900 CURVE SMOOTH",
"628 905 OFFCURVE",
"619 908 OFFCURVE",
"609 908 CURVE SMOOTH",
"573 908 OFFCURVE",
"534 881 OFFCURVE",
"511 870 CURVE SMOOTH",
"498 864 OFFCURVE",
"488 854 OFFCURVE",
"488 848 CURVE SMOOTH",
"488 844 OFFCURVE",
"490 843 OFFCURVE",
"495 843 CURVE SMOOTH",
"500 843 OFFCURVE",
"506 844 OFFCURVE",
"512 848 CURVE SMOOTH",
"531 858 OFFCURVE",
"547 864 OFFCURVE",
"560 870 CURVE SMOOTH",
"566 872 OFFCURVE",
"572 874 OFFCURVE",
"577 874 CURVE SMOOTH",
"601 874 OFFCURVE",
"616 853 OFFCURVE",
"635 843 CURVE SMOOTH",
"645 838 OFFCURVE",
"653 836 OFFCURVE",
"663 836 CURVE SMOOTH"
);
}
);
width = 1245;
}
);
},
{
glyphname = B.med1;
lastChange = "2020-03-06 23:18:52 +0000";
layers = (
{
hints = (
{
horizontal = 1;
origin = "{0, 80}";
target = "{1, 34}";
type = Stem;
},
{
horizontal = 1;
origin = "{0, 11}";
target = up;
type = BottomGhost;
},
{
horizontal = 1;
origin = "{1, 15}";
target = "{0, 17}";
type = Stem;
},
{
horizontal = 1;
origin = "{0, 35}";
target = "{0, 41}";
type = Stem;
},
{
horizontal = 1;
origin = "{0, 47}";
target = "{0, 23}";
type = Stem;
},
{
horizontal = 1;
origin = "{0, 11}";
target = "{1, 28}";
type = Stem;
},
{
origin = "{0, 32}";
target = "{0, 44}";
type = Stem;
},
{
origin = "{0, 59}";
target = "{1, 2}";
type = Stem;
},
{
origin = "{1, 31}";
target = "{0, 5}";
type = Stem;
},
{
origin = "{1, 18}";
target = "{0, 14}";
type = Stem;
},
{
origin = "{0, 56}";
target = "{1, 9}";
type = Stem;
}
);
layerId = master01;
paths = (
{
closed = 1;
nodes = (
"506 -34 OFFCURVE",
"605 7 OFFCURVE",
"665 96 CURVE SMOOTH",
"689 132 OFFCURVE",
"707 169 OFFCURVE",
"707 217 CURVE SMOOTH",
"707 285 OFFCURVE",
"682 349 OFFCURVE",
"647 390 CURVE SMOOTH",
"611 432 OFFCURVE",
"558 442 OFFCURVE",
"486 446 CURVE",
"538 476 OFFCURVE",
"602 523 OFFCURVE",
"602 602 CURVE SMOOTH",
"602 682 OFFCURVE",
"544 716 OFFCURVE",
"464 716 CURVE SMOOTH",
"373 716 OFFCURVE",
"291 701 OFFCURVE",
"214 688 CURVE SMOOTH",
"141 675 OFFCURVE",
"70 648 OFFCURVE",
"-13 648 CURVE SMOOTH",
"-26 648 OFFCURVE",
"-40 649 OFFCURVE",
"-53 649 CURVE SMOOTH",
"-108 649 OFFCURVE",
"-142 623 OFFCURVE",
"-173 595 CURVE SMOOTH",
"-197 573 OFFCURVE",
"-227 546 OFFCURVE",
"-227 504 CURVE SMOOTH",
"-227 460 OFFCURVE",
"-190 428 OFFCURVE",
"-148 428 CURVE SMOOTH",
"-119 428 OFFCURVE",
"-92 445 OFFCURVE",
"-92 474 CURVE SMOOTH",
"-92 499 OFFCURVE",
"-117 518 OFFCURVE",
"-142 518 CURVE SMOOTH",
"-159 518 OFFCURVE",
"-175 511 OFFCURVE",
"-186 499 CURVE",
"-186 561 OFFCURVE",
"-135 611 OFFCURVE",
"-71 611 CURVE SMOOTH",
"-57 611 OFFCURVE",
"-42 608 OFFCURVE",
"-28 608 CURVE SMOOTH",
"4 608 OFFCURVE",
"35 615 OFFCURVE",
"65 619 CURVE",
"66 554 OFFCURVE",
"72 493 OFFCURVE",
"72 428 CURVE SMOOTH",
"72 357 OFFCURVE",
"65 288 OFFCURVE",
"65 216 CURVE SMOOTH",
"65 184 OFFCURVE",
"67 150 OFFCURVE",
"67 118 CURVE SMOOTH",
"67 94 OFFCURVE",
"64 67 OFFCURVE",
"62 44 CURVE SMOOTH",
"61 28 OFFCURVE",
"53 18 OFFCURVE",
"53 4 CURVE SMOOTH",
"53 -13 OFFCURVE",
"63 -24 OFFCURVE",
"74 -24 CURVE SMOOTH",
"98 -24 OFFCURVE",
"133 8 OFFCURVE",
"155 8 CURVE SMOOTH",
"192 8 OFFCURVE",
"222 -10 OFFCURVE",
"252 -20 CURVE SMOOTH",
"286 -30 OFFCURVE",
"318 -34 OFFCURVE",
"358 -34 CURVE SMOOTH"
);
},
{
closed = 1;
nodes = (
"334 10 OFFCURVE",
"271 24 OFFCURVE",
"221 58 CURVE",
"221 121 LINE SMOOTH",
"221 192 OFFCURVE",
"224 260 OFFCURVE",
"224 330 CURVE SMOOTH",
"224 404 OFFCURVE",
"218 476 OFFCURVE",
"218 552 CURVE SMOOTH",
"218 583 OFFCURVE",
"219 615 OFFCURVE",
"221 646 CURVE",
"258 662 OFFCURVE",
"301 671 OFFCURVE",
"350 671 CURVE SMOOTH",
"415 671 OFFCURVE",
"463 620 OFFCURVE",
"463 558 CURVE SMOOTH",
"463 493 OFFCURVE",
"410 456 OFFCURVE",
"368 432 CURVE SMOOTH",
"332 410 OFFCURVE",
"296 393 OFFCURVE",
"260 371 CURVE",
"269 354 LINE",
"299 368 OFFCURVE",
"330 377 OFFCURVE",
"362 377 CURVE SMOOTH",
"493 377 OFFCURVE",
"570 294 OFFCURVE",
"570 161 CURVE SMOOTH",
"570 61 OFFCURVE",
"516 10 OFFCURVE",
"414 10 CURVE SMOOTH"
);
}
);
width = 752;
}
);
},
{
glyphname = C.med1;
lastChange = "2020-03-06 23:18:55 +0000";
layers = (
{
hints = (
{
horizontal = 1;
origin = "{0, 119}";
target = "{0, 38}";
type = Stem;
},
{
horizontal = 1;
origin = "{0, 59}";
target = "{0, 98}";
type = Stem;
},
{
horizontal = 1;
origin = "{0, 38}";
target = up;
type = BottomGhost;
},
{
origin = "{0, 107}";
target = "{0, 50}";
type = Stem;
}
);
layerId = master01;
paths = (
{
closed = 1;
nodes = (
"519 -178 OFFCURVE",
"555 -177 OFFCURVE",
"587 -173 CURVE SMOOTH",
"659 -166 OFFCURVE",
"733 -158 OFFCURVE",
"805 -146 CURVE SMOOTH",
"828 -142 OFFCURVE",
"851 -137 OFFCURVE",
"874 -137 CURVE SMOOTH",
"898 -137 OFFCURVE",
"919 -142 OFFCURVE",
"937 -154 CURVE SMOOTH",
"943 -158 OFFCURVE",
"948 -158 OFFCURVE",
"950 -158 CURVE SMOOTH",
"952 -158 OFFCURVE",
"954 -156 OFFCURVE",
"954 -155 CURVE SMOOTH",
"954 -151 OFFCURVE",
"951 -148 OFFCURVE",
"944 -142 CURVE SMOOTH",
"926 -128 OFFCURVE",
"918 -103 OFFCURVE",
"914 -77 CURVE SMOOTH",
"907 -22 OFFCURVE",
"908 35 OFFCURVE",
"906 90 CURVE SMOOTH",
"905 120 OFFCURVE",
"901 133 OFFCURVE",
"895 133 CURVE SMOOTH",
"889 133 OFFCURVE",
"883 119 OFFCURVE",
"875 95 CURVE SMOOTH",
"858 47 OFFCURVE",
"828 10 OFFCURVE",
"799 -25 CURVE SMOOTH",
"751 -83 OFFCURVE",
"700 -137 OFFCURVE",
"596 -137 CURVE SMOOTH",
"566 -137 OFFCURVE",
"539 -132 OFFCURVE",
"514 -127 CURVE SMOOTH",
"482 -120 OFFCURVE",
"459 -112 OFFCURVE",
"436 -95 CURVE SMOOTH",
"400 -70 OFFCURVE",
"370 -37 OFFCURVE",
"346 0 CURVE SMOOTH",
"302 70 OFFCURVE",
"280 168 OFFCURVE",
"280 265 CURVE SMOOTH",
"280 375 OFFCURVE",
"307 482 OFFCURVE",
"371 540 CURVE SMOOTH",
"406 571 OFFCURVE",
"454 589 OFFCURVE",
"504 602 CURVE SMOOTH",
"521 607 OFFCURVE",
"537 608 OFFCURVE",
"554 608 CURVE SMOOTH",
"609 608 OFFCURVE",
"657 605 OFFCURVE",
"704 595 CURVE SMOOTH",
"820 567 OFFCURVE",
"909 499 OFFCURVE",
"940 390 CURVE SMOOTH",
"947 364 OFFCURVE",
"953 349 OFFCURVE",
"959 349 CURVE SMOOTH",
"965 349 OFFCURVE",
"969 362 OFFCURVE",
"971 392 CURVE SMOOTH",
"972 408 OFFCURVE",
"973 425 OFFCURVE",
"973 442 CURVE SMOOTH",
"973 465 OFFCURVE",
"973 485 OFFCURVE",
"973 508 CURVE SMOOTH",
"973 538 OFFCURVE",
"981 561 OFFCURVE",
"995 578 CURVE SMOOTH",
"1003 589 OFFCURVE",
"1012 601 OFFCURVE",
"1012 606 CURVE SMOOTH",
"1012 610 OFFCURVE",
"1007 612 OFFCURVE",
"994 612 CURVE SMOOTH",
"973 612 OFFCURVE",
"954 610 OFFCURVE",
"932 610 CURVE SMOOTH",
"808 610 OFFCURVE",
"707 638 OFFCURVE",
"586 638 CURVE SMOOTH",
"562 638 OFFCURVE",
"541 637 OFFCURVE",
"517 637 CURVE SMOOTH",
"507 637 OFFCURVE",
"497 637 OFFCURVE",
"487 638 CURVE SMOOTH",
"477 639 OFFCURVE",
"466 641 OFFCURVE",
"456 641 CURVE SMOOTH",
"269 641 OFFCURVE",
"150 523 OFFCURVE",
"85 395 CURVE SMOOTH",
"61 348 OFFCURVE",
"46 297 OFFCURVE",
"46 241 CURVE SMOOTH",
"46 215 OFFCURVE",
"50 187 OFFCURVE",
"58 157 CURVE SMOOTH",
"82 79 OFFCURVE",
"123 3 OFFCURVE",
"176 -50 CURVE SMOOTH",
"208 -82 OFFCURVE",
"250 -108 OFFCURVE",
"293 -126 CURVE SMOOTH",
"346 -149 OFFCURVE",
"416 -178 OFFCURVE",
"488 -178 CURVE SMOOTH"
);
}
);
width = 1011;
}
);
},
{
glyphname = D.med1;
lastChange = "2020-03-06 23:18:58 +0000";
layers = (
{
hints = (
{
horizontal = 1;
origin = "{0, 107}";
target = "{0, 77}";
type = Stem;
},
{
horizontal = 1;
origin = "{0, 89}";
target = "{0, 101}";
type = Stem;
},
{
horizontal = 1;
origin = "{0, 59}";
target = "{0, 41}";
type = Stem;
},
{
horizontal = 1;
origin = "{0, 68}";
target = "{0, 23}";
type = Stem;
},
{
horizontal = 1;
origin = "{1, 14}";
target = "{0, 17}";
type = Stem;
},
{
origin = "{0, 104}";
target = "{0, 86}";
type = Stem;
},
{
origin = "{1, 20}";
target = "{0, 11}";
type = Stem;
},
{
origin = "{0, 35}";
target = "{0, 65}";
type = Stem;
},
{
origin = "{0, 53}";
target = "{0, 47}";
type = Stem;
},
{
origin = "{0, 56}";
target = "{0, 47}";
type = Stem;
},
{
origin = "{0, 71}";
target = "{1, 5}";
type = Stem;
},
{
origin = "{0, 92}";
target = "{0, 89}";
type = Stem;
}
);
layerId = master01;
paths = (
{
closed = 1;
nodes = (
"176 -2 OFFCURVE",
"215 1 OFFCURVE",
"252 1 CURVE SMOOTH",
"284 1 OFFCURVE",
"318 0 OFFCURVE",
"350 0 CURVE SMOOTH",
"392 0 OFFCURVE",
"433 2 OFFCURVE",
"475 6 CURVE SMOOTH",
"726 28 OFFCURVE",
"995 92 OFFCURVE",
"995 364 CURVE SMOOTH",
"995 489 OFFCURVE",
"947 583 OFFCURVE",
"858 624 CURVE SMOOTH",
"810 647 OFFCURVE",
"756 650 OFFCURVE",
"702 650 CURVE SMOOTH",
"605 650 OFFCURVE",
"511 648 OFFCURVE",
"422 635 CURVE SMOOTH",
"338 622 OFFCURVE",
"263 595 OFFCURVE",
"167 595 CURVE SMOOTH",
"143 595 OFFCURVE",
"119 596 OFFCURVE",
"95 596 CURVE SMOOTH",
"66 596 OFFCURVE",
"40 594 OFFCURVE",
"17 586 CURVE SMOOTH",
"-5 579 OFFCURVE",
"-23 567 OFFCURVE",
"-37 553 CURVE SMOOTH",
"-48 541 OFFCURVE",
"-62 519 OFFCURVE",
"-62 500 CURVE SMOOTH",
"-62 463 OFFCURVE",
"-24 429 OFFCURVE",
"-2 412 CURVE SMOOTH",
"8 404 OFFCURVE",
"16 401 OFFCURVE",
"24 401 CURVE SMOOTH",
"37 401 OFFCURVE",
"51 406 OFFCURVE",
"67 412 CURVE SMOOTH",
"87 420 OFFCURVE",
"110 431 OFFCURVE",
"110 456 CURVE SMOOTH",
"110 473 OFFCURVE",
"100 508 OFFCURVE",
"80 508 CURVE SMOOTH",
"56 508 OFFCURVE",
"19 478 OFFCURVE",
"19 461 CURVE SMOOTH",
"19 450 OFFCURVE",
"32 446 OFFCURVE",
"32 434 CURVE SMOOTH",
"32 427 OFFCURVE",
"29 425 OFFCURVE",
"25 425 CURVE SMOOTH",
"19 425 OFFCURVE",
"9 432 OFFCURVE",
"5 436 CURVE SMOOTH",
"-13 452 OFFCURVE",
"-35 471 OFFCURVE",
"-35 503 CURVE SMOOTH",
"-35 563 OFFCURVE",
"48 576 OFFCURVE",
"106 576 CURVE SMOOTH",
"201 576 OFFCURVE",
"294 541 OFFCURVE",
"294 445 CURVE SMOOTH",
"294 319 OFFCURVE",
"285 187 OFFCURVE",
"263 79 CURVE SMOOTH",
"253 29 OFFCURVE",
"214 16 OFFCURVE",
"155 16 CURVE SMOOTH",
"138 16 OFFCURVE",
"121 16 OFFCURVE",
"104 17 CURVE SMOOTH",
"85 18 OFFCURVE",
"51 22 OFFCURVE",
"26 30 CURVE SMOOTH",
"8 36 OFFCURVE",
"-5 46 OFFCURVE",
"-5 60 CURVE SMOOTH",
"-5 77 OFFCURVE",
"16 94 OFFCURVE",
"34 98 CURVE",
"26 92 OFFCURVE",
"23 85 OFFCURVE",
"23 78 CURVE SMOOTH",
"23 60 OFFCURVE",
"54 44 OFFCURVE",
"80 44 CURVE SMOOTH",
"98 44 OFFCURVE",
"119 54 OFFCURVE",
"119 73 CURVE SMOOTH",
"119 101 OFFCURVE",
"68 119 OFFCURVE",
"44 119 CURVE SMOOTH",
"12 119 OFFCURVE",
"-31 93 OFFCURVE",
"-31 59 CURVE SMOOTH",
"-31 -1 OFFCURVE",
"80 -2 OFFCURVE",
"139 -2 CURVE SMOOTH"
);
},
{
closed = 1;
nodes = (
"449 42 OFFCURVE",
"434 46 OFFCURVE",
"430 60 CURVE SMOOTH",
"423 96 OFFCURVE",
"420 139 OFFCURVE",
"420 180 CURVE SMOOTH",
"420 287 OFFCURVE",
"430 389 OFFCURVE",
"436 493 CURVE SMOOTH",
"438 528 OFFCURVE",
"439 572 OFFCURVE",
"452 600 CURVE SMOOTH",
"464 624 OFFCURVE",
"508 625 OFFCURVE",
"544 625 CURVE SMOOTH",
"591 625 OFFCURVE",
"620 616 OFFCURVE",
"654 599 CURVE SMOOTH",
"761 547 OFFCURVE",
"845 468 OFFCURVE",
"845 310 CURVE SMOOTH",
"845 228 OFFCURVE",
"812 153 OFFCURVE",
"764 112 CURVE SMOOTH",
"709 65 OFFCURVE",
"611 58 OFFCURVE",
"523 48 CURVE SMOOTH",
"509 46 OFFCURVE",
"486 42 OFFCURVE",
"467 42 CURVE SMOOTH"
);
}
);
width = 1040;
}
);
},
{
glyphname = E.med1;
lastChange = "2020-03-06 23:19:02 +0000";
layers = (
{
hints = (
{
horizontal = 1;
origin = "{0, 128}";
target = "{0, 26}";
type = Stem;
},
{
horizontal = 1;
origin = "{0, 38}";
target = "{0, 80}";
type = Stem;
},
{
horizontal = 1;
origin = "{0, 116}";
target = "{0, 86}";
type = Stem;
},
{
origin = "{0, 122}";
target = "{0, 29}";
type = Stem;
}
);
layerId = master01;
paths = (
{
closed = 1;
nodes = (
"816 -190 OFFCURVE",
"818 -187 OFFCURVE",
"818 -182 CURVE SMOOTH",
"818 -177 OFFCURVE",
"816 -171 OFFCURVE",
"812 -163 CURVE SMOOTH",
"793 -123 OFFCURVE",
"781 -82 OFFCURVE",
"781 -29 CURVE SMOOTH",
"781 -6 OFFCURVE",
"785 18 OFFCURVE",
"790 41 CURVE SMOOTH",
"792 49 OFFCURVE",
"793 56 OFFCURVE",
"793 61 CURVE SMOOTH",
"793 69 OFFCURVE",
"791 74 OFFCURVE",
"786 74 CURVE SMOOTH",
"781 74 OFFCURVE",
"774 70 OFFCURVE",
"764 60 CURVE SMOOTH",
"738 34 OFFCURVE",
"709 10 OFFCURVE",
"678 -10 CURVE SMOOTH",
"613 -54 OFFCURVE",
"545 -86 OFFCURVE",
"451 -86 CURVE SMOOTH",
"269 -86 OFFCURVE",
"179 57 OFFCURVE",
"179 233 CURVE SMOOTH",
"180 234 OFFCURVE",
"180 282 OFFCURVE",
"184 306 CURVE",
"215 318 OFFCURVE",
"255 325 OFFCURVE",
"295 325 CURVE SMOOTH",
"353 325 OFFCURVE",
"408 319 OFFCURVE",
"466 319 CURVE SMOOTH",
"528 319 OFFCURVE",
"591 324 OFFCURVE",
"653 324 CURVE SMOOTH",
"706 324 OFFCURVE",
"740 315 OFFCURVE",
"763 281 CURVE SMOOTH",
"780 256 OFFCURVE",
"798 223 OFFCURVE",
"804 187 CURVE SMOOTH",
"806 171 OFFCURVE",
"812 163 OFFCURVE",
"817 163 CURVE SMOOTH",
"822 163 OFFCURVE",
"825 171 OFFCURVE",
"826 188 CURVE SMOOTH",
"827 204 OFFCURVE",
"827 220 OFFCURVE",
"827 235 CURVE SMOOTH",
"827 254 OFFCURVE",
"826 275 OFFCURVE",
"826 294 CURVE SMOOTH",
"826 309 OFFCURVE",
"827 323 OFFCURVE",
"833 334 CURVE SMOOTH",
"835 340 OFFCURVE",
"847 349 OFFCURVE",
"847 354 CURVE SMOOTH",
"847 356 OFFCURVE",
"845 358 OFFCURVE",
"840 358 CURVE SMOOTH",
"834 358 OFFCURVE",
"822 353 OFFCURVE",
"816 352 CURVE SMOOTH",
"799 347 OFFCURVE",
"780 344 OFFCURVE",
"758 344 CURVE SMOOTH",
"723 344 OFFCURVE",
"691 350 OFFCURVE",
"656 350 CURVE SMOOTH",
"594 350 OFFCURVE",
"532 342 OFFCURVE",
"468 342 CURVE SMOOTH",
"374 342 OFFCURVE",
"276 343 OFFCURVE",
"192 356 CURVE",
"221 504 OFFCURVE",
"287 616 OFFCURVE",
"462 616 CURVE SMOOTH",
"553 616 OFFCURVE",
"645 596 OFFCURVE",
"703 553 CURVE SMOOTH",
"746 521 OFFCURVE",
"768 472 OFFCURVE",
"784 414 CURVE SMOOTH",
"789 398 OFFCURVE",
"796 384 OFFCURVE",
"803 384 CURVE SMOOTH",
"809 384 OFFCURVE",
"814 391 OFFCURVE",
"814 413 CURVE SMOOTH",
"815 490 OFFCURVE",
"813 563 OFFCURVE",
"844 611 CURVE SMOOTH",
"850 619 OFFCURVE",
"853 626 OFFCURVE",
"853 631 CURVE SMOOTH",
"853 636 OFFCURVE",
"850 638 OFFCURVE",
"839 638 CURVE SMOOTH",
"835 638 OFFCURVE",
"831 638 OFFCURVE",
"826 637 CURVE SMOOTH",
"802 635 OFFCURVE",
"778 634 OFFCURVE",
"751 634 CURVE SMOOTH",
"632 634 OFFCURVE",
"526 658 OFFCURVE",
"406 658 CURVE SMOOTH",
"267 658 OFFCURVE",
"157 602 OFFCURVE",
"89 524 CURVE SMOOTH",
"39 466 OFFCURVE",
"14 395 OFFCURVE",
"14 298 CURVE SMOOTH",
"14 243 OFFCURVE",
"25 186 OFFCURVE",
"42 134 CURVE SMOOTH",
"91 -12 OFFCURVE",
"214 -133 OFFCURVE",
"404 -133 CURVE SMOOTH",
"476 -133 OFFCURVE",
"535 -112 OFFCURVE",
"608 -112 CURVE SMOOTH",
"690 -112 OFFCURVE",
"748 -135 OFFCURVE",
"790 -176 CURVE SMOOTH",
"800 -184 OFFCURVE",
"807 -190 OFFCURVE",
"812 -190 CURVE SMOOTH"
);
}
);
width = 873;
}
);
},
{
glyphname = Eacute.med1;
lastChange = "2020-03-06 23:19:06 +0000";
layers = (
{
hints = (
{
horizontal = 1;
origin = "{0, 128}";
target = "{0, 26}";
type = Stem;
},
{
horizontal = 1;
origin = "{0, 38}";
target = "{0, 80}";
type = Stem;
},
{
horizontal = 1;
origin = "{0, 116}";
target = "{0, 86}";
type = Stem;
},
{
origin = "{0, 122}";
target = "{0, 29}";
type = Stem;
}
);
layerId = master01;
paths = (
{
closed = 1;
nodes = (
"816 -190 OFFCURVE",
"818 -187 OFFCURVE",
"818 -182 CURVE SMOOTH",
"818 -177 OFFCURVE",
"816 -171 OFFCURVE",
"812 -163 CURVE SMOOTH",
"793 -123 OFFCURVE",
"781 -82 OFFCURVE",
"781 -29 CURVE SMOOTH",
"781 -6 OFFCURVE",
"785 18 OFFCURVE",
"790 41 CURVE SMOOTH",
"792 49 OFFCURVE",
"793 56 OFFCURVE",
"793 61 CURVE SMOOTH",
"793 69 OFFCURVE",
"791 74 OFFCURVE",
"786 74 CURVE SMOOTH",
"781 74 OFFCURVE",
"774 70 OFFCURVE",
"764 60 CURVE SMOOTH",
"738 34 OFFCURVE",
"709 10 OFFCURVE",
"678 -10 CURVE SMOOTH",
"613 -54 OFFCURVE",
"545 -86 OFFCURVE",
"451 -86 CURVE SMOOTH",
"269 -86 OFFCURVE",
"179 57 OFFCURVE",
"179 233 CURVE SMOOTH",
"180 234 OFFCURVE",
"180 282 OFFCURVE",
"184 306 CURVE",
"215 318 OFFCURVE",
"255 325 OFFCURVE",
"295 325 CURVE SMOOTH",
"353 325 OFFCURVE",
"408 319 OFFCURVE",
"466 319 CURVE SMOOTH",
"528 319 OFFCURVE",
"591 324 OFFCURVE",
"653 324 CURVE SMOOTH",
"706 324 OFFCURVE",
"740 315 OFFCURVE",
"763 281 CURVE SMOOTH",
"780 256 OFFCURVE",
"798 223 OFFCURVE",
"804 187 CURVE SMOOTH",
"806 171 OFFCURVE",
"812 163 OFFCURVE",
"817 163 CURVE SMOOTH",
"822 163 OFFCURVE",
"825 171 OFFCURVE",
"826 188 CURVE SMOOTH",
"827 204 OFFCURVE",
"827 220 OFFCURVE",
"827 235 CURVE SMOOTH",
"827 254 OFFCURVE",
"826 275 OFFCURVE",
"826 294 CURVE SMOOTH",
"826 309 OFFCURVE",
"827 323 OFFCURVE",
"833 334 CURVE SMOOTH",
"835 340 OFFCURVE",
"847 349 OFFCURVE",
"847 354 CURVE SMOOTH",
"847 356 OFFCURVE",
"845 358 OFFCURVE",
"840 358 CURVE SMOOTH",
"834 358 OFFCURVE",
"822 353 OFFCURVE",
"816 352 CURVE SMOOTH",
"799 347 OFFCURVE",
"780 344 OFFCURVE",
"758 344 CURVE SMOOTH",
"723 344 OFFCURVE",
"691 350 OFFCURVE",
"656 350 CURVE SMOOTH",
"594 350 OFFCURVE",
"532 342 OFFCURVE",
"468 342 CURVE SMOOTH",
"374 342 OFFCURVE",
"276 343 OFFCURVE",
"192 356 CURVE",
"221 504 OFFCURVE",
"287 616 OFFCURVE",
"462 616 CURVE SMOOTH",
"553 616 OFFCURVE",
"645 596 OFFCURVE",
"703 553 CURVE SMOOTH",
"746 521 OFFCURVE",
"768 472 OFFCURVE",
"784 414 CURVE SMOOTH",
"789 398 OFFCURVE",
"796 384 OFFCURVE",
"803 384 CURVE SMOOTH",
"809 384 OFFCURVE",
"814 391 OFFCURVE",
"814 413 CURVE SMOOTH",
"815 490 OFFCURVE",
"813 563 OFFCURVE",
"844 611 CURVE SMOOTH",
"850 619 OFFCURVE",
"853 626 OFFCURVE",
"853 631 CURVE SMOOTH",
"853 636 OFFCURVE",
"850 638 OFFCURVE",
"839 638 CURVE SMOOTH",
"835 638 OFFCURVE",
"831 638 OFFCURVE",
"826 637 CURVE SMOOTH",
"802 635 OFFCURVE",
"778 634 OFFCURVE",
"751 634 CURVE SMOOTH",
"632 634 OFFCURVE",
"526 658 OFFCURVE",
"406 658 CURVE SMOOTH",
"267 658 OFFCURVE",
"157 602 OFFCURVE",
"89 524 CURVE SMOOTH",
"39 466 OFFCURVE",
"14 395 OFFCURVE",
"14 298 CURVE SMOOTH",
"14 243 OFFCURVE",
"25 186 OFFCURVE",
"42 134 CURVE SMOOTH",
"91 -12 OFFCURVE",
"214 -133 OFFCURVE",
"404 -133 CURVE SMOOTH",
"476 -133 OFFCURVE",
"535 -112 OFFCURVE",
"608 -112 CURVE SMOOTH",
"690 -112 OFFCURVE",
"748 -135 OFFCURVE",
"790 -176 CURVE SMOOTH",
"800 -184 OFFCURVE",
"807 -190 OFFCURVE",
"812 -190 CURVE SMOOTH"
);
},
{
closed = 1;
nodes = (
"356 750 OFFCURVE",
"359 750 OFFCURVE",
"361 751 CURVE SMOOTH",
"379 761 OFFCURVE",
"403 770 OFFCURVE",
"421 780 CURVE SMOOTH",
"449 794 OFFCURVE",
"481 806 OFFCURVE",
"510 818 CURVE SMOOTH",
"545 832 OFFCURVE",
"574 840 OFFCURVE",
"610 852 CURVE SMOOTH",
"612 853 OFFCURVE",
"613 855 OFFCURVE",
"613 857 CURVE SMOOTH",
"613 861 OFFCURVE",
"609 866 OFFCURVE",
"602 872 CURVE SMOOTH",
"594 878 OFFCURVE",
"583 882 OFFCURVE",
"576 882 CURVE SMOOTH",
"574 882 OFFCURVE",
"572 882 OFFCURVE",
"570 881 CURVE SMOOTH",
"544 871 OFFCURVE",
"521 861 OFFCURVE",
"486 845 CURVE SMOOTH",
"457 832 OFFCURVE",
"434 817 OFFCURVE",
"406 803 CURVE SMOOTH",
"388 793 OFFCURVE",
"365 783 OFFCURVE",
"347 773 CURVE SMOOTH",
"345 772 OFFCURVE",
"343 769 OFFCURVE",
"343 767 CURVE SMOOTH",
"343 763 OFFCURVE",
"345 759 OFFCURVE",
"347 755 CURVE SMOOTH",
"349 751 OFFCURVE",
"351 750 OFFCURVE",
"355 750 CURVE SMOOTH"
);
}
);
width = 873;
}
);
},
{
glyphname = Ecircumflex.med1;
lastChange = "2020-03-06 23:19:08 +0000";
layers = (
{
hints = (
{
horizontal = 1;
origin = "{0, 128}";
target = "{0, 26}";
type = Stem;
},
{
horizontal = 1;
origin = "{0, 38}";
target = "{0, 80}";
type = Stem;
},
{
horizontal = 1;
origin = "{0, 116}";
target = "{0, 86}";
type = Stem;
},
{
horizontal = 1;
origin = "{1, 27}";
target = down;
type = TopGhost;
},
{
origin = "{0, 122}";
target = "{0, 29}";
type = Stem;
}
);
layerId = master01;
paths = (
{
closed = 1;
nodes = (
"816 -190 OFFCURVE",
"818 -187 OFFCURVE",
"818 -182 CURVE SMOOTH",
"818 -177 OFFCURVE",
"816 -171 OFFCURVE",
"812 -163 CURVE SMOOTH",
"793 -123 OFFCURVE",
"781 -82 OFFCURVE",
"781 -29 CURVE SMOOTH",
"781 -6 OFFCURVE",
"785 18 OFFCURVE",
"790 41 CURVE SMOOTH",
"792 49 OFFCURVE",
"793 56 OFFCURVE",
"793 61 CURVE SMOOTH",
"793 69 OFFCURVE",
"791 74 OFFCURVE",
"786 74 CURVE SMOOTH",
"781 74 OFFCURVE",
"774 70 OFFCURVE",
"764 60 CURVE SMOOTH",
"738 34 OFFCURVE",
"709 10 OFFCURVE",
"678 -10 CURVE SMOOTH",
"613 -54 OFFCURVE",
"545 -86 OFFCURVE",
"451 -86 CURVE SMOOTH",
"269 -86 OFFCURVE",
"179 57 OFFCURVE",
"179 233 CURVE SMOOTH",
"180 234 OFFCURVE",
"180 282 OFFCURVE",
"184 306 CURVE",
"215 318 OFFCURVE",
"255 325 OFFCURVE",
"295 325 CURVE SMOOTH",
"353 325 OFFCURVE",
"408 319 OFFCURVE",
"466 319 CURVE SMOOTH",
"528 319 OFFCURVE",
"591 324 OFFCURVE",
"653 324 CURVE SMOOTH",
"706 324 OFFCURVE",
"740 315 OFFCURVE",
"763 281 CURVE SMOOTH",
"780 256 OFFCURVE",
"798 223 OFFCURVE",
"804 187 CURVE SMOOTH",
"806 171 OFFCURVE",
"812 163 OFFCURVE",
"817 163 CURVE SMOOTH",
"822 163 OFFCURVE",
"825 171 OFFCURVE",
"826 188 CURVE SMOOTH",
"827 204 OFFCURVE",
"827 220 OFFCURVE",
"827 235 CURVE SMOOTH",
"827 254 OFFCURVE",
"826 275 OFFCURVE",
"826 294 CURVE SMOOTH",
"826 309 OFFCURVE",
"827 323 OFFCURVE",
"833 334 CURVE SMOOTH",
"835 340 OFFCURVE",
"847 349 OFFCURVE",
"847 354 CURVE SMOOTH",
"847 356 OFFCURVE",
"845 358 OFFCURVE",
"840 358 CURVE SMOOTH",
"834 358 OFFCURVE",
"822 353 OFFCURVE",
"816 352 CURVE SMOOTH",
"799 347 OFFCURVE",
"780 344 OFFCURVE",
"758 344 CURVE SMOOTH",
"723 344 OFFCURVE",
"691 350 OFFCURVE",
"656 350 CURVE SMOOTH",
"594 350 OFFCURVE",
"532 342 OFFCURVE",
"468 342 CURVE SMOOTH",
"374 342 OFFCURVE",
"276 343 OFFCURVE",
"192 356 CURVE",
"221 504 OFFCURVE",
"287 616 OFFCURVE",
"462 616 CURVE SMOOTH",
"553 616 OFFCURVE",
"645 596 OFFCURVE",
"703 553 CURVE SMOOTH",
"746 521 OFFCURVE",
"768 472 OFFCURVE",
"784 414 CURVE SMOOTH",
"789 398 OFFCURVE",
"796 384 OFFCURVE",
"803 384 CURVE SMOOTH",
"809 384 OFFCURVE",
"814 391 OFFCURVE",
"814 413 CURVE SMOOTH",
"815 490 OFFCURVE",
"813 563 OFFCURVE",
"844 611 CURVE SMOOTH",
"850 619 OFFCURVE",
"853 626 OFFCURVE",
"853 631 CURVE SMOOTH",
"853 636 OFFCURVE",
"850 638 OFFCURVE",
"839 638 CURVE SMOOTH",
"835 638 OFFCURVE",
"831 638 OFFCURVE",
"826 637 CURVE SMOOTH",
"802 635 OFFCURVE",
"778 634 OFFCURVE",
"751 634 CURVE SMOOTH",
"632 634 OFFCURVE",
"526 658 OFFCURVE",
"406 658 CURVE SMOOTH",
"267 658 OFFCURVE",
"157 602 OFFCURVE",
"89 524 CURVE SMOOTH",
"39 466 OFFCURVE",
"14 395 OFFCURVE",
"14 298 CURVE SMOOTH",
"14 243 OFFCURVE",
"25 186 OFFCURVE",
"42 134 CURVE SMOOTH",
"91 -12 OFFCURVE",
"214 -133 OFFCURVE",
"404 -133 CURVE SMOOTH",
"476 -133 OFFCURVE",
"535 -112 OFFCURVE",
"608 -112 CURVE SMOOTH",
"690 -112 OFFCURVE",
"748 -135 OFFCURVE",
"790 -176 CURVE SMOOTH",
"800 -184 OFFCURVE",
"807 -190 OFFCURVE",
"812 -190 CURVE SMOOTH"
);
},
{
closed = 1;
nodes = (
"337 775 OFFCURVE",
"352 789 OFFCURVE",
"380 817 CURVE SMOOTH",
"388 825 OFFCURVE",
"423 855 OFFCURVE",
"437 868 CURVE",
"455 854 OFFCURVE",
"490 820 OFFCURVE",
"504 806 CURVE SMOOTH",
"514 796 OFFCURVE",
"545 765 OFFCURVE",
"562 752 CURVE",
"578 762 OFFCURVE",
"594 770 OFFCURVE",
"606 774 CURVE",
"574 800 OFFCURVE",
"561 810 OFFCURVE",
"517 854 CURVE SMOOTH",
"498 873 OFFCURVE",
"482 893 OFFCURVE",
"464 911 CURVE",
"438 906 LINE",
"408 874 OFFCURVE",
"394 861 OFFCURVE",
"360 827 CURVE SMOOTH",
"317 781 OFFCURVE",
"301 773 OFFCURVE",
"287 760 CURVE",
"291 756 OFFCURVE",
"297 748 OFFCURVE",
"301 743 CURVE"
);
}
);
width = 873;
}
);
},
{
glyphname = Edieresis.med1;
lastChange = "2020-03-06 23:19:11 +0000";
layers = (
{
hints = (
{
horizontal = 1;
origin = "{0, 128}";
target = "{0, 26}";
type = Stem;
},
{
horizontal = 1;
origin = "{0, 38}";
target = "{0, 80}";
type = Stem;
},
{
horizontal = 1;
origin = "{0, 116}";
target = "{0, 86}";
type = Stem;
},
{
horizontal = 1;
origin = "{1, 11}";
target = "{1, 5}";
type = Stem;
},
{
origin = "{0, 122}";
target = "{0, 29}";
type = Stem;
},
{
origin = "{1, 8}";
target = "{1, 2}";
type = Stem;
},
{
origin = "{2, 8}";
target = "{2, 2}";
type = Stem;
}
);
layerId = master01;
paths = (
{
closed = 1;
nodes = (
"816 -190 OFFCURVE",
"818 -187 OFFCURVE",
"818 -182 CURVE SMOOTH",
"818 -177 OFFCURVE",
"816 -171 OFFCURVE",
"812 -163 CURVE SMOOTH",
"793 -123 OFFCURVE",
"781 -82 OFFCURVE",
"781 -29 CURVE SMOOTH",
"781 -6 OFFCURVE",
"785 18 OFFCURVE",
"790 41 CURVE SMOOTH",
"792 49 OFFCURVE",
"793 56 OFFCURVE",
"793 61 CURVE SMOOTH",
"793 69 OFFCURVE",
"791 74 OFFCURVE",
"786 74 CURVE SMOOTH",
"781 74 OFFCURVE",
"774 70 OFFCURVE",
"764 60 CURVE SMOOTH",
"738 34 OFFCURVE",
"709 10 OFFCURVE",
"678 -10 CURVE SMOOTH",
"613 -54 OFFCURVE",
"545 -86 OFFCURVE",
"451 -86 CURVE SMOOTH",
"269 -86 OFFCURVE",
"179 57 OFFCURVE",
"179 233 CURVE SMOOTH",
"180 234 OFFCURVE",
"180 282 OFFCURVE",
"184 306 CURVE",
"215 318 OFFCURVE",
"255 325 OFFCURVE",
"295 325 CURVE SMOOTH",
"353 325 OFFCURVE",
"408 319 OFFCURVE",
"466 319 CURVE SMOOTH",
"528 319 OFFCURVE",
"591 324 OFFCURVE",
"653 324 CURVE SMOOTH",
"706 324 OFFCURVE",
"740 315 OFFCURVE",
"763 281 CURVE SMOOTH",
"780 256 OFFCURVE",
"798 223 OFFCURVE",
"804 187 CURVE SMOOTH",
"806 171 OFFCURVE",
"812 163 OFFCURVE",
"817 163 CURVE SMOOTH",
"822 163 OFFCURVE",
"825 171 OFFCURVE",
"826 188 CURVE SMOOTH",
"827 204 OFFCURVE",
"827 220 OFFCURVE",
"827 235 CURVE SMOOTH",
"827 254 OFFCURVE",
"826 275 OFFCURVE",
"826 294 CURVE SMOOTH",
"826 309 OFFCURVE",
"827 323 OFFCURVE",
"833 334 CURVE SMOOTH",
"835 340 OFFCURVE",
"847 349 OFFCURVE",
"847 354 CURVE SMOOTH",
"847 356 OFFCURVE",
"845 358 OFFCURVE",
"840 358 CURVE SMOOTH",
"834 358 OFFCURVE",
"822 353 OFFCURVE",
"816 352 CURVE SMOOTH",
"799 347 OFFCURVE",
"780 344 OFFCURVE",
"758 344 CURVE SMOOTH",
"723 344 OFFCURVE",
"691 350 OFFCURVE",
"656 350 CURVE SMOOTH",
"594 350 OFFCURVE",
"532 342 OFFCURVE",
"468 342 CURVE SMOOTH",
"374 342 OFFCURVE",
"276 343 OFFCURVE",
"192 356 CURVE",
"221 504 OFFCURVE",
"287 616 OFFCURVE",
"462 616 CURVE SMOOTH",
"553 616 OFFCURVE",
"645 596 OFFCURVE",
"703 553 CURVE SMOOTH",
"746 521 OFFCURVE",
"768 472 OFFCURVE",
"784 414 CURVE SMOOTH",
"789 398 OFFCURVE",
"796 384 OFFCURVE",
"803 384 CURVE SMOOTH",
"809 384 OFFCURVE",
"814 391 OFFCURVE",
"814 413 CURVE SMOOTH",
"815 490 OFFCURVE",
"813 563 OFFCURVE",
"844 611 CURVE SMOOTH",
"850 619 OFFCURVE",
"853 626 OFFCURVE",
"853 631 CURVE SMOOTH",
"853 636 OFFCURVE",
"850 638 OFFCURVE",
"839 638 CURVE SMOOTH",
"835 638 OFFCURVE",
"831 638 OFFCURVE",
"826 637 CURVE SMOOTH",
"802 635 OFFCURVE",
"778 634 OFFCURVE",
"751 634 CURVE SMOOTH",
"632 634 OFFCURVE",
"526 658 OFFCURVE",
"406 658 CURVE SMOOTH",
"267 658 OFFCURVE",
"157 602 OFFCURVE",
"89 524 CURVE SMOOTH",
"39 466 OFFCURVE",
"14 395 OFFCURVE",
"14 298 CURVE SMOOTH",
"14 243 OFFCURVE",
"25 186 OFFCURVE",
"42 134 CURVE SMOOTH",
"91 -12 OFFCURVE",
"214 -133 OFFCURVE",
"404 -133 CURVE SMOOTH",
"476 -133 OFFCURVE",
"535 -112 OFFCURVE",
"608 -112 CURVE SMOOTH",
"690 -112 OFFCURVE",
"748 -135 OFFCURVE",
"790 -176 CURVE SMOOTH",
"800 -184 OFFCURVE",
"807 -190 OFFCURVE",
"812 -190 CURVE SMOOTH"
);
},
{
closed = 1;
nodes = (
"366 781 OFFCURVE",
"385 806 OFFCURVE",
"385 822 CURVE SMOOTH",
"385 834 OFFCURVE",
"373 852 OFFCURVE",
"360 852 CURVE SMOOTH",
"347 852 OFFCURVE",
"320 829 OFFCURVE",
"320 812 CURVE SMOOTH",
"320 799 OFFCURVE",
"337 781 OFFCURVE",
"350 781 CURVE SMOOTH"
);
},
{
closed = 1;
nodes = (
"545 781 OFFCURVE",
"565 806 OFFCURVE",
"565 822 CURVE SMOOTH",
"565 834 OFFCURVE",
"553 852 OFFCURVE",
"540 852 CURVE SMOOTH",
"527 852 OFFCURVE",
"500 829 OFFCURVE",
"500 812 CURVE SMOOTH",
"500 799 OFFCURVE",
"516 781 OFFCURVE",
"529 781 CURVE SMOOTH"
);
}
);
width = 873;
}
);
},
